<?xml version="1.0" encoding="UTF-8"?>
<svg xmlns="http://www.w3.org/2000/svg" xmlns:xlink="http://www.w3.org/1999/xlink" version="1.2" >
<font id="HelveticaNeueLTW2045Light">
<font-face  font-family="HelveticaNeueLTW2045Light" units-per-em="1000" ascent="1389" descent="-460" font-style="normal" font-weight="400" font-stretch="normal" cap-height="714" x-height="516" underline-position="-75" underline-thickness="50" />
<missing-glyph  horiz-adv-x="500" d="" />
<glyph glyph-name="nonmarkingreturn" unicode="&#xd;" d="" />
<glyph glyph-name="space" unicode="&#x20;" horiz-adv-x="278" d="" />
<glyph glyph-name="exclam" unicode="&#x21;" horiz-adv-x="241" d="M87 501 L87 655 L155 655 L155 501 L140 178 L102 178 L87 501 Z M79 0 L79 106 L163 106 L163 0 L79 0 Z " />
<glyph glyph-name="quotedbl" unicode="&#x22;" horiz-adv-x="370" d="M87 714 L150 714 L150 471 L87 471 L87 714 Z M220 714 L283 714 L283 471 L220 471 L220 714 Z " />
<glyph glyph-name="numbersign" unicode="&#x23;" horiz-adv-x="556" d="M497 223 L386 223 L355 0 L305 0 L336 223 L195 223 L164 0 L114 0 L145 223 L35 223 L35 268 L151 268 L173 424 L63 424 L63 469 L179 469 L210 691 L260 691 L229 469 L370 469 L401 691 L451 691 L420 469 L525 469 L525 424 L414 424 L392 268 L497 268 L497 223 Z M223 424 L201 268 L342 268 L364 424 L223 424 Z " />
<glyph glyph-name="dollar" unicode="&#x24;" horiz-adv-x="556" d="M296 38 Q327 38 357.5 46 Q388 54 411.5 72 Q435 90 449.5 117.5 Q464 145 464 184 Q464 220 448.5 244 Q433 268 409 283.5 Q385 299 355 309 Q325 319 296 326 L296 38 Z M257 676 Q227 676 200.5 667.5 Q174 659 153.5 641 Q133 623 121.5 594.5 Q110 566 110 527 Q110 492 122.5 470 Q135 448 155.5 434 Q176 420 202.5 412 Q229 404 257 397 L257 676 Z M92 228 Q93 140 135.5 93.5 Q178 47 257 38 L257 334 Q215 343 176.5 355.5 Q138 368 109.5 390.5 Q81 413 64 447 Q47 481 47 534 Q47 579 63.5 615 Q80 651 108.5 676.5 Q137 702 175 715.5 Q213 729 257 729 L257 807 L296 807 L296 729 Q339 729 378 713.5 Q417 698 446.5 669.5 Q476 641 492.5 601 Q509 561 508 512 L445 512 Q444 587 403 631.5 Q362 676 296 676 L296 388 Q339 379 380.5 366 Q422 353 454.5 330 Q487 307 507 272 Q527 237 527 185 Q527 135 507.5 98 Q488 61 455.5 35.5 Q423 10 381.5 -2.5 Q340 -15 296 -15 L296 -100 L257 -100 L257 -14 Q140 -3 86.5 55.5 Q33 114 29 228 L92 228 Z " />
<glyph glyph-name="percent" unicode="&#x25;" horiz-adv-x="889" d="M228 661 Q196 661 175.5 647.5 Q155 634 143 612.5 Q131 591 126.5 565.5 Q122 540 122 516 Q122 492 126.5 467 Q131 442 143 421 Q155 400 175.5 386.5 Q196 373 228 373 Q259 373 279.5 386.5 Q300 400 312 421 Q324 442 329 467 Q334 492 334 516 Q334 540 329 565.5 Q324 591 312 612.5 Q300 634 279.5 647.5 Q259 661 228 661 Z M643 725 L690 725 L238 -34 L190 -34 L643 725 Z M667 363 Q709 363 739.5 348.5 Q770 334 789 308.5 Q808 283 817 248.5 Q826 214 826 174 Q826 134 817 99.5 Q808 65 789 39.5 Q770 14 739.5 -0.5 Q709 -15 667 -15 Q625 -15 594.5 -0.5 Q564 14 545 39.5 Q526 65 517 99.5 Q508 134 508 174 Q508 214 517 248.5 Q526 283 545 308.5 Q564 334 594.5 348.5 Q625 363 667 363 Z M667 318 Q635 318 614.5 304.5 Q594 291 582 269.5 Q570 248 565.5 222.5 Q561 197 561 173 Q561 149 565.5 124 Q570 99 582 78 Q594 57 614.5 43.5 Q635 30 667 30 Q698 30 718.5 43.5 Q739 57 751 78 Q763 99 768 124 Q773 149 773 173 Q773 197 768 222.5 Q763 248 751 269.5 Q739 291 718.5 304.5 Q698 318 667 318 Z M228 706 Q270 706 300.5 691.5 Q331 677 350 651.5 Q369 626 378 591.5 Q387 557 387 517 Q387 477 378 442.5 Q369 408 350 382.5 Q331 357 300.5 342.5 Q270 328 228 328 Q186 328 155.5 342.5 Q125 357 106 382.5 Q87 408 78 442.5 Q69 477 69 517 Q69 557 78 591.5 Q87 626 106 651.5 Q125 677 155.5 691.5 Q186 706 228 706 Z " />
<glyph glyph-name="ampersand" unicode="&#x26;" horiz-adv-x="611" d="M248 356 Q222 342 196 325 Q170 308 149 286 Q128 264 115 237.5 Q102 211 102 179 Q102 147 115 121.5 Q128 96 149.5 77 Q171 58 199 48 Q227 38 257 38 Q311 38 353.5 67.5 Q396 97 426 140 L248 356 Z M465 93 Q426 44 372 14.5 Q318 -15 255 -15 Q209 -15 169.5 -2 Q130 11 101 36.5 Q72 62 55.5 99.5 Q39 137 39 185 Q39 223 55 254.5 Q71 286 96.5 312.5 Q122 339 153 360 Q184 381 214 397 Q199 416 183.5 435.5 Q168 455 155.5 476 Q143 497 134.5 520 Q126 543 126 569 Q126 602 138.5 628.5 Q151 655 172.5 674 Q194 693 222.5 703.5 Q251 714 284 714 Q317 714 345.5 703.5 Q374 693 395.5 674 Q417 655 429.5 628.5 Q442 602 442 569 Q442 536 430 509 Q418 482 398.5 460 Q379 438 354 419.5 Q329 401 302 384 L458 196 Q471 222 475 248.5 Q479 275 479 316 L542 316 Q542 286 533.5 238.5 Q525 191 500 145 L620 0 L541 0 L465 93 Z M284 661 Q245 661 217 637.5 Q189 614 189 569 Q189 550 197 530.5 Q205 511 217 492.5 Q229 474 243 456.5 Q257 439 269 425 Q288 437 307.5 451 Q327 465 343 482.5 Q359 500 369 521.5 Q379 543 379 569 Q379 614 351 637.5 Q323 661 284 661 Z " />
<glyph glyph-name="quotesingle" unicode="&#x27;" horiz-adv-x="278" d="M108 714 L171 714 L171 471 L108 471 L108 714 Z " />
<glyph glyph-name="parenleft" unicode="&#x28;" horiz-adv-x="241" d="M192 -191 Q159 -136 132.5 -82 Q106 -28 88 27.5 Q70 83 60.5 142 Q51 201 51 266 Q51 395 88.5 510.5 Q126 626 192 729 L242 729 Q175 621 144.5 499 Q114 377 114 243 Q114 189 123 131.5 Q132 74 149 17.5 Q166 -39 189.5 -92 Q213 -145 242 -191 L192 -191 Z " />
<glyph glyph-name="parenright" unicode="&#x29;" horiz-adv-x="241" d="M49 729 Q82 673 108.5 619.5 Q135 566 153 510.5 Q171 455 180.5 396 Q190 337 190 272 Q190 143 152.5 27.5 Q115 -88 49 -191 L-1 -191 Q66 -83 96.5 39 Q127 161 127 295 Q127 350 117.5 407 Q108 464 91 519.5 Q74 575 50.5 628.5 Q27 682 -1 729 L49 729 Z " />
<glyph glyph-name="asterisk" unicode="&#x2a;" horiz-adv-x="352" d="M27 595 L41 632 L156 591 L156 714 L195 714 L195 591 L310 632 L325 595 L207 556 L279 458 L247 435 L174 535 L101 435 L69 458 L142 556 L27 595 Z " />
<glyph glyph-name="plus" unicode="&#x2b;" horiz-adv-x="600" d="M274 503 L327 503 L327 278 L552 278 L552 225 L327 225 L327 0 L274 0 L274 225 L49 225 L49 278 L274 278 L274 503 Z " />
<glyph glyph-name="comma" unicode="&#x2c;" horiz-adv-x="278" d="M181 106 L181 -1 Q181 -23 175.5 -44.5 Q170 -66 159 -84.5 Q148 -103 131.5 -117 Q115 -131 93 -137 L93 -94 Q105 -90 114 -79 Q123 -68 129 -54.5 Q135 -41 137.5 -26.5 Q140 -12 139 0 L97 0 L97 106 L181 106 Z " />
<glyph glyph-name="hyphen" unicode="&#x2d;" horiz-adv-x="370" d="M60 246 L60 304 L310 304 L310 246 L60 246 Z " />
<glyph glyph-name="period" unicode="&#x2e;" horiz-adv-x="278" d="M97 0 L97 106 L181 106 L181 0 L97 0 Z " />
<glyph glyph-name="slash" unicode="&#x2f;" horiz-adv-x="333" d="M-13 -15 L295 729 L346 729 L41 -15 L-13 -15 Z " />
<glyph glyph-name="zero" unicode="0" horiz-adv-x="556" d="M278 653 Q218 653 182 622 Q146 591 127.5 545 Q109 499 103 445 Q97 391 97 346 Q97 300 103 246.5 Q109 193 127.5 146.5 Q146 100 182 69 Q218 38 278 38 Q338 38 374 69 Q410 100 428.5 146.5 Q447 193 453 246.5 Q459 300 459 346 Q459 391 453 445 Q447 499 428.5 545 Q410 591 374 622 Q338 653 278 653 Z M278 706 Q354 706 402 672.5 Q450 639 476.5 587 Q503 535 512.5 471 Q522 407 522 346 Q522 284 512.5 220 Q503 156 476.5 104 Q450 52 402 18.5 Q354 -15 278 -15 Q201 -15 153.5 18.5 Q106 52 79.5 104 Q53 156 43.5 220 Q34 284 34 345 Q34 406 43.5 470.5 Q53 535 79.5 587 Q106 639 153.5 672.5 Q201 706 278 706 Z " />
<glyph glyph-name="one" unicode="1" horiz-adv-x="556" d="M97 565 Q138 566 171.5 569.5 Q205 573 229.5 586 Q254 599 270.5 625.5 Q287 652 294 700 L345 700 L345 0 L282 0 L282 520 L97 520 L97 565 Z " />
<glyph glyph-name="two" unicode="2" horiz-adv-x="556" d="M497 0 L36 0 Q37 52 54 92 Q71 132 99 164 Q127 196 162 222.5 Q197 249 234 273.5 Q271 298 307 323 Q343 348 373 378 Q402 407 416.5 437.5 Q431 468 431 510 Q431 544 418.5 570.5 Q406 597 384.5 615.5 Q363 634 334.5 643.5 Q306 653 274 653 Q231 653 200.5 637 Q170 621 151 594 Q132 567 123.5 532 Q115 497 116 458 L53 458 Q52 512 65.5 557.5 Q79 603 107 636 Q135 669 177.5 687.5 Q220 706 277 706 Q323 706 362.5 693.5 Q402 681 431 656 Q460 631 477 594.5 Q494 558 494 509 Q494 465 479.5 429 Q465 393 440.5 363 Q416 333 384 307.5 Q352 282 318 260 Q292 243 258.5 222.5 Q225 202 193.5 177 Q162 152 138 122.5 Q114 93 108 58 L497 58 L497 0 Z " />
<glyph glyph-name="three" unicode="3" horiz-adv-x="556" d="M96 223 Q94 181 105.5 147 Q117 113 139.5 89 Q162 65 195.5 51.5 Q229 38 271 38 Q305 38 337.5 48 Q370 58 395 78 Q420 98 435 126.5 Q450 155 450 193 Q450 230 437 258 Q424 286 401 304.5 Q378 323 347.5 332 Q317 341 282 341 L229 341 L229 394 L282 394 Q306 394 331.5 401.5 Q357 409 377.5 424.5 Q398 440 411 464 Q424 488 424 521 Q424 555 412 580 Q400 605 379 621.5 Q358 638 330 645.5 Q302 653 271 653 Q232 653 202 640 Q172 627 151.5 603.5 Q131 580 121 547.5 Q111 515 112 476 L49 476 Q49 525 64.5 567.5 Q80 610 108.5 640.5 Q137 671 178 688.5 Q219 706 270 706 Q311 706 350 695.5 Q389 685 419.5 663.5 Q450 642 468.5 608 Q487 574 487 528 Q487 471 456.5 429 Q426 387 369 373 L369 371 Q438 360 475.5 313.5 Q513 267 513 198 Q513 147 493.5 107 Q474 67 441 40 Q408 13 364 -1 Q320 -15 272 -15 Q218 -15 172.5 1 Q127 17 94.5 47.5 Q62 78 45.5 122.5 Q29 167 33 223 L96 223 Z " />
<glyph glyph-name="four" unicode="4" horiz-adv-x="556" d="M30 235 L354 700 L411 700 L411 227 L516 227 L516 174 L411 174 L411 0 L353 0 L353 174 L30 174 L30 235 Z M353 227 L353 608 L351 608 L87 227 L353 227 Z " />
<glyph glyph-name="five" unicode="5" horiz-adv-x="556" d="M99 200 Q100 164 113.5 134 Q127 104 150 82.5 Q173 61 204 49.5 Q235 38 271 38 Q311 38 343.5 53.5 Q376 69 399 95 Q422 121 434 156 Q446 191 446 229 Q446 268 432.5 301 Q419 334 395.5 358.5 Q372 383 339 397 Q306 411 267 411 Q219 411 178 389.5 Q137 368 111 328 L57 328 L125 691 L475 691 L475 633 L169 633 L124 401 L126 399 Q152 430 192 447 Q232 464 274 464 Q328 464 371.5 446 Q415 428 445.5 396 Q476 364 492.5 319.5 Q509 275 509 222 Q509 171 490 127.5 Q471 84 438 52.5 Q405 21 360.5 3 Q316 -15 266 -15 Q217 -15 175.5 0 Q134 15 103.5 42.5 Q73 70 55 110 Q37 150 36 200 L99 200 Z " />
<glyph glyph-name="six" unicode="6" horiz-adv-x="556" d="M290 403 Q249 403 216.5 388.5 Q184 374 161.5 349 Q139 324 127.5 290.5 Q116 257 116 218 Q116 180 126 147.5 Q136 115 157.5 90.5 Q179 66 212 52 Q245 38 291 38 Q328 38 359 52.5 Q390 67 412.5 91.5 Q435 116 447 149 Q459 182 459 218 Q459 256 447.5 290 Q436 324 414.5 349 Q393 374 361.5 388.5 Q330 403 290 403 Z M442 523 Q434 581 395.5 617 Q357 653 296 653 Q234 653 196.5 622 Q159 591 138 544 Q117 497 110 442.5 Q103 388 103 340 L105 340 Q130 392 180.5 424 Q231 456 291 456 Q343 456 386 438.5 Q429 421 459 390 Q489 359 505.5 316 Q522 273 522 222 Q522 171 504.5 127.5 Q487 84 455.5 52.5 Q424 21 380.5 3 Q337 -15 285 -15 Q221 -15 175 4.5 Q129 24 99 68.5 Q69 113 54.5 184 Q40 255 40 357 Q40 378 42.5 412 Q45 446 54 484.5 Q63 523 79.5 562.5 Q96 602 123.5 634 Q151 666 192 686 Q233 706 290 706 Q384 706 439 661 Q494 616 505 523 L442 523 Z " />
<glyph glyph-name="seven" unicode="7" horiz-adv-x="556" d="M51 691 L501 691 L501 633 Q468 599 422 541.5 Q376 484 332.5 404.5 Q289 325 256.5 223.5 Q224 122 218 0 L150 0 Q156 89 174.5 168 Q193 247 227.5 322.5 Q262 398 313.5 474 Q365 550 438 633 L51 633 L51 691 Z " />
<glyph glyph-name="eight" unicode="8" horiz-adv-x="556" d="M278 38 Q315 38 347.5 47.5 Q380 57 404 76.5 Q428 96 442 125.5 Q456 155 456 196 Q456 233 441.5 262 Q427 291 402.5 310.5 Q378 330 345.5 339.5 Q313 349 278 348 Q242 349 209.5 340 Q177 331 153 311.5 Q129 292 114.5 263 Q100 234 100 196 Q100 157 114 127 Q128 97 152 77.5 Q176 58 208.5 48 Q241 38 278 38 Z M490 531 Q490 474 460 433.5 Q430 393 376 377 L376 375 Q445 361 482 314.5 Q519 268 519 196 Q519 143 500 103.5 Q481 64 448 37.5 Q415 11 371 -2 Q327 -15 278 -15 Q228 -15 184.5 -2 Q141 11 108 37.5 Q75 64 56 103.5 Q37 143 37 196 Q39 265 76 314 Q113 363 179 375 L179 377 Q124 394 94.5 433.5 Q65 473 65 531 Q65 576 83.5 609 Q102 642 132 663.5 Q162 685 200 695.5 Q238 706 277 706 Q316 706 354 695.5 Q392 685 422.5 663.5 Q453 642 471.5 609 Q490 576 490 531 Z M278 401 Q307 400 334 407.5 Q361 415 381.5 431 Q402 447 414.5 472 Q427 497 427 531 Q427 561 415.5 584 Q404 607 384 622 Q364 637 336.5 645 Q309 653 278 653 Q249 653 222 645 Q195 637 174 622 Q153 607 140.5 584 Q128 561 128 531 Q128 496 141 471 Q154 446 175 430 Q196 414 223 407 Q250 400 278 401 Z " />
<glyph glyph-name="nine" unicode="9" horiz-adv-x="556" d="M266 288 Q307 288 339.5 302.5 Q372 317 394.5 342 Q417 367 428.5 400.5 Q440 434 440 473 Q440 510 430 543 Q420 576 398.5 600.5 Q377 625 344 639 Q311 653 265 653 Q227 653 196.5 638.5 Q166 624 143.5 599.5 Q121 575 109 542 Q97 509 97 473 Q97 435 108.5 401 Q120 367 141.5 342 Q163 317 194.5 302.5 Q226 288 266 288 Z M114 168 Q122 110 160.5 74 Q199 38 260 38 Q321 38 359 69 Q397 100 418 147 Q439 194 446 248.5 Q453 303 453 351 L451 351 Q426 299 375.5 267 Q325 235 265 235 Q212 235 169.5 252.5 Q127 270 97 301 Q67 332 50.5 375 Q34 418 34 469 Q34 520 51.5 563.5 Q69 607 100.5 638.5 Q132 670 175.5 688 Q219 706 271 706 Q335 706 381 686.5 Q427 667 457 622.5 Q487 578 501.5 507 Q516 436 516 334 Q516 313 513.5 279 Q511 245 502 206.5 Q493 168 476.5 128.5 Q460 89 432.5 57 Q405 25 364 5 Q323 -15 266 -15 Q172 -15 117 30 Q62 75 51 168 L114 168 Z " />
<glyph glyph-name="colon" unicode="&#x3a;" horiz-adv-x="278" d="M97 394 L97 500 L181 500 L181 394 L97 394 Z M97 0 L97 106 L181 106 L181 0 L97 0 Z " />
<glyph glyph-name="semicolon" unicode="&#x3b;" horiz-adv-x="278" d="M181 106 L181 -1 Q181 -23 175.5 -44.5 Q170 -66 159 -84.5 Q148 -103 131.5 -117 Q115 -131 93 -137 L93 -94 Q105 -90 114 -79 Q123 -68 129 -54.5 Q135 -41 137.5 -26.5 Q140 -12 139 0 L97 0 L97 106 L181 106 Z M97 394 L97 500 L181 500 L181 394 L97 394 Z " />
<glyph glyph-name="less" unicode="&#x3c;" horiz-adv-x="600" d="M554 -8 L46 226 L46 280 L554 514 L554 459 L108 253 L554 47 L554 -8 Z " />
<glyph glyph-name="equal" unicode="&#x3d;" horiz-adv-x="600" d="M552 325 L49 325 L49 378 L552 378 L552 325 Z M552 128 L49 128 L49 181 L552 181 L552 128 Z " />
<glyph glyph-name="greater" unicode="&#x3e;" horiz-adv-x="600" d="M492 253 L46 459 L46 514 L554 280 L554 226 L46 -8 L46 47 L492 253 Z " />
<glyph glyph-name="question" unicode="&#x3f;" horiz-adv-x="537" d="M54 494 Q54 547 69 590.5 Q84 634 113.5 664.5 Q143 695 185 712 Q227 729 281 729 Q323 729 359.5 716.5 Q396 704 424 680 Q452 656 468 621.5 Q484 587 484 544 Q484 488 459.5 449 Q435 410 397 374 Q376 353 361 339 Q346 325 336 313.5 Q326 302 320 291 Q314 280 310.5 265 Q307 250 306 229.5 Q305 209 304 179 L241 179 Q240 225 246 256 Q252 287 265.5 312 Q279 337 301.5 360 Q324 383 356 412 Q384 438 402.5 470 Q421 502 421 541 Q421 571 409.5 596 Q398 621 378.5 638.5 Q359 656 333 666 Q307 676 278 676 Q237 676 206.5 662 Q176 648 156 623.5 Q136 599 126 566 Q116 533 117 494 L54 494 Z M231 106 L315 106 L315 0 L231 0 L231 106 Z " />
<glyph glyph-name="at" unicode="&#x40;" horiz-adv-x="800" d="M426 510 Q388 510 356.5 487 Q325 464 302.5 429.5 Q280 395 268 354.5 Q256 314 256 279 Q256 234 279.5 208 Q303 182 339 182 Q373 182 403.5 206.5 Q434 231 456.5 266.5 Q479 302 492 343 Q505 384 505 417 Q505 435 498 451.5 Q491 468 480 481 Q469 494 455 502 Q441 510 426 510 Z M518 256 Q513 240 510 225 Q507 210 507.5 198.5 Q508 187 513.5 180 Q519 173 531 173 Q564 173 595 196 Q626 219 649 255 Q672 291 686 335 Q700 379 700 421 Q700 483 677.5 532 Q655 581 616 614.5 Q577 648 525.5 666 Q474 684 416 684 Q346 684 288 658 Q230 632 188 587.5 Q146 543 123 482.5 Q100 422 100 353 Q100 285 124 226 Q148 167 190.5 123.5 Q233 80 291.5 55 Q350 30 418 30 Q455 30 491.5 39 Q528 48 562 65.5 Q596 83 625 107.5 Q654 132 676 163 L727 163 Q704 122 670.5 89 Q637 56 596.5 33 Q556 10 510.5 -2.5 Q465 -15 418 -15 Q337 -15 269 14 Q201 43 151.5 93.5 Q102 144 74.5 212.5 Q47 281 47 360 Q47 438 75.5 505.5 Q104 573 154 622.5 Q204 672 270.5 700.5 Q337 729 414 729 Q486 729 548 706.5 Q610 684 655.5 642.5 Q701 601 727 544 Q753 487 753 418 Q753 358 732.5 305 Q712 252 679 212.5 Q646 173 604.5 150.5 Q563 128 521 128 Q495 128 476 145 Q457 162 454 195 L452 195 Q429 171 396 150 Q363 129 325 129 Q294 129 269.5 140.5 Q245 152 228 172 Q211 192 202 218 Q193 244 193 274 Q193 326 210 377.5 Q227 429 258 470 Q289 511 333 537 Q377 563 430 563 Q463 563 491 543.5 Q519 524 536 479 L561 544 L614 544 L518 256 Z " />
<glyph glyph-name="A" unicode="A" horiz-adv-x="630" d="M281 714 L357 714 L637 0 L564 0 L477 222 L152 222 L66 0 L-7 0 L281 714 Z M173 280 L454 280 L316 646 L173 280 Z " />
<glyph glyph-name="B" unicode="B" horiz-adv-x="667" d="M140 58 L374 58 Q412 58 446 64.5 Q480 71 506 88 Q532 105 547 133 Q562 161 562 205 Q562 274 513.5 308.5 Q465 343 374 343 L140 343 L140 58 Z M72 714 L374 714 Q419 714 460.5 705.5 Q502 697 533.5 676.5 Q565 656 584 622.5 Q603 589 603 539 Q603 511 594 484.5 Q585 458 568.5 436.5 Q552 415 529.5 400 Q507 385 479 379 L479 377 Q548 368 589 320.5 Q630 273 630 203 Q630 177 622.5 142.5 Q615 108 589 76 Q563 44 512 22 Q461 0 374 0 L72 0 L72 714 Z M140 401 L374 401 Q414 401 444.5 410.5 Q475 420 495 436.5 Q515 453 525 475 Q535 497 535 522 Q535 656 374 656 L140 656 L140 401 Z " />
<glyph glyph-name="C" unicode="C" horiz-adv-x="704" d="M594 498 Q585 539 564.5 571.5 Q544 604 514.5 626 Q485 648 449.5 659.5 Q414 671 375 671 Q304 671 253 644 Q202 617 169.5 572.5 Q137 528 121.5 471.5 Q106 415 106 357 Q106 298 121.5 242 Q137 186 169.5 141.5 Q202 97 253 70 Q304 43 375 43 Q424 43 464.5 61 Q505 79 534 110 Q563 141 581 182.5 Q599 224 604 272 L672 272 Q665 206 641 153 Q617 100 579 62.5 Q541 25 489.5 5 Q438 -15 375 -15 Q291 -15 227.5 15.5 Q164 46 122 97.5 Q80 149 59 216 Q38 283 38 357 Q38 430 59 497.5 Q80 565 122 616.5 Q164 668 227.5 698.5 Q291 729 375 729 Q426 729 474.5 714 Q523 699 562.5 669.5 Q602 640 628.5 597 Q655 554 662 498 L594 498 Z " />
<glyph glyph-name="D" unicode="D" horiz-adv-x="685" d="M140 58 L285 58 Q362 58 417.5 74.5 Q473 91 509 127 Q545 163 562 220 Q579 277 579 357 Q579 437 562 494 Q545 551 509 587 Q473 623 417.5 639.5 Q362 656 285 656 L140 656 L140 58 Z M72 714 L319 714 Q482 710 564.5 622.5 Q647 535 647 357 Q647 179 564.5 91.5 Q482 4 319 0 L72 0 L72 714 Z " />
<glyph glyph-name="E" unicode="E" horiz-adv-x="593" d="M72 714 L565 714 L565 656 L140 656 L140 398 L538 398 L538 340 L140 340 L140 58 L570 58 L570 0 L72 0 L72 714 Z " />
<glyph glyph-name="F" unicode="F" horiz-adv-x="537" d="M72 714 L525 714 L525 656 L140 656 L140 398 L482 398 L482 340 L140 340 L140 0 L72 0 L72 714 Z " />
<glyph glyph-name="G" unicode="G" horiz-adv-x="741" d="M682 0 L633 0 L624 130 L622 130 Q604 92 577.5 64.5 Q551 37 519 19.5 Q487 2 450.5 -6.5 Q414 -15 375 -15 Q291 -15 227.5 15.5 Q164 46 122 97.5 Q80 149 59 216 Q38 283 38 357 Q38 430 59 497.5 Q80 565 122 616.5 Q164 668 227.5 698.5 Q291 729 375 729 Q431 729 481 714 Q531 699 570 669 Q609 639 636 594.5 Q663 550 673 492 L605 492 Q602 523 584.5 554.5 Q567 586 537.5 612 Q508 638 467 654.5 Q426 671 375 671 Q304 671 253 644 Q202 617 169.5 572.5 Q137 528 121.5 471.5 Q106 415 106 357 Q106 298 121.5 242 Q137 186 169.5 141.5 Q202 97 253 70 Q304 43 375 43 Q434 43 480.5 62.5 Q527 82 559 117 Q591 152 607 200 Q623 248 622 305 L379 305 L379 363 L682 363 L682 0 Z " />
<glyph glyph-name="H" unicode="H" horiz-adv-x="704" d="M72 714 L140 714 L140 404 L564 404 L564 714 L632 714 L632 0 L564 0 L564 346 L140 346 L140 0 L72 0 L72 714 Z " />
<glyph glyph-name="I" unicode="I" horiz-adv-x="222" d="M77 714 L145 714 L145 0 L77 0 L77 714 Z " />
<glyph glyph-name="J" unicode="J" horiz-adv-x="500" d="M360 714 L428 714 L428 199 Q428 145 417 104.5 Q406 64 381.5 37.5 Q357 11 317.5 -2 Q278 -15 220 -15 Q158 -15 119.5 5.5 Q81 26 59 60.5 Q37 95 29 138.5 Q21 182 21 229 L89 229 Q90 206 92 174 Q94 142 106 113 Q118 84 145.5 63.5 Q173 43 226 43 Q266 43 292 53.5 Q318 64 333 86.5 Q348 109 354 144 Q360 179 360 228 L360 714 Z " />
<glyph glyph-name="K" unicode="K" horiz-adv-x="648" d="M72 714 L140 714 L140 330 L555 714 L647 714 L328 419 L662 0 L574 0 L277 372 L140 245 L140 0 L72 0 L72 714 Z " />
<glyph glyph-name="L" unicode="L" horiz-adv-x="537" d="M72 714 L140 714 L140 58 L540 58 L540 0 L72 0 L72 714 Z " />
<glyph glyph-name="M" unicode="M" horiz-adv-x="833" d="M70 714 L170 714 L417 88 L663 714 L763 714 L763 0 L695 0 L695 617 L693 617 L449 0 L385 0 L140 617 L138 617 L138 0 L70 0 L70 714 Z " />
<glyph glyph-name="N" unicode="N" horiz-adv-x="704" d="M71 714 L147 714 L563 110 L565 110 L565 714 L633 714 L633 0 L557 0 L141 604 L139 604 L139 0 L71 0 L71 714 Z " />
<glyph glyph-name="O" unicode="O" horiz-adv-x="741" d="M34 357 Q34 430 55 497.5 Q76 565 118 616.5 Q160 668 223.5 698.5 Q287 729 371 729 Q455 729 518 698.5 Q581 668 623 616.5 Q665 565 686 497.5 Q707 430 707 357 Q707 283 686 216 Q665 149 623 97.5 Q581 46 518 15.5 Q455 -15 371 -15 Q287 -15 223.5 15.5 Q160 46 118 97.5 Q76 149 55 216 Q34 283 34 357 Z M102 357 Q102 298 117.5 242 Q133 186 165.5 141.5 Q198 97 249 70 Q300 43 371 43 Q441 43 492 70 Q543 97 575.5 141.5 Q608 186 623.5 242 Q639 298 639 357 Q639 415 623.5 471.5 Q608 528 575.5 572.5 Q543 617 492 644 Q441 671 371 671 Q300 671 249 644 Q198 617 165.5 572.5 Q133 528 117.5 471.5 Q102 415 102 357 Z " />
<glyph glyph-name="P" unicode="P" horiz-adv-x="630" d="M72 714 L389 714 Q437 714 476 700.5 Q515 687 543 660.5 Q571 634 586 596 Q601 558 601 510 Q601 462 586 424 Q571 386 543 359.5 Q515 333 476 319.5 Q437 306 389 306 L140 306 L140 0 L72 0 L72 714 Z M140 364 L374 364 Q445 364 489 400 Q533 436 533 510 Q533 584 489 620 Q445 656 374 656 L140 656 L140 364 Z " />
<glyph glyph-name="Q" unicode="Q" horiz-adv-x="741" d="M548 113 Q596 158 617.5 223 Q639 288 639 357 Q639 415 623.5 471.5 Q608 528 575.5 572.5 Q543 617 492 644 Q441 671 371 671 Q300 671 249 644 Q198 617 165.5 572.5 Q133 528 117.5 471.5 Q102 415 102 357 Q102 298 117.5 242 Q133 186 165.5 141.5 Q198 97 249 70 Q300 43 371 43 Q447 43 503 78 L409 149 L444 192 L548 113 Z M667 -46 L556 38 Q482 -15 371 -15 Q287 -15 223.5 15.5 Q160 46 118 97.5 Q76 149 55 216 Q34 283 34 357 Q34 430 55 497.5 Q76 565 118 616.5 Q160 668 223.5 698.5 Q287 729 371 729 Q455 729 518 698.5 Q581 668 623 616.5 Q665 565 686 497.5 Q707 430 707 357 Q707 273 680 199.5 Q653 126 599 74 L701 -4 L667 -46 Z " />
<glyph glyph-name="R" unicode="R" horiz-adv-x="667" d="M72 714 L399 714 Q443 714 482.5 703 Q522 692 551.5 669.5 Q581 647 598.5 611.5 Q616 576 616 528 Q616 460 581 410 Q546 360 477 346 L477 344 Q512 339 535 325.5 Q558 312 572.5 291 Q587 270 593.5 242.5 Q600 215 602 183 Q603 165 604 139 Q605 113 608 86.5 Q611 60 617.5 36.5 Q624 13 635 0 L560 0 Q554 10 550.5 24.5 Q547 39 545.5 54.5 Q544 70 543 85 Q542 100 541 111 Q539 148 534.5 186 Q530 224 515.5 253.5 Q501 283 473.5 301 Q446 319 398 317 L140 317 L140 0 L72 0 L72 714 Z M140 375 L394 375 Q425 375 453 384.5 Q481 394 502 412 Q523 430 535.5 455.5 Q548 481 548 514 Q548 580 510 618 Q472 656 394 656 L140 656 L140 375 Z " />
<glyph glyph-name="S" unicode="S" horiz-adv-x="630" d="M104 235 Q103 180 121 143 Q139 106 170.5 84 Q202 62 245 52.5 Q288 43 337 43 Q365 43 398 51 Q431 59 459.5 76.5 Q488 94 507 121.5 Q526 149 526 188 Q526 218 512.5 240 Q499 262 477.5 277 Q456 292 430 301.5 Q404 311 379 317 L220 356 Q188 364 159 376 Q130 388 108 408 Q86 428 72.5 457 Q59 486 59 528 Q59 554 69 589 Q79 624 106.5 655 Q134 686 182 707.5 Q230 729 305 729 Q358 729 406 715 Q454 701 490 673 Q526 645 547.5 603.5 Q569 562 569 507 L501 507 Q499 547 482.5 578 Q466 609 439.5 629.5 Q413 650 378.5 660.5 Q344 671 306 671 Q271 671 238.5 663.5 Q206 656 181.5 639.5 Q157 623 142 596 Q127 569 127 529 Q127 504 135.5 485.5 Q144 467 159 454 Q174 441 193.5 433 Q213 425 235 420 L409 377 Q447 367 480.5 352.5 Q514 338 539.5 316.5 Q565 295 579.5 263.5 Q594 232 594 189 Q594 177 591.5 157 Q589 137 579.5 114.5 Q570 92 552.5 69 Q535 46 504.5 27 Q474 8 429 -3.5 Q384 -15 321 -15 Q258 -15 204 -0.5 Q150 14 112 44.5 Q74 75 53.5 122.5 Q33 170 36 235 L104 235 Z " />
<glyph glyph-name="T" unicode="T" horiz-adv-x="556" d="M-5 714 L561 714 L561 656 L312 656 L312 0 L244 0 L244 656 L-5 656 L-5 714 Z " />
<glyph glyph-name="U" unicode="U" horiz-adv-x="685" d="M65 714 L133 714 L133 272 Q133 210 147 166.5 Q161 123 188 95.5 Q215 68 253.5 55.5 Q292 43 342 43 Q392 43 431 55.5 Q470 68 497 95.5 Q524 123 538 166.5 Q552 210 552 272 L552 714 L620 714 L620 257 Q620 202 604.5 152.5 Q589 103 555.5 66 Q522 29 469.5 7 Q417 -15 342 -15 Q268 -15 215.5 7 Q163 29 129.5 66 Q96 103 80.5 152.5 Q65 202 65 257 L65 714 Z " />
<glyph glyph-name="V" unicode="V" horiz-adv-x="593" d="M-7 714 L66 714 L298 75 L300 75 L530 714 L602 714 L337 0 L258 0 L-7 714 Z " />
<glyph glyph-name="W" unicode="W" horiz-adv-x="907" d="M0 714 L73 714 L235 89 L237 89 L411 714 L496 714 L671 89 L673 89 L836 714 L904 714 L707 0 L635 0 L454 639 L452 639 L272 0 L198 0 L0 714 Z " />
<glyph glyph-name="X" unicode="X" horiz-adv-x="574" d="M3 714 L83 714 L285 415 L494 714 L570 714 L326 366 L584 0 L502 0 L285 315 L65 0 L-12 0 L245 368 L3 714 Z " />
<glyph glyph-name="Y" unicode="Y" horiz-adv-x="611" d="M271 294 L-10 714 L71 714 L306 352 L540 714 L621 714 L339 294 L339 0 L271 0 L271 294 Z " />
<glyph glyph-name="Z" unicode="Z" horiz-adv-x="574" d="M37 714 L551 714 L551 654 L81 58 L561 58 L561 0 L5 0 L5 60 L475 656 L37 656 L37 714 Z " />
<glyph glyph-name="bracketleft" unicode="&#x5b;" horiz-adv-x="241" d="M76 -191 L76 729 L237 729 L237 676 L139 676 L139 -138 L237 -138 L237 -191 L76 -191 Z " />
<glyph glyph-name="backslash" unicode="&#x5c;" horiz-adv-x="333" d="M292 -15 L-13 729 L38 729 L346 -15 L292 -15 Z " />
<glyph glyph-name="bracketright" unicode="&#x5d;" horiz-adv-x="241" d="M165 729 L165 -191 L4 -191 L4 -138 L102 -138 L102 676 L4 676 L4 729 L165 729 Z " />
<glyph glyph-name="asciicircum" unicode="&#x5e;" horiz-adv-x="600" d="M44 238 L274 691 L326 691 L556 238 L499 238 L299 628 L102 238 L44 238 Z " />
<glyph glyph-name="underscore" unicode="&#x5f;" horiz-adv-x="500" d="M0 -125 L0 -75 L500 -75 L500 -125 L0 -125 Z " />
<glyph glyph-name="grave" unicode="&#x60;" horiz-adv-x="185" d="M-31 729 L47 729 L152 588 L101 588 L-31 729 Z " />
<glyph glyph-name="a" unicode="a" horiz-adv-x="519" d="M390 282 L388 282 Q382 271 365 266 Q348 261 335 259 Q295 252 252.5 246.5 Q210 241 175 230 Q140 219 117.5 198 Q95 177 95 140 Q95 116 104.5 97.5 Q114 79 130 65.5 Q146 52 166.5 45 Q187 38 210 38 Q246 38 279 49 Q312 60 336.5 81 Q361 102 375.5 132 Q390 162 390 200 L390 282 Z M54 358 Q57 403 73 436 Q89 469 116.5 490 Q144 511 181 521 Q218 531 263 531 Q297 531 331 524.5 Q365 518 392 500 Q419 482 436 449.5 Q453 417 453 365 L453 91 Q453 53 490 53 Q501 53 510 57 L510 4 Q499 2 490.5 1 Q482 0 469 0 Q445 0 430.5 6.5 Q416 13 408 25 Q400 37 397.5 53.5 Q395 70 395 90 L393 90 Q376 65 358.5 45.5 Q341 26 319.5 12.5 Q298 -1 270 -8 Q242 -15 205 -15 Q169 -15 137.5 -6 Q106 3 82.5 21.5 Q59 40 45.5 68.5 Q32 97 32 136 Q32 190 56 220.5 Q80 251 119.5 267 Q159 283 208.5 289.5 Q258 296 309 302 Q328 304 343.5 307 Q359 310 369 317.5 Q379 325 384.5 338 Q390 351 390 372 Q390 404 379.5 424.5 Q369 445 350.5 457 Q332 469 307.5 473.5 Q283 478 255 478 Q195 478 157 449.5 Q119 421 117 358 L54 358 Z " />
<glyph glyph-name="b" unicode="b" horiz-adv-x="574" d="M473 258 Q473 298 463.5 337.5 Q454 377 433.5 408 Q413 439 381 458.5 Q349 478 304 478 Q254 478 219.5 458.5 Q185 439 163.5 408 Q142 377 132.5 337.5 Q123 298 123 258 Q123 218 132.5 178.5 Q142 139 163.5 108 Q185 77 219.5 57.5 Q254 38 304 38 Q349 38 381 57.5 Q413 77 433.5 108 Q454 139 463.5 178.5 Q473 218 473 258 Z M60 714 L123 714 L123 418 L125 418 Q135 446 153.5 467 Q172 488 196 502 Q220 516 247.5 523.5 Q275 531 304 531 Q363 531 406.5 509 Q450 487 479 449.5 Q508 412 522 362.5 Q536 313 536 258 Q536 203 522 153.5 Q508 104 479 66.5 Q450 29 406.5 7 Q363 -15 304 -15 Q241 -15 191.5 14.5 Q142 44 120 98 L118 98 L118 0 L60 0 L60 714 Z " />
<glyph glyph-name="c" unicode="c" horiz-adv-x="519" d="M424 354 Q411 412 376 445 Q341 478 278 478 Q233 478 199 459 Q165 440 142.5 409 Q120 378 108.5 338.5 Q97 299 97 258 Q97 217 108.5 177.5 Q120 138 142.5 107 Q165 76 199 57 Q233 38 278 38 Q307 38 333 49 Q359 60 379 79.5 Q399 99 412 126 Q425 153 428 185 L491 185 Q478 91 422 38 Q366 -15 278 -15 Q219 -15 173.5 7 Q128 29 97 66 Q66 103 50 152.5 Q34 202 34 258 Q34 313 50 363 Q66 413 97 450 Q128 487 173.5 509 Q219 531 278 531 Q361 531 418.5 487 Q476 443 487 354 L424 354 Z " />
<glyph glyph-name="d" unicode="d" horiz-adv-x="574" d="M101 258 Q101 218 110.5 178.5 Q120 139 140.5 108 Q161 77 193 57.5 Q225 38 270 38 Q320 38 354.5 57.5 Q389 77 410.5 108 Q432 139 441.5 178.5 Q451 218 451 258 Q451 298 441.5 337.5 Q432 377 410.5 408 Q389 439 354.5 458.5 Q320 478 270 478 Q225 478 193 458.5 Q161 439 140.5 408 Q120 377 110.5 337.5 Q101 298 101 258 Z M514 0 L456 0 L456 98 L454 98 Q444 72 424.5 51.5 Q405 31 380 16 Q355 1 326.5 -7 Q298 -15 270 -15 Q211 -15 167.5 7 Q124 29 95 66.5 Q66 104 52 153.5 Q38 203 38 258 Q38 313 52 362.5 Q66 412 95 449.5 Q124 487 167.5 509 Q211 531 270 531 Q298 531 326 523.5 Q354 516 378 502 Q402 488 420.5 467 Q439 446 449 418 L451 418 L451 714 L514 714 L514 0 Z " />
<glyph glyph-name="e" unicode="e" horiz-adv-x="519" d="M97 241 Q97 206 106.5 170 Q116 134 137 105 Q158 76 190 57 Q222 38 267 38 Q336 38 375 74 Q414 110 429 170 L492 170 Q472 82 418.5 33.5 Q365 -15 267 -15 Q205 -15 161 7 Q117 29 89 66.5 Q61 104 47.5 153.5 Q34 203 34 258 Q34 309 47.5 358 Q61 407 89 445.5 Q117 484 161 507.5 Q205 531 267 531 Q329 531 373 506 Q417 481 444.5 440.5 Q472 400 484 347.5 Q496 295 494 241 L97 241 Z M431 294 Q430 330 418.5 363 Q407 396 386 421.5 Q365 447 335 462.5 Q305 478 267 478 Q228 478 198 462.5 Q168 447 147 421.5 Q126 396 113.5 362.5 Q101 329 97 294 L431 294 Z " />
<glyph glyph-name="f" unicode="f" horiz-adv-x="259" d="M259 463 L157 463 L157 0 L94 0 L94 463 L6 463 L6 516 L94 516 L94 563 Q94 596 99 624 Q104 652 118 672 Q132 692 156.5 703 Q181 714 219 714 Q233 714 245 713 Q257 712 272 710 L272 656 Q259 658 248 659.5 Q237 661 226 661 Q200 661 186 653 Q172 645 165.5 631.5 Q159 618 158 600 Q157 582 157 561 L157 516 L259 516 L259 463 Z " />
<glyph glyph-name="g" unicode="g" horiz-adv-x="556" d="M267 59 Q308 59 339 76.5 Q370 94 391 122.5 Q412 151 422.5 188 Q433 225 433 264 Q433 302 424 340 Q415 378 395 409 Q375 440 343.5 459 Q312 478 267 478 Q222 478 190 459.5 Q158 441 137 411 Q116 381 106.5 342.5 Q97 304 97 264 Q97 225 107 188 Q117 151 138 122.5 Q159 94 191 76.5 Q223 59 267 59 Z M496 42 Q496 -16 483.5 -62 Q471 -108 444 -140 Q417 -172 373.5 -189 Q330 -206 267 -206 Q228 -206 191 -197 Q154 -188 124.5 -169 Q95 -150 75.5 -120.5 Q56 -91 53 -50 L116 -50 Q121 -79 135.5 -98.5 Q150 -118 170.5 -130 Q191 -142 216 -147.5 Q241 -153 267 -153 Q355 -153 394 -103.5 Q433 -54 433 42 L433 112 L431 112 Q409 64 366.5 35 Q324 6 267 6 Q205 6 161 26.5 Q117 47 88.5 83 Q60 119 47 167 Q34 215 34 271 Q34 324 49.5 371.5 Q65 419 94.5 454.5 Q124 490 167.5 510.5 Q211 531 267 531 Q295 531 321 523 Q347 515 368 500.5 Q389 486 405.5 467 Q422 448 431 427 L433 427 L433 516 L496 516 L496 42 Z " />
<glyph glyph-name="h" unicode="h" horiz-adv-x="537" d="M59 714 L122 714 L122 427 L124 427 Q142 474 188 502.5 Q234 531 289 531 Q343 531 379.5 517 Q416 503 438 477.5 Q460 452 469 415 Q478 378 478 332 L478 0 L415 0 L415 322 Q415 355 409 383.5 Q403 412 388 433 Q373 454 347.5 466 Q322 478 284 478 Q246 478 216.5 464.5 Q187 451 166.5 427.5 Q146 404 134.5 371.5 Q123 339 122 301 L122 0 L59 0 L59 714 Z " />
<glyph glyph-name="i" unicode="i" horiz-adv-x="185" d="M61 516 L124 516 L124 0 L61 0 L61 516 Z M61 714 L124 714 L124 613 L61 613 L61 714 Z " />
<glyph glyph-name="j" unicode="j" horiz-adv-x="185" d="M61 516 L124 516 L124 -48 Q124 -77 119.5 -103 Q115 -129 102.5 -148.5 Q90 -168 68.5 -179.5 Q47 -191 14 -191 Q3 -191 -8 -190 Q-19 -189 -30 -189 L-30 -137 Q-22 -138 -13 -138.5 Q-4 -139 4 -138 Q41 -138 51 -116.5 Q61 -95 61 -63 L61 516 Z M61 714 L124 714 L124 613 L61 613 L61 714 Z " />
<glyph glyph-name="k" unicode="k" horiz-adv-x="500" d="M60 714 L123 714 L123 266 L409 516 L493 516 L273 325 L508 0 L429 0 L225 281 L123 196 L123 0 L60 0 L60 714 Z " />
<glyph glyph-name="l" unicode="l" horiz-adv-x="185" d="M61 714 L124 714 L124 0 L61 0 L61 714 Z " />
<glyph glyph-name="m" unicode="m" horiz-adv-x="833" d="M60 516 L118 516 L118 429 L121 429 Q146 477 186.5 504 Q227 531 290 531 Q341 531 382.5 506 Q424 481 438 430 Q461 481 506 506 Q551 531 602 531 Q773 531 773 350 L773 0 L710 0 L710 347 Q710 411 683 444.5 Q656 478 588 478 Q547 478 520 462.5 Q493 447 477 421 Q461 395 454.5 361.5 Q448 328 448 292 L448 0 L385 0 L385 350 Q385 376 379.5 399.5 Q374 423 361.5 440.5 Q349 458 328 468 Q307 478 277 478 Q236 478 207 463.5 Q178 449 159.5 423.5 Q141 398 132 363 Q123 328 123 288 L123 0 L60 0 L60 516 Z " />
<glyph glyph-name="n" unicode="n" horiz-adv-x="537" d="M59 516 L122 516 L122 427 L124 427 Q142 474 188 502.5 Q234 531 289 531 Q343 531 379.5 517 Q416 503 438 477.5 Q460 452 469 415 Q478 378 478 332 L478 0 L415 0 L415 322 Q415 355 409 383.5 Q403 412 388 433 Q373 454 347.5 466 Q322 478 284 478 Q246 478 216.5 464.5 Q187 451 166.5 427.5 Q146 404 134.5 371.5 Q123 339 122 301 L122 0 L59 0 L59 516 Z " />
<glyph glyph-name="o" unicode="o" horiz-adv-x="556" d="M278 531 Q337 531 382.5 509 Q428 487 459 450 Q490 413 506 363 Q522 313 522 258 Q522 202 506 152.5 Q490 103 459 66 Q428 29 382.5 7 Q337 -15 278 -15 Q219 -15 173.5 7 Q128 29 97 66 Q66 103 50 152.5 Q34 202 34 258 Q34 313 50 363 Q66 413 97 450 Q128 487 173.5 509 Q219 531 278 531 Z M278 478 Q233 478 199 459 Q165 440 142.5 409 Q120 378 108.5 338.5 Q97 299 97 258 Q97 217 108.5 177.5 Q120 138 142.5 107 Q165 76 199 57 Q233 38 278 38 Q323 38 357 57 Q391 76 413.5 107 Q436 138 447.5 177.5 Q459 217 459 258 Q459 299 447.5 338.5 Q436 378 413.5 409 Q391 440 357 459 Q323 478 278 478 Z " />
<glyph glyph-name="p" unicode="p" horiz-adv-x="574" d="M473 258 Q473 298 463.5 337.5 Q454 377 433.5 408 Q413 439 381 458.5 Q349 478 304 478 Q251 478 216.5 460 Q182 442 161 412 Q140 382 131.5 342 Q123 302 123 258 Q123 218 132.5 178.5 Q142 139 163.5 108 Q185 77 219.5 57.5 Q254 38 304 38 Q349 38 381 57.5 Q413 77 433.5 108 Q454 139 463.5 178.5 Q473 218 473 258 Z M60 516 L118 516 L118 418 L120 418 Q142 472 191.5 501.5 Q241 531 304 531 Q363 531 406.5 509 Q450 487 479 449.5 Q508 412 522 362.5 Q536 313 536 258 Q536 203 522 153.5 Q508 104 479 66.5 Q450 29 406.5 7 Q363 -15 304 -15 Q275 -15 247.5 -8 Q220 -1 196 13.5 Q172 28 153.5 49 Q135 70 125 98 L123 98 L123 -191 L60 -191 L60 516 Z " />
<glyph glyph-name="q" unicode="q" horiz-adv-x="574" d="M101 258 Q101 218 110.5 178.5 Q120 139 140.5 108 Q161 77 193 57.5 Q225 38 270 38 Q320 38 354.5 57.5 Q389 77 410.5 108 Q432 139 441.5 178.5 Q451 218 451 258 Q451 298 441.5 337.5 Q432 377 410.5 408 Q389 439 354.5 458.5 Q320 478 270 478 Q225 478 193 458.5 Q161 439 140.5 408 Q120 377 110.5 337.5 Q101 298 101 258 Z M514 -191 L451 -191 L451 98 L449 98 Q439 70 420.5 49 Q402 28 378 13.5 Q354 -1 326 -8 Q298 -15 270 -15 Q211 -15 167.5 7 Q124 29 95 66.5 Q66 104 52 153.5 Q38 203 38 258 Q38 313 52 362.5 Q66 412 95 449.5 Q124 487 167.5 509 Q211 531 270 531 Q298 531 326.5 523 Q355 515 380 500 Q405 485 424.5 464 Q444 443 454 418 L456 418 L456 516 L514 516 L514 -191 Z " />
<glyph glyph-name="r" unicode="r" horiz-adv-x="315" d="M60 516 L118 516 L118 395 L120 395 Q144 458 194.5 492 Q245 526 315 523 L315 460 Q272 462 237 448.5 Q202 435 176.5 410 Q151 385 137 350 Q123 315 123 275 L123 0 L60 0 L60 516 Z " />
<glyph glyph-name="s" unicode="s" horiz-adv-x="481" d="M369 365 Q368 394 357 415.5 Q346 437 327.5 451 Q309 465 285 471.5 Q261 478 234 478 Q213 478 191.5 473.5 Q170 469 152 458.5 Q134 448 123 431 Q112 414 112 389 Q112 368 122.5 353.5 Q133 339 149 329 Q165 319 183.5 312.5 Q202 306 219 302 L303 283 Q330 279 356.5 268.5 Q383 258 403.5 241 Q424 224 437 199 Q450 174 450 140 Q450 98 431 68.5 Q412 39 382.5 20.5 Q353 2 316 -6.5 Q279 -15 243 -15 Q152 -15 95.5 28.5 Q39 72 31 167 L94 167 Q98 103 140.5 70.5 Q183 38 246 38 Q268 38 293 43 Q318 48 339 60 Q360 72 373.5 90.5 Q387 109 387 136 Q387 158 377.5 174 Q368 190 352 200.5 Q336 211 315.5 218 Q295 225 274 230 L193 248 Q162 256 136 266 Q110 276 90.5 292 Q71 308 60 330.5 Q49 353 49 386 Q49 425 66.5 453 Q84 481 112 498 Q140 515 174.5 523 Q209 531 243 531 Q282 531 315.5 521 Q349 511 374.5 490 Q400 469 415 438 Q430 407 432 365 L369 365 Z " />
<glyph glyph-name="t" unicode="t" horiz-adv-x="296" d="M160 516 L265 516 L265 463 L160 463 L160 115 Q160 84 168.5 66.5 Q177 49 211 47 Q238 47 265 50 L265 -4 Q251 -4 237 -5 Q223 -6 209 -6 Q146 -6 121 19 Q96 44 97 110 L97 463 L7 463 L7 516 L97 516 L97 671 L160 671 L160 516 Z " />
<glyph glyph-name="u" unicode="u" horiz-adv-x="537" d="M478 0 L420 0 L420 93 L418 93 Q393 41 345.5 13 Q298 -15 240 -15 Q142 -15 100.5 37.5 Q59 90 59 181 L59 516 L122 516 L122 180 Q124 110 154.5 74 Q185 38 260 38 Q300 38 329.5 55.5 Q359 73 378 102 Q397 131 406 168.5 Q415 206 415 245 L415 516 L478 516 L478 0 Z " />
<glyph glyph-name="v" unicode="v" horiz-adv-x="463" d="M2 516 L72 516 L234 63 L236 63 L396 516 L461 516 L268 0 L201 0 L2 516 Z " />
<glyph glyph-name="w" unicode="w" horiz-adv-x="741" d="M8 516 L75 516 L207 74 L209 74 L335 516 L406 516 L532 74 L534 74 L666 516 L733 516 L567 0 L498 0 L371 434 L369 434 L243 0 L174 0 L8 516 Z " />
<glyph glyph-name="x" unicode="x" horiz-adv-x="481" d="M201 268 L16 516 L95 516 L242 320 L386 516 L465 516 L279 269 L480 0 L400 0 L238 217 L79 0 L1 0 L201 268 Z " />
<glyph glyph-name="y" unicode="y" horiz-adv-x="463" d="M2 516 L69 516 L239 76 L398 516 L461 516 L237 -79 Q223 -112 211 -133.5 Q199 -155 184.5 -167.5 Q170 -180 150.5 -185.5 Q131 -191 101 -191 Q82 -190 71.5 -189.5 Q61 -189 53 -186 L53 -133 Q64 -135 74.5 -136.5 Q85 -138 96 -138 Q117 -138 130.5 -132 Q144 -126 154 -115.5 Q164 -105 171 -90 Q178 -75 186 -57 L208 2 L2 516 Z " />
<glyph glyph-name="z" unicode="z" horiz-adv-x="463" d="M91 53 L446 53 L446 0 L15 0 L15 51 L352 463 L38 463 L38 516 L432 516 L432 471 L91 53 Z " />
<glyph glyph-name="braceleft" unicode="&#x7b;" horiz-adv-x="333" d="M243 -191 Q201 -191 178 -157 Q155 -123 155 -66 L155 82 Q155 112 152 141 Q149 170 141 192.5 Q133 215 119 228.5 Q105 242 83 242 L83 295 Q105 295 119 308.5 Q133 322 141 344.5 Q149 367 152 396 Q155 425 155 455 L155 604 Q155 661 178 695 Q201 729 243 729 L293 729 L293 676 L273 676 Q258 676 247.5 667.5 Q237 659 230.5 644.5 Q224 630 221 611.5 Q218 593 218 573 L218 432 Q218 391 209 361.5 Q200 332 188 312.5 Q176 293 164.5 283 Q153 273 148 270 L148 268 Q153 265 164.5 255 Q176 245 188 225.5 Q200 206 209 176.5 Q218 147 218 106 L218 -35 Q218 -55 221 -74 Q224 -93 230.5 -107 Q237 -121 247.5 -129.5 Q258 -138 273 -138 L293 -138 L293 -191 L243 -191 Z " />
<glyph glyph-name="bar" unicode="&#x7c;" horiz-adv-x="222" d="M85 786 L138 786 L138 -214 L85 -214 L85 786 Z " />
<glyph glyph-name="braceright" unicode="&#x7d;" horiz-adv-x="333" d="M90 729 Q132 729 155 695 Q178 661 178 604 L178 456 Q178 426 181 397 Q184 368 192 345.5 Q200 323 214 309.5 Q228 296 250 296 L250 243 Q228 243 214 229.5 Q200 216 192 193.5 Q184 171 181 142 Q178 113 178 83 L178 -66 Q178 -123 155 -157 Q132 -191 90 -191 L40 -191 L40 -138 L60 -138 Q75 -138 85.5 -129.5 Q96 -121 102.5 -107 Q109 -93 112 -74 Q115 -55 115 -35 L115 106 Q115 147 124 176.5 Q133 206 145 225.5 Q157 245 168.5 255 Q180 265 185 268 L185 270 Q180 273 168.5 283 Q157 293 145 312.5 Q133 332 124 361.5 Q115 391 115 432 L115 573 Q115 593 112 611.5 Q109 630 102.5 644.5 Q96 659 85.5 667.5 Q75 676 60 676 L40 676 L40 729 L90 729 Z " />
<glyph glyph-name="asciitilde" unicode="&#x7e;" horiz-adv-x="600" d="M531 279 Q520 263 508 247.5 Q496 232 481 220 Q466 208 447.5 200.5 Q429 193 406 193 Q376 193 349 203 Q322 213 296 226 Q270 238 244 248 Q218 258 189 258 Q156 258 136.5 236.5 Q117 215 105 189 L69 225 Q77 241 88 256.5 Q99 272 114.5 284 Q130 296 149.5 303.5 Q169 311 194 311 Q222 311 251.5 301 Q281 291 309 279 Q338 266 363 256 Q388 246 407 246 Q437 246 457.5 267.5 Q478 289 495 315 L531 279 Z " />
<glyph glyph-name="Adieresis" unicode="&#xc4;" horiz-adv-x="630" d="M281 714 L357 714 L637 0 L564 0 L477 222 L152 222 L66 0 L-7 0 L281 714 Z M173 280 L454 280 L316 646 L173 280 Z M370 788 L370 889 L438 889 L438 788 L370 788 Z M193 788 L193 889 L261 889 L261 788 L193 788 Z " />
<glyph glyph-name="Aring" unicode="&#xc5;" horiz-adv-x="630" d="M281 714 L357 714 L637 0 L564 0 L477 222 L152 222 L66 0 L-7 0 L281 714 Z M173 280 L454 280 L316 646 L173 280 Z M209 860 Q209 882 217.5 901.5 Q226 921 240.5 935.5 Q255 950 274.5 958.5 Q294 967 316 967 Q338 967 357.5 958.5 Q377 950 391.5 935.5 Q406 921 414.5 901.5 Q423 882 423 860 Q423 838 414.5 818.5 Q406 799 391.5 784.5 Q377 770 357.5 761.5 Q338 753 316 753 Q294 753 274.5 761.5 Q255 770 240.5 784.5 Q226 799 217.5 818.5 Q209 838 209 860 Z M248 860 Q248 831 267.5 811.5 Q287 792 316 792 Q345 792 364.5 811.5 Q384 831 384 860 Q384 889 364.5 908.5 Q345 928 316 928 Q287 928 267.5 908.5 Q248 889 248 860 Z " />
<glyph glyph-name="Ccedilla" unicode="&#xc7;" horiz-adv-x="704" d="M672 272 Q665 206 641 153 Q617 100 579 62.5 Q541 25 489.5 5 Q438 -15 375 -15 L374 -15 L341 -58 Q359 -55 379 -55.5 Q399 -56 416.5 -62.5 Q434 -69 445.5 -83 Q457 -97 457 -120 Q457 -143 447 -159 Q437 -175 421 -185.5 Q405 -196 385.5 -201 Q366 -206 347 -206 Q323 -206 299 -201 Q275 -196 253 -185 L267 -153 Q280 -158 302 -162.5 Q324 -167 346 -167 Q367 -167 383 -157 Q399 -147 399 -124 Q399 -106 386 -96 Q373 -86 356 -86 Q323 -86 305 -94 L289 -79 L340 -13 Q264 -7 207.5 25.5 Q151 58 113.5 109 Q76 160 57 224 Q38 288 38 357 Q38 430 59 497.5 Q80 565 122 616.5 Q164 668 227.5 698.5 Q291 729 375 729 Q426 729 474.5 714 Q523 699 562.5 669.5 Q602 640 628.5 597 Q655 554 662 498 L594 498 Q585 539 564.5 571.5 Q544 604 514.5 626 Q485 648 449.5 659.5 Q414 671 375 671 Q304 671 253 644 Q202 617 169.5 572.5 Q137 528 121.5 471.5 Q106 415 106 357 Q106 298 121.5 242 Q137 186 169.5 141.5 Q202 97 253 70 Q304 43 375 43 Q424 43 464.5 61 Q505 79 534 110 Q563 141 581 182.5 Q599 224 604 272 L672 272 Z " />
<glyph glyph-name="Eacute" unicode="&#xc9;" horiz-adv-x="593" d="M72 714 L565 714 L565 656 L140 656 L140 398 L538 398 L538 340 L140 340 L140 58 L570 58 L570 0 L72 0 L72 714 Z M288 771 L237 771 L342 912 L420 912 L288 771 Z " />
<glyph glyph-name="Ntilde" unicode="&#xd1;" horiz-adv-x="704" d="M71 714 L147 714 L563 110 L565 110 L565 714 L633 714 L633 0 L557 0 L141 604 L139 604 L139 0 L71 0 L71 714 Z M509 891 Q506 874 499.5 857 Q493 840 482.5 826.5 Q472 813 457 804.5 Q442 796 422 796 Q402 796 383 803 Q364 810 347 818 Q330 826 315 834 Q300 842 287 842 Q264 842 249 829 Q234 816 234 791 L195 791 Q197 809 204 826 Q211 843 222 856.5 Q233 870 248.5 878.5 Q264 887 284 887 Q306 887 324 880 Q342 873 359 865 Q376 857 390.5 850 Q405 843 419 843 Q442 843 453.5 857 Q465 871 471 891 L509 891 Z " />
<glyph glyph-name="Odieresis" unicode="&#xd6;" horiz-adv-x="741" d="M34 357 Q34 430 55 497.5 Q76 565 118 616.5 Q160 668 223.5 698.5 Q287 729 371 729 Q455 729 518 698.5 Q581 668 623 616.5 Q665 565 686 497.5 Q707 430 707 357 Q707 283 686 216 Q665 149 623 97.5 Q581 46 518 15.5 Q455 -15 371 -15 Q287 -15 223.5 15.5 Q160 46 118 97.5 Q76 149 55 216 Q34 283 34 357 Z M102 357 Q102 298 117.5 242 Q133 186 165.5 141.5 Q198 97 249 70 Q300 43 371 43 Q441 43 492 70 Q543 97 575.5 141.5 Q608 186 623.5 242 Q639 298 639 357 Q639 415 623.5 471.5 Q608 528 575.5 572.5 Q543 617 492 644 Q441 671 371 671 Q300 671 249 644 Q198 617 165.5 572.5 Q133 528 117.5 471.5 Q102 415 102 357 Z M425 788 L425 889 L493 889 L493 788 L425 788 Z M248 788 L248 889 L316 889 L316 788 L248 788 Z " />
<glyph glyph-name="Udieresis" unicode="&#xdc;" horiz-adv-x="685" d="M65 714 L133 714 L133 272 Q133 210 147 166.5 Q161 123 188 95.5 Q215 68 253.5 55.5 Q292 43 342 43 Q392 43 431 55.5 Q470 68 497 95.5 Q524 123 538 166.5 Q552 210 552 272 L552 714 L620 714 L620 257 Q620 202 604.5 152.5 Q589 103 555.5 66 Q522 29 469.5 7 Q417 -15 342 -15 Q268 -15 215.5 7 Q163 29 129.5 66 Q96 103 80.5 152.5 Q65 202 65 257 L65 714 Z M397 788 L397 889 L465 889 L465 788 L397 788 Z M220 788 L220 889 L288 889 L288 788 L220 788 Z " />
<glyph glyph-name="aacute" unicode="&#xe1;" horiz-adv-x="519" d="M390 282 L388 282 Q382 271 365 266 Q348 261 335 259 Q295 252 252.5 246.5 Q210 241 175 230 Q140 219 117.5 198 Q95 177 95 140 Q95 116 104.5 97.5 Q114 79 130 65.5 Q146 52 166.5 45 Q187 38 210 38 Q246 38 279 49 Q312 60 336.5 81 Q361 102 375.5 132 Q390 162 390 200 L390 282 Z M54 358 Q57 403 73 436 Q89 469 116.5 490 Q144 511 181 521 Q218 531 263 531 Q297 531 331 524.5 Q365 518 392 500 Q419 482 436 449.5 Q453 417 453 365 L453 91 Q453 53 490 53 Q501 53 510 57 L510 4 Q499 2 490.5 1 Q482 0 469 0 Q445 0 430.5 6.5 Q416 13 408 25 Q400 37 397.5 53.5 Q395 70 395 90 L393 90 Q376 65 358.5 45.5 Q341 26 319.5 12.5 Q298 -1 270 -8 Q242 -15 205 -15 Q169 -15 137.5 -6 Q106 3 82.5 21.5 Q59 40 45.5 68.5 Q32 97 32 136 Q32 190 56 220.5 Q80 251 119.5 267 Q159 283 208.5 289.5 Q258 296 309 302 Q328 304 343.5 307 Q359 310 369 317.5 Q379 325 384.5 338 Q390 351 390 372 Q390 404 379.5 424.5 Q369 445 350.5 457 Q332 469 307.5 473.5 Q283 478 255 478 Q195 478 157 449.5 Q119 421 117 358 L54 358 Z M251 588 L200 588 L305 729 L383 729 L251 588 Z " />
<glyph glyph-name="agrave" unicode="&#xe0;" horiz-adv-x="519" d="M390 282 L388 282 Q382 271 365 266 Q348 261 335 259 Q295 252 252.5 246.5 Q210 241 175 230 Q140 219 117.5 198 Q95 177 95 140 Q95 116 104.5 97.5 Q114 79 130 65.5 Q146 52 166.5 45 Q187 38 210 38 Q246 38 279 49 Q312 60 336.5 81 Q361 102 375.5 132 Q390 162 390 200 L390 282 Z M54 358 Q57 403 73 436 Q89 469 116.5 490 Q144 511 181 521 Q218 531 263 531 Q297 531 331 524.5 Q365 518 392 500 Q419 482 436 449.5 Q453 417 453 365 L453 91 Q453 53 490 53 Q501 53 510 57 L510 4 Q499 2 490.5 1 Q482 0 469 0 Q445 0 430.5 6.5 Q416 13 408 25 Q400 37 397.5 53.5 Q395 70 395 90 L393 90 Q376 65 358.5 45.5 Q341 26 319.5 12.5 Q298 -1 270 -8 Q242 -15 205 -15 Q169 -15 137.5 -6 Q106 3 82.5 21.5 Q59 40 45.5 68.5 Q32 97 32 136 Q32 190 56 220.5 Q80 251 119.5 267 Q159 283 208.5 289.5 Q258 296 309 302 Q328 304 343.5 307 Q359 310 369 317.5 Q379 325 384.5 338 Q390 351 390 372 Q390 404 379.5 424.5 Q369 445 350.5 457 Q332 469 307.5 473.5 Q283 478 255 478 Q195 478 157 449.5 Q119 421 117 358 L54 358 Z M136 729 L214 729 L319 588 L268 588 L136 729 Z " />
<glyph glyph-name="acircumflex" unicode="&#xe2;" horiz-adv-x="519" d="M390 282 L388 282 Q382 271 365 266 Q348 261 335 259 Q295 252 252.5 246.5 Q210 241 175 230 Q140 219 117.5 198 Q95 177 95 140 Q95 116 104.5 97.5 Q114 79 130 65.5 Q146 52 166.5 45 Q187 38 210 38 Q246 38 279 49 Q312 60 336.5 81 Q361 102 375.5 132 Q390 162 390 200 L390 282 Z M54 358 Q57 403 73 436 Q89 469 116.5 490 Q144 511 181 521 Q218 531 263 531 Q297 531 331 524.5 Q365 518 392 500 Q419 482 436 449.5 Q453 417 453 365 L453 91 Q453 53 490 53 Q501 53 510 57 L510 4 Q499 2 490.5 1 Q482 0 469 0 Q445 0 430.5 6.5 Q416 13 408 25 Q400 37 397.5 53.5 Q395 70 395 90 L393 90 Q376 65 358.5 45.5 Q341 26 319.5 12.5 Q298 -1 270 -8 Q242 -15 205 -15 Q169 -15 137.5 -6 Q106 3 82.5 21.5 Q59 40 45.5 68.5 Q32 97 32 136 Q32 190 56 220.5 Q80 251 119.5 267 Q159 283 208.5 289.5 Q258 296 309 302 Q328 304 343.5 307 Q359 310 369 317.5 Q379 325 384.5 338 Q390 351 390 372 Q390 404 379.5 424.5 Q369 445 350.5 457 Q332 469 307.5 473.5 Q283 478 255 478 Q195 478 157 449.5 Q119 421 117 358 L54 358 Z M408 588 L343 588 L257 690 L169 588 L111 588 L225 729 L294 729 L408 588 Z " />
<glyph glyph-name="adieresis" unicode="&#xe4;" horiz-adv-x="519" d="M390 282 L388 282 Q382 271 365 266 Q348 261 335 259 Q295 252 252.5 246.5 Q210 241 175 230 Q140 219 117.5 198 Q95 177 95 140 Q95 116 104.5 97.5 Q114 79 130 65.5 Q146 52 166.5 45 Q187 38 210 38 Q246 38 279 49 Q312 60 336.5 81 Q361 102 375.5 132 Q390 162 390 200 L390 282 Z M54 358 Q57 403 73 436 Q89 469 116.5 490 Q144 511 181 521 Q218 531 263 531 Q297 531 331 524.5 Q365 518 392 500 Q419 482 436 449.5 Q453 417 453 365 L453 91 Q453 53 490 53 Q501 53 510 57 L510 4 Q499 2 490.5 1 Q482 0 469 0 Q445 0 430.5 6.5 Q416 13 408 25 Q400 37 397.5 53.5 Q395 70 395 90 L393 90 Q376 65 358.5 45.5 Q341 26 319.5 12.5 Q298 -1 270 -8 Q242 -15 205 -15 Q169 -15 137.5 -6 Q106 3 82.5 21.5 Q59 40 45.5 68.5 Q32 97 32 136 Q32 190 56 220.5 Q80 251 119.5 267 Q159 283 208.5 289.5 Q258 296 309 302 Q328 304 343.5 307 Q359 310 369 317.5 Q379 325 384.5 338 Q390 351 390 372 Q390 404 379.5 424.5 Q369 445 350.5 457 Q332 469 307.5 473.5 Q283 478 255 478 Q195 478 157 449.5 Q119 421 117 358 L54 358 Z M314 605 L314 706 L382 706 L382 605 L314 605 Z M137 605 L137 706 L205 706 L205 605 L137 605 Z " />
<glyph glyph-name="atilde" unicode="&#xe3;" horiz-adv-x="519" d="M390 282 L388 282 Q382 271 365 266 Q348 261 335 259 Q295 252 252.5 246.5 Q210 241 175 230 Q140 219 117.5 198 Q95 177 95 140 Q95 116 104.5 97.5 Q114 79 130 65.5 Q146 52 166.5 45 Q187 38 210 38 Q246 38 279 49 Q312 60 336.5 81 Q361 102 375.5 132 Q390 162 390 200 L390 282 Z M54 358 Q57 403 73 436 Q89 469 116.5 490 Q144 511 181 521 Q218 531 263 531 Q297 531 331 524.5 Q365 518 392 500 Q419 482 436 449.5 Q453 417 453 365 L453 91 Q453 53 490 53 Q501 53 510 57 L510 4 Q499 2 490.5 1 Q482 0 469 0 Q445 0 430.5 6.5 Q416 13 408 25 Q400 37 397.5 53.5 Q395 70 395 90 L393 90 Q376 65 358.5 45.5 Q341 26 319.5 12.5 Q298 -1 270 -8 Q242 -15 205 -15 Q169 -15 137.5 -6 Q106 3 82.5 21.5 Q59 40 45.5 68.5 Q32 97 32 136 Q32 190 56 220.5 Q80 251 119.5 267 Q159 283 208.5 289.5 Q258 296 309 302 Q328 304 343.5 307 Q359 310 369 317.5 Q379 325 384.5 338 Q390 351 390 372 Q390 404 379.5 424.5 Q369 445 350.5 457 Q332 469 307.5 473.5 Q283 478 255 478 Q195 478 157 449.5 Q119 421 117 358 L54 358 Z M416 708 Q413 691 406.5 674 Q400 657 389.5 643.5 Q379 630 364 621.5 Q349 613 329 613 Q309 613 290 620 Q271 627 254 635 Q237 643 222 651 Q207 659 194 659 Q171 659 156 646 Q141 633 141 608 L102 608 Q104 626 111 643 Q118 660 129 673.5 Q140 687 155.5 695.5 Q171 704 191 704 Q213 704 231 697 Q249 690 266 682 Q283 674 297.5 667 Q312 660 326 660 Q349 660 360.5 674 Q372 688 378 708 L416 708 Z " />
<glyph glyph-name="aring" unicode="&#xe5;" horiz-adv-x="519" d="M390 282 L388 282 Q382 271 365 266 Q348 261 335 259 Q295 252 252.5 246.5 Q210 241 175 230 Q140 219 117.5 198 Q95 177 95 140 Q95 116 104.5 97.5 Q114 79 130 65.5 Q146 52 166.5 45 Q187 38 210 38 Q246 38 279 49 Q312 60 336.5 81 Q361 102 375.5 132 Q390 162 390 200 L390 282 Z M54 358 Q57 403 73 436 Q89 469 116.5 490 Q144 511 181 521 Q218 531 263 531 Q297 531 331 524.5 Q365 518 392 500 Q419 482 436 449.5 Q453 417 453 365 L453 91 Q453 53 490 53 Q501 53 510 57 L510 4 Q499 2 490.5 1 Q482 0 469 0 Q445 0 430.5 6.5 Q416 13 408 25 Q400 37 397.5 53.5 Q395 70 395 90 L393 90 Q376 65 358.5 45.5 Q341 26 319.5 12.5 Q298 -1 270 -8 Q242 -15 205 -15 Q169 -15 137.5 -6 Q106 3 82.5 21.5 Q59 40 45.5 68.5 Q32 97 32 136 Q32 190 56 220.5 Q80 251 119.5 267 Q159 283 208.5 289.5 Q258 296 309 302 Q328 304 343.5 307 Q359 310 369 317.5 Q379 325 384.5 338 Q390 351 390 372 Q390 404 379.5 424.5 Q369 445 350.5 457 Q332 469 307.5 473.5 Q283 478 255 478 Q195 478 157 449.5 Q119 421 117 358 L54 358 Z M153 677 Q153 699 161.5 718.5 Q170 738 184.5 752.5 Q199 767 218.5 775.5 Q238 784 260 784 Q282 784 301.5 775.5 Q321 767 335.5 752.5 Q350 738 358.5 718.5 Q367 699 367 677 Q367 655 358.5 635.5 Q350 616 335.5 601.5 Q321 587 301.5 578.5 Q282 570 260 570 Q238 570 218.5 578.5 Q199 587 184.5 601.5 Q170 616 161.5 635.5 Q153 655 153 677 Z M192 677 Q192 648 211.5 628.5 Q231 609 260 609 Q289 609 308.5 628.5 Q328 648 328 677 Q328 706 308.5 725.5 Q289 745 260 745 Q231 745 211.5 725.5 Q192 706 192 677 Z " />
<glyph glyph-name="ccedilla" unicode="&#xe7;" horiz-adv-x="519" d="M491 185 Q478 91 422.5 39 Q367 -13 282 -15 L249 -58 Q267 -55 287 -55.5 Q307 -56 324.5 -62.5 Q342 -69 353.5 -83 Q365 -97 365 -120 Q365 -143 355 -159 Q345 -175 329 -185.5 Q313 -196 293.5 -201 Q274 -206 255 -206 Q231 -206 207 -201 Q183 -196 161 -185 L175 -153 Q188 -158 210 -162.5 Q232 -167 254 -167 Q275 -167 291 -157 Q307 -147 307 -124 Q307 -106 294 -96 Q281 -86 264 -86 Q231 -86 213 -94 L197 -79 L248 -13 Q196 -7 156 16.5 Q116 40 89 76.5 Q62 113 48 159.5 Q34 206 34 258 Q34 313 50 363 Q66 413 97 450 Q128 487 173.5 509 Q219 531 278 531 Q361 531 418.5 487 Q476 443 487 354 L424 354 Q411 412 376 445 Q341 478 278 478 Q233 478 199 459 Q165 440 142.5 409 Q120 378 108.5 338.5 Q97 299 97 258 Q97 217 108.5 177.5 Q120 138 142.5 107 Q165 76 199 57 Q233 38 278 38 Q307 38 333 49 Q359 60 379 79.5 Q399 99 412 126 Q425 153 428 185 L491 185 Z " />
<glyph glyph-name="eacute" unicode="&#xe9;" horiz-adv-x="519" d="M97 241 Q97 206 106.5 170 Q116 134 137 105 Q158 76 190 57 Q222 38 267 38 Q336 38 375 74 Q414 110 429 170 L492 170 Q472 82 418.5 33.5 Q365 -15 267 -15 Q205 -15 161 7 Q117 29 89 66.5 Q61 104 47.5 153.5 Q34 203 34 258 Q34 309 47.5 358 Q61 407 89 445.5 Q117 484 161 507.5 Q205 531 267 531 Q329 531 373 506 Q417 481 444.5 440.5 Q472 400 484 347.5 Q496 295 494 241 L97 241 Z M431 294 Q430 330 418.5 363 Q407 396 386 421.5 Q365 447 335 462.5 Q305 478 267 478 Q228 478 198 462.5 Q168 447 147 421.5 Q126 396 113.5 362.5 Q101 329 97 294 L431 294 Z M251 588 L200 588 L305 729 L383 729 L251 588 Z " />
<glyph glyph-name="egrave" unicode="&#xe8;" horiz-adv-x="519" d="M97 241 Q97 206 106.5 170 Q116 134 137 105 Q158 76 190 57 Q222 38 267 38 Q336 38 375 74 Q414 110 429 170 L492 170 Q472 82 418.5 33.5 Q365 -15 267 -15 Q205 -15 161 7 Q117 29 89 66.5 Q61 104 47.5 153.5 Q34 203 34 258 Q34 309 47.5 358 Q61 407 89 445.5 Q117 484 161 507.5 Q205 531 267 531 Q329 531 373 506 Q417 481 444.5 440.5 Q472 400 484 347.5 Q496 295 494 241 L97 241 Z M431 294 Q430 330 418.5 363 Q407 396 386 421.5 Q365 447 335 462.5 Q305 478 267 478 Q228 478 198 462.5 Q168 447 147 421.5 Q126 396 113.5 362.5 Q101 329 97 294 L431 294 Z M136 729 L214 729 L319 588 L268 588 L136 729 Z " />
<glyph glyph-name="ecircumflex" unicode="&#xea;" horiz-adv-x="519" d="M97 241 Q97 206 106.5 170 Q116 134 137 105 Q158 76 190 57 Q222 38 267 38 Q336 38 375 74 Q414 110 429 170 L492 170 Q472 82 418.5 33.5 Q365 -15 267 -15 Q205 -15 161 7 Q117 29 89 66.5 Q61 104 47.5 153.5 Q34 203 34 258 Q34 309 47.5 358 Q61 407 89 445.5 Q117 484 161 507.5 Q205 531 267 531 Q329 531 373 506 Q417 481 444.5 440.5 Q472 400 484 347.5 Q496 295 494 241 L97 241 Z M431 294 Q430 330 418.5 363 Q407 396 386 421.5 Q365 447 335 462.5 Q305 478 267 478 Q228 478 198 462.5 Q168 447 147 421.5 Q126 396 113.5 362.5 Q101 329 97 294 L431 294 Z M408 588 L343 588 L257 690 L169 588 L111 588 L225 729 L294 729 L408 588 Z " />
<glyph glyph-name="edieresis" unicode="&#xeb;" horiz-adv-x="519" d="M97 241 Q97 206 106.5 170 Q116 134 137 105 Q158 76 190 57 Q222 38 267 38 Q336 38 375 74 Q414 110 429 170 L492 170 Q472 82 418.5 33.5 Q365 -15 267 -15 Q205 -15 161 7 Q117 29 89 66.5 Q61 104 47.5 153.5 Q34 203 34 258 Q34 309 47.5 358 Q61 407 89 445.5 Q117 484 161 507.5 Q205 531 267 531 Q329 531 373 506 Q417 481 444.5 440.5 Q472 400 484 347.5 Q496 295 494 241 L97 241 Z M431 294 Q430 330 418.5 363 Q407 396 386 421.5 Q365 447 335 462.5 Q305 478 267 478 Q228 478 198 462.5 Q168 447 147 421.5 Q126 396 113.5 362.5 Q101 329 97 294 L431 294 Z M314 605 L314 706 L382 706 L382 605 L314 605 Z M137 605 L137 706 L205 706 L205 605 L137 605 Z " />
<glyph glyph-name="iacute" unicode="&#xed;" horiz-adv-x="185" d="M61 0 L61 516 L124 516 L124 0 L61 0 Z M84 588 L33 588 L138 729 L216 729 L84 588 Z " />
<glyph glyph-name="igrave" unicode="&#xec;" horiz-adv-x="185" d="M61 0 L61 516 L124 516 L124 0 L61 0 Z M-31 729 L47 729 L152 588 L101 588 L-31 729 Z " />
<glyph glyph-name="icircumflex" unicode="&#xee;" horiz-adv-x="185" d="M61 0 L61 516 L124 516 L124 0 L61 0 Z M241 588 L176 588 L90 690 L2 588 L-56 588 L58 729 L127 729 L241 588 Z " />
<glyph glyph-name="idieresis" unicode="&#xef;" horiz-adv-x="185" d="M61 0 L61 516 L124 516 L124 0 L61 0 Z M147 605 L147 706 L215 706 L215 605 L147 605 Z M-30 605 L-30 706 L38 706 L38 605 L-30 605 Z " />
<glyph glyph-name="ntilde" unicode="&#xf1;" horiz-adv-x="537" d="M59 516 L122 516 L122 427 L124 427 Q142 474 188 502.5 Q234 531 289 531 Q343 531 379.5 517 Q416 503 438 477.5 Q460 452 469 415 Q478 378 478 332 L478 0 L415 0 L415 322 Q415 355 409 383.5 Q403 412 388 433 Q373 454 347.5 466 Q322 478 284 478 Q246 478 216.5 464.5 Q187 451 166.5 427.5 Q146 404 134.5 371.5 Q123 339 122 301 L122 0 L59 0 L59 516 Z M425 708 Q422 691 415.5 674 Q409 657 398.5 643.5 Q388 630 373 621.5 Q358 613 338 613 Q318 613 299 620 Q280 627 263 635 Q246 643 231 651 Q216 659 203 659 Q180 659 165 646 Q150 633 150 608 L111 608 Q113 626 120 643 Q127 660 138 673.5 Q149 687 164.5 695.5 Q180 704 200 704 Q222 704 240 697 Q258 690 275 682 Q292 674 306.5 667 Q321 660 335 660 Q358 660 369.5 674 Q381 688 387 708 L425 708 Z " />
<glyph glyph-name="oacute" unicode="&#xf3;" horiz-adv-x="556" d="M278 531 Q337 531 382.5 509 Q428 487 459 450 Q490 413 506 363 Q522 313 522 258 Q522 202 506 152.5 Q490 103 459 66 Q428 29 382.5 7 Q337 -15 278 -15 Q219 -15 173.5 7 Q128 29 97 66 Q66 103 50 152.5 Q34 202 34 258 Q34 313 50 363 Q66 413 97 450 Q128 487 173.5 509 Q219 531 278 531 Z M278 478 Q233 478 199 459 Q165 440 142.5 409 Q120 378 108.5 338.5 Q97 299 97 258 Q97 217 108.5 177.5 Q120 138 142.5 107 Q165 76 199 57 Q233 38 278 38 Q323 38 357 57 Q391 76 413.5 107 Q436 138 447.5 177.5 Q459 217 459 258 Q459 299 447.5 338.5 Q436 378 413.5 409 Q391 440 357 459 Q323 478 278 478 Z M270 588 L219 588 L324 729 L402 729 L270 588 Z " />
<glyph glyph-name="ograve" unicode="&#xf2;" horiz-adv-x="556" d="M278 531 Q337 531 382.5 509 Q428 487 459 450 Q490 413 506 363 Q522 313 522 258 Q522 202 506 152.5 Q490 103 459 66 Q428 29 382.5 7 Q337 -15 278 -15 Q219 -15 173.5 7 Q128 29 97 66 Q66 103 50 152.5 Q34 202 34 258 Q34 313 50 363 Q66 413 97 450 Q128 487 173.5 509 Q219 531 278 531 Z M278 478 Q233 478 199 459 Q165 440 142.5 409 Q120 378 108.5 338.5 Q97 299 97 258 Q97 217 108.5 177.5 Q120 138 142.5 107 Q165 76 199 57 Q233 38 278 38 Q323 38 357 57 Q391 76 413.5 107 Q436 138 447.5 177.5 Q459 217 459 258 Q459 299 447.5 338.5 Q436 378 413.5 409 Q391 440 357 459 Q323 478 278 478 Z M155 729 L233 729 L338 588 L287 588 L155 729 Z " />
<glyph glyph-name="ocircumflex" unicode="&#xf4;" horiz-adv-x="556" d="M278 531 Q337 531 382.5 509 Q428 487 459 450 Q490 413 506 363 Q522 313 522 258 Q522 202 506 152.5 Q490 103 459 66 Q428 29 382.5 7 Q337 -15 278 -15 Q219 -15 173.5 7 Q128 29 97 66 Q66 103 50 152.5 Q34 202 34 258 Q34 313 50 363 Q66 413 97 450 Q128 487 173.5 509 Q219 531 278 531 Z M278 478 Q233 478 199 459 Q165 440 142.5 409 Q120 378 108.5 338.5 Q97 299 97 258 Q97 217 108.5 177.5 Q120 138 142.5 107 Q165 76 199 57 Q233 38 278 38 Q323 38 357 57 Q391 76 413.5 107 Q436 138 447.5 177.5 Q459 217 459 258 Q459 299 447.5 338.5 Q436 378 413.5 409 Q391 440 357 459 Q323 478 278 478 Z M427 588 L362 588 L276 690 L188 588 L130 588 L244 729 L313 729 L427 588 Z " />
<glyph glyph-name="odieresis" unicode="&#xf6;" horiz-adv-x="556" d="M278 531 Q337 531 382.5 509 Q428 487 459 450 Q490 413 506 363 Q522 313 522 258 Q522 202 506 152.5 Q490 103 459 66 Q428 29 382.5 7 Q337 -15 278 -15 Q219 -15 173.5 7 Q128 29 97 66 Q66 103 50 152.5 Q34 202 34 258 Q34 313 50 363 Q66 413 97 450 Q128 487 173.5 509 Q219 531 278 531 Z M278 478 Q233 478 199 459 Q165 440 142.5 409 Q120 378 108.5 338.5 Q97 299 97 258 Q97 217 108.5 177.5 Q120 138 142.5 107 Q165 76 199 57 Q233 38 278 38 Q323 38 357 57 Q391 76 413.5 107 Q436 138 447.5 177.5 Q459 217 459 258 Q459 299 447.5 338.5 Q436 378 413.5 409 Q391 440 357 459 Q323 478 278 478 Z M333 605 L333 706 L401 706 L401 605 L333 605 Z M156 605 L156 706 L224 706 L224 605 L156 605 Z " />
<glyph glyph-name="otilde" unicode="&#xf5;" horiz-adv-x="556" d="M278 531 Q337 531 382.5 509 Q428 487 459 450 Q490 413 506 363 Q522 313 522 258 Q522 202 506 152.5 Q490 103 459 66 Q428 29 382.5 7 Q337 -15 278 -15 Q219 -15 173.5 7 Q128 29 97 66 Q66 103 50 152.5 Q34 202 34 258 Q34 313 50 363 Q66 413 97 450 Q128 487 173.5 509 Q219 531 278 531 Z M278 478 Q233 478 199 459 Q165 440 142.5 409 Q120 378 108.5 338.5 Q97 299 97 258 Q97 217 108.5 177.5 Q120 138 142.5 107 Q165 76 199 57 Q233 38 278 38 Q323 38 357 57 Q391 76 413.5 107 Q436 138 447.5 177.5 Q459 217 459 258 Q459 299 447.5 338.5 Q436 378 413.5 409 Q391 440 357 459 Q323 478 278 478 Z M435 708 Q432 691 425.5 674 Q419 657 408.5 643.5 Q398 630 383 621.5 Q368 613 348 613 Q328 613 309 620 Q290 627 273 635 Q256 643 241 651 Q226 659 213 659 Q190 659 175 646 Q160 633 160 608 L121 608 Q123 626 130 643 Q137 660 148 673.5 Q159 687 174.5 695.5 Q190 704 210 704 Q232 704 250 697 Q268 690 285 682 Q302 674 316.5 667 Q331 660 345 660 Q368 660 379.5 674 Q391 688 397 708 L435 708 Z " />
<glyph glyph-name="uacute" unicode="&#xfa;" horiz-adv-x="537" d="M478 0 L420 0 L420 93 L418 93 Q393 41 345.5 13 Q298 -15 240 -15 Q142 -15 100.5 37.5 Q59 90 59 181 L59 516 L122 516 L122 180 Q124 110 154.5 74 Q185 38 260 38 Q300 38 329.5 55.5 Q359 73 378 102 Q397 131 406 168.5 Q415 206 415 245 L415 516 L478 516 L478 0 Z M260 588 L209 588 L314 729 L392 729 L260 588 Z " />
<glyph glyph-name="ugrave" unicode="&#xf9;" horiz-adv-x="537" d="M478 0 L420 0 L420 93 L418 93 Q393 41 345.5 13 Q298 -15 240 -15 Q142 -15 100.5 37.5 Q59 90 59 181 L59 516 L122 516 L122 180 Q124 110 154.5 74 Q185 38 260 38 Q300 38 329.5 55.5 Q359 73 378 102 Q397 131 406 168.5 Q415 206 415 245 L415 516 L478 516 L478 0 Z M145 729 L223 729 L328 588 L277 588 L145 729 Z " />
<glyph glyph-name="ucircumflex" unicode="&#xfb;" horiz-adv-x="537" d="M478 0 L420 0 L420 93 L418 93 Q393 41 345.5 13 Q298 -15 240 -15 Q142 -15 100.5 37.5 Q59 90 59 181 L59 516 L122 516 L122 180 Q124 110 154.5 74 Q185 38 260 38 Q300 38 329.5 55.5 Q359 73 378 102 Q397 131 406 168.5 Q415 206 415 245 L415 516 L478 516 L478 0 Z M417 588 L352 588 L266 690 L178 588 L120 588 L234 729 L303 729 L417 588 Z " />
<glyph glyph-name="udieresis" unicode="&#xfc;" horiz-adv-x="537" d="M478 0 L420 0 L420 93 L418 93 Q393 41 345.5 13 Q298 -15 240 -15 Q142 -15 100.5 37.5 Q59 90 59 181 L59 516 L122 516 L122 180 Q124 110 154.5 74 Q185 38 260 38 Q300 38 329.5 55.5 Q359 73 378 102 Q397 131 406 168.5 Q415 206 415 245 L415 516 L478 516 L478 0 Z M323 605 L323 706 L391 706 L391 605 L323 605 Z M146 605 L146 706 L214 706 L214 605 L146 605 Z " />
<glyph glyph-name="dagger" unicode="&#x2020;" horiz-adv-x="556" d="M48 440 L48 493 L246 493 L246 714 L309 714 L309 493 L508 493 L508 440 L309 440 L309 -151 L246 -151 L246 440 L48 440 Z " />
<glyph glyph-name="degree" unicode="&#xb0;" horiz-adv-x="400" d="M56 562 Q56 592 67 618 Q78 644 97.5 663.5 Q117 683 143.5 694.5 Q170 706 200 706 Q230 706 256 694.5 Q282 683 301.5 663.5 Q321 644 332.5 618 Q344 592 344 562 Q344 532 332.5 505.5 Q321 479 301.5 459.5 Q282 440 256 429 Q230 418 200 418 Q170 418 143.5 429 Q117 440 97.5 459.5 Q78 479 67 505.5 Q56 532 56 562 Z M95 562 Q95 517 125 487 Q155 457 200 457 Q222 457 241 465 Q260 473 274 487.5 Q288 502 296.5 521 Q305 540 305 562 Q305 584 296.5 603 Q288 622 274 636 Q260 650 241 658.5 Q222 667 200 667 Q178 667 159 658.5 Q140 650 125.5 636 Q111 622 103 603 Q95 584 95 562 Z " />
<glyph glyph-name="cent" unicode="&#xa2;" horiz-adv-x="556" d="M270 476 Q231 470 202.5 449.5 Q174 429 155 399 Q136 369 126.5 332.5 Q117 296 117 258 Q117 220 126.5 183.5 Q136 147 155 117 Q174 87 202.5 66 Q231 45 270 39 L270 476 Z M444 354 Q432 411 399 443.5 Q366 476 309 478 L309 38 Q336 39 360 51 Q384 63 402.5 82.5 Q421 102 433 128.5 Q445 155 448 185 L511 185 Q499 94 445 41 Q391 -12 309 -15 L309 -116 L270 -116 L270 -14 Q217 -9 177 14.5 Q137 38 109.5 75 Q82 112 68 159 Q54 206 54 258 Q54 310 68 357 Q82 404 109.5 440.5 Q137 477 177 500.5 Q217 524 270 529 L270 618 L309 618 L309 531 Q348 530 382 518 Q416 506 442 484 Q468 462 485 429.5 Q502 397 507 354 L444 354 Z " />
<glyph glyph-name="sterling" unicode="&#xa3;" horiz-adv-x="556" d="M46 362 L109 362 Q86 399 70 438.5 Q54 478 54 523 Q54 577 73.5 615.5 Q93 654 125 679.5 Q157 705 198 717 Q239 729 282 729 Q394 729 455 666.5 Q516 604 514 492 L451 492 Q451 573 408.5 624.5 Q366 676 282 676 Q250 676 220.5 666.5 Q191 657 168 637.5 Q145 618 131 588.5 Q117 559 117 519 Q117 493 123 473.5 Q129 454 137.5 436.5 Q146 419 156.5 401.5 Q167 384 176 362 L336 362 L336 330 L194 330 Q205 312 211.5 283 Q218 254 218 233 Q218 205 208.5 179 Q199 153 183.5 130 Q168 107 148.5 87 Q129 67 108 51 L110 49 Q132 60 156.5 69.5 Q181 79 207 79 Q240 79 264.5 73 Q289 67 309 59 Q330 51 350 44.5 Q370 38 395 38 Q427 38 458 54.5 Q489 71 510 94 L542 46 Q509 17 475 1 Q441 -15 396 -15 Q364 -15 338.5 -9.5 Q313 -4 290 4 Q267 12 243.5 19 Q220 26 189 26 Q170 26 156 23 Q142 20 130 14.5 Q118 9 106 1.5 Q94 -6 79 -15 L43 39 Q65 57 85.5 77.5 Q106 98 121.5 120.5 Q137 143 146 169 Q155 195 155 225 Q155 248 147 279 Q139 310 127 330 L46 330 L46 362 Z " />
<glyph glyph-name="section" unicode="&#xa7;" horiz-adv-x="556" d="M448 230 Q448 269 419.5 300 Q391 331 350.5 356.5 Q310 382 266 403.5 Q222 425 190 447 Q154 432 131 406.5 Q108 381 108 339 Q108 301 136 270.5 Q164 240 204 214.5 Q244 189 288 166.5 Q332 144 364 122 Q400 137 424 162.5 Q448 188 448 230 Z M511 231 Q511 206 502.5 184.5 Q494 163 479 145 Q464 127 444 113.5 Q424 100 402 91 Q452 47 452 -18 Q452 -53 437.5 -79.5 Q423 -106 399 -124 Q375 -142 344.5 -151.5 Q314 -161 283 -161 Q198 -161 148 -116 Q98 -71 98 16 L161 16 Q160 -10 168 -32.5 Q176 -55 191.5 -71.5 Q207 -88 229 -98 Q251 -108 277 -108 Q298 -108 318 -103 Q338 -98 354 -87 Q370 -76 379.5 -59.5 Q389 -43 389 -19 Q389 18 363.5 45.5 Q338 73 300 96.5 Q262 120 217 142 Q172 164 134 191 Q96 218 70.5 253 Q45 288 45 337 Q45 362 53.5 383.5 Q62 405 77 423 Q92 441 112 454.5 Q132 468 154 477 Q104 521 104 586 Q104 620 118.5 647 Q133 674 157 692 Q181 710 211 719.5 Q241 729 273 729 Q358 729 408 684 Q458 639 458 552 L395 552 Q396 577 388 600 Q380 623 364.5 639.5 Q349 656 327 666 Q305 676 279 676 Q258 676 238 671 Q218 666 202 655 Q186 644 176.5 627.5 Q167 611 167 587 Q167 549 192.5 522 Q218 495 256 471.5 Q294 448 339 426 Q384 404 422 377 Q460 350 485.5 315 Q511 280 511 231 Z " />
<glyph glyph-name="bullet" unicode="&#x2022;" horiz-adv-x="500" d="M72 357 Q72 394 86 426.5 Q100 459 124 483 Q148 507 180.5 521 Q213 535 250 535 Q287 535 319.5 521 Q352 507 376.5 483 Q401 459 415 426.5 Q429 394 429 357 Q429 320 415 287.5 Q401 255 376.5 230.5 Q352 206 319.5 192 Q287 178 250 178 Q213 178 180.5 192 Q148 206 124 230.5 Q100 255 86 287.5 Q72 320 72 357 Z " />
<glyph glyph-name="paragraph" unicode="&#xb6;" horiz-adv-x="600" d="M273 328 Q229 328 191 343 Q153 358 125.5 384 Q98 410 82 444.5 Q66 479 66 518 Q66 614 124.5 664 Q183 714 289 714 L519 714 L519 -177 L456 -177 L456 661 L336 661 L336 -177 L273 -177 L273 328 Z " />
<glyph glyph-name="germandbls" unicode="&#xdf;" horiz-adv-x="537" d="M61 535 Q61 584 75.5 620.5 Q90 657 116 681 Q142 705 178.5 717 Q215 729 260 729 Q300 729 335.5 717.5 Q371 706 398 683.5 Q425 661 440.5 628.5 Q456 596 456 553 Q456 499 426.5 457 Q397 415 343 403 L343 401 Q379 398 407 381.5 Q435 365 454 339.5 Q473 314 482.5 282 Q492 250 492 216 Q492 161 475 119.5 Q458 78 428.5 50 Q399 22 358.5 7.5 Q318 -7 270 -8 Q258 -8 245.5 -8 Q233 -8 220 -6 L220 49 Q232 47 243.5 46 Q255 45 267 45 Q298 45 327 53.5 Q356 62 378.5 81.5 Q401 101 415 131 Q429 161 429 205 Q429 257 413.5 289 Q398 321 370.5 338.5 Q343 356 304.5 362 Q266 368 220 368 L220 421 Q253 421 284 427 Q315 433 339.5 447.5 Q364 462 378.5 487 Q393 512 393 551 Q393 579 382.5 602 Q372 625 354 641.5 Q336 658 312 667 Q288 676 261 676 Q186 676 155 639 Q124 602 124 530 L124 0 L61 0 L61 535 Z " />
<glyph glyph-name="registered" unicode="&#xae;" horiz-adv-x="800" d="M400 729 Q479 729 547 700.5 Q615 672 665 621.5 Q715 571 743.5 503 Q772 435 772 357 Q772 279 743.5 211 Q715 143 665 92.5 Q615 42 547 13.5 Q479 -15 400 -15 Q321 -15 253 13.5 Q185 42 135 92.5 Q85 143 56.5 211 Q28 279 28 357 Q28 435 56.5 503 Q85 571 135 621.5 Q185 672 253 700.5 Q321 729 400 729 Z M400 676 Q332 676 274.5 651 Q217 626 175 583 Q133 540 109.5 482 Q86 424 86 357 Q86 290 109.5 232 Q133 174 175 131 Q217 88 274.5 63 Q332 38 400 38 Q467 38 524.5 63 Q582 88 624 131 Q666 174 690 232 Q714 290 714 357 Q714 424 690 482 Q666 540 624 583 Q582 626 524.5 651 Q467 676 400 676 Z M318 142 L265 142 L265 572 L430 572 Q503 572 536.5 541.5 Q570 511 570 453 Q570 424 561.5 403.5 Q553 383 538 368.5 Q523 354 503.5 345.5 Q484 337 462 333 L590 142 L528 142 L407 333 L318 333 L318 142 Z M388 378 Q412 378 435.5 379.5 Q459 381 477 388 Q495 395 506 410.5 Q517 426 517 453 Q517 475 508.5 489.5 Q500 504 485.5 512.5 Q471 521 452.5 524 Q434 527 415 527 L318 527 L318 378 L388 378 Z " />
<glyph glyph-name="copyright" unicode="&#xa9;" horiz-adv-x="800" d="M772 357 Q772 279 743.5 211 Q715 143 665 92.5 Q615 42 547 13.5 Q479 -15 400 -15 Q321 -15 253 13.5 Q185 42 135 92.5 Q85 143 56.5 211 Q28 279 28 357 Q28 435 56.5 503 Q85 571 135 621.5 Q185 672 253 700.5 Q321 729 400 729 Q479 729 547 700.5 Q615 672 665 621.5 Q715 571 743.5 503 Q772 435 772 357 Z M714 357 Q714 424 690 482 Q666 540 624 583 Q582 626 524.5 651 Q467 676 400 676 Q332 676 274.5 651 Q217 626 175 583 Q133 540 109.5 482 Q86 424 86 357 Q86 290 109.5 232 Q133 174 175 131 Q217 88 274.5 63 Q332 38 400 38 Q467 38 524.5 63 Q582 88 624 131 Q666 174 690 232 Q714 290 714 357 Z M543 435 Q534 480 499.5 510 Q465 540 410 541 Q369 541 338.5 527 Q308 513 287 488 Q266 463 255.5 429.5 Q245 396 245 357 Q245 318 255.5 284.5 Q266 251 287 226 Q308 201 338.5 187 Q369 173 410 173 Q465 173 499.5 203.5 Q534 234 543 279 L594 279 Q589 243 573 214.5 Q557 186 532 167 Q507 148 475.5 138 Q444 128 409 128 Q358 128 317.5 145 Q277 162 249.5 193 Q222 224 207 265.5 Q192 307 192 357 Q192 406 207 448 Q222 490 249.5 521 Q277 552 317.5 569 Q358 586 409 586 Q444 586 475.5 576 Q507 566 532 547 Q557 528 573 499.5 Q589 471 594 435 L543 435 Z " />
<glyph glyph-name="trademark" unicode="&#x2122;" horiz-adv-x="990" d="M216 302 L216 669 L82 669 L82 714 L403 714 L403 669 L269 669 L269 302 L216 302 Z M476 302 L476 714 L561 714 L694 380 L823 714 L908 714 L908 302 L855 302 L855 666 L853 666 L707 302 L677 302 L531 666 L529 666 L529 302 L476 302 Z " />
<glyph glyph-name="acute" unicode="&#xb4;" horiz-adv-x="185" d="M84 588 L33 588 L138 729 L216 729 L84 588 Z " />
<glyph glyph-name="dieresis" unicode="&#xa8;" horiz-adv-x="185" d="M147 605 L147 706 L215 706 L215 605 L147 605 Z M-30 605 L-30 706 L38 706 L38 605 L-30 605 Z " />
<glyph glyph-name="notequal" unicode="&#x2260;" horiz-adv-x="549" d="M12 399 L306 399 L409 660 L448 660 L347 399 L537 399 L537 354 L329 354 L259 173 L537 173 L537 127 L241 127 L138 -131 L99 -131 L201 127 L12 127 L12 173 L219 173 L290 354 L12 354 L12 399 Z " />
<glyph glyph-name="AE" unicode="&#xc6;" horiz-adv-x="907" d="M513 58 L884 58 L884 0 L445 0 L445 226 L186 226 L70 0 L-7 0 L367 714 L880 714 L880 656 L513 656 L513 398 L857 398 L857 340 L513 340 L513 58 Z M445 284 L445 656 L405 656 L216 284 L445 284 Z " />
<glyph glyph-name="Oslash" unicode="&#xd8;" horiz-adv-x="741" d="M183 122 Q216 85 262 64 Q308 43 371 43 Q441 43 492 70 Q543 97 575.5 141.5 Q608 186 623.5 242 Q639 298 639 357 Q639 414 625 468 Q611 522 580 565 L183 122 Z M558 593 Q526 628 480 649.5 Q434 671 371 671 Q300 671 249 644 Q198 617 165.5 572.5 Q133 528 117.5 471.5 Q102 415 102 357 Q102 300 116 246.5 Q130 193 160 150 L558 593 Z M698 696 L625 615 Q667 564 687 497 Q707 430 707 357 Q707 283 686 216 Q665 149 623 97.5 Q581 46 518 15.5 Q455 -15 371 -15 Q296 -15 239 8.5 Q182 32 140 74 L64 -12 L37 13 L116 101 Q74 153 54 219 Q34 285 34 357 Q34 430 55 497.5 Q76 565 118 616.5 Q160 668 223.5 698.5 Q287 729 371 729 Q446 729 502.5 706 Q559 683 601 641 L672 719 L698 696 Z " />
<glyph glyph-name="infinity" unicode="&#x221e;" horiz-adv-x="713" d="M305 288 Q281 342 250 367.5 Q219 393 174 393 Q148 393 126 383.5 Q104 374 88 356.5 Q72 339 62.5 314 Q53 289 53 259 Q53 192 87 155 Q121 116 165 116 Q211 116 247 158 Q270 185 305 288 Z M366 227 Q384 188 401.5 163 Q419 138 437.5 123.5 Q456 109 475.5 103.5 Q495 98 518 98 Q548 98 574 109.5 Q600 121 618.5 141.5 Q637 162 648 191.5 Q659 221 659 257 Q659 330 616 376 Q574 423 521 423 Q487 423 462 406 Q437 389 417 351 Q403 326 366 227 Z M319 326 Q352 402 391 431 Q431 461 500 461 Q577 461 633 404 Q687 348 687 257 Q687 169 634 110 Q582 52 516 52 Q468 52 426 88 Q399 111 352 192 Q320 131 283 104.5 Q246 78 193 78 Q123 78 75 128 Q26 177 26 258 Q26 338 71 388 Q116 437 176 437 Q219 437 250 415 Q281 394 319 326 Z " />
<glyph glyph-name="plusminus" unicode="&#xb1;" horiz-adv-x="600" d="M274 503 L327 503 L327 323 L552 323 L552 270 L327 270 L327 90 L274 90 L274 270 L50 270 L50 323 L274 323 L274 503 Z M49 53 L552 53 L552 0 L49 0 L49 53 Z " />
<glyph glyph-name="lessequal" unicode="&#x2264;" horiz-adv-x="549" d="M12 -34 L537 -34 L537 -79 L12 -79 L12 -34 Z M536 120 L12 343 L12 383 L536 605 L536 555 L72 363 L536 170 L536 120 Z " />
<glyph glyph-name="greaterequal" unicode="&#x2265;" horiz-adv-x="549" d="M12 -34 L537 -34 L537 -79 L12 -79 L12 -34 Z M12 605 L536 382 L536 342 L12 120 L12 170 L476 362 L12 555 L12 605 Z " />
<glyph glyph-name="yen" unicode="&#xa5;" horiz-adv-x="556" d="M110 349 L216 349 L6 714 L78 714 L277 349 L478 714 L547 714 L336 349 L445 349 L445 304 L314 304 L308 294 L308 221 L445 221 L445 176 L308 176 L308 0 L245 0 L245 176 L110 176 L110 221 L245 221 L245 294 L239 304 L110 304 L110 349 Z " />
<glyph glyph-name="partialdiff" unicode="&#x2202;" horiz-adv-x="494" d="M445 307 Q426 361 388.5 389 Q351 417 305 417 Q261 417 218 386 Q176 356 145 280 Q114 206 114 128 Q114 73 140.5 43 Q167 13 209 13 Q269 13 332 76 Q411 156 445 307 Z M454 350 Q456 378 457.5 400.5 Q459 423 459 441 Q459 529 413 577 Q367 625 291 625 Q239 625 204.5 605.5 Q170 586 144 547 L121 547 Q159 625 202.5 659.5 Q246 694 307 694 Q340 693 372.5 680 Q405 667 430.5 638.5 Q456 610 471.5 563.5 Q487 517 486 449 Q486 275 411 139 Q326 -15 197 -15 Q121 -15 76 29 Q31 73 31 148 Q31 192 44.5 233.5 Q58 275 79.5 310 Q101 345 129.5 372 Q158 399 188 414 Q244 443 301 443 Q341 443 373.5 428 Q406 413 427 391 Q441 377 454 350 Z " />
<glyph glyph-name="summation" unicode="&#x2211;" horiz-adv-x="713" d="M662 -215 L21 -215 L21 -197 L348 242 L21 675 L21 693 L645 693 L658 529 L639 529 Q631 596 601 625 Q571 654 517 654 L156 654 L430 284 L123 -129 L522 -129 Q559 -129 597 -116 Q625 -107 643.5 -83.5 Q662 -60 674 -9 L693 -13 L662 -215 Z " />
<glyph glyph-name="product" unicode="&#x220f;" horiz-adv-x="823" d="M605 655 L217 655 L217 -121 Q217 -163 235 -180 Q253 -197 296 -197 L314 -197 L314 -215 L22 -215 L22 -197 L40 -197 Q83 -197 101 -180 Q119 -163 119 -121 L119 600 Q119 640 101 657.5 Q83 675 40 675 L22 675 L22 693 L801 693 L801 675 L784 675 Q741 675 723 657.5 Q705 640 705 600 L705 -121 Q705 -163 723 -180 Q741 -197 784 -197 L801 -197 L801 -215 L509 -215 L509 -197 L526 -197 Q569 -197 587 -180 Q605 -163 605 -121 L605 655 Z " />
<glyph glyph-name="pi" unicode="&#x3c0;" horiz-adv-x="505" d="M485 447 L485 376 L372 376 L362 228 Q359 189 359 161 Q359 93 375 78 Q391 63 413 63 Q460 63 469 122 L486 122 Q469 -13 378 -13 Q335 -13 309 13 Q283 39 283 91 Q283 108 285.5 144 Q288 180 293 235 L306 376 L203 376 Q198 285 191.5 221.5 Q185 158 178 116 Q164 34 146 10 Q129 -13 99 -13 Q77 -13 61.5 0 Q46 13 46 34 Q46 55 72 90 Q91 116 105.5 142.5 Q120 169 130 198 Q140 226 147 270.5 Q154 315 159 376 L125 376 Q85 376 64 358 Q43 340 24 307 L6 307 Q21 359 43 393 Q66 427 89 437 Q110 447 173 447 L485 447 Z " />
<glyph glyph-name="integral" unicode="&#x222b;" horiz-adv-x="274" d="M106 721 Q108 759 114.5 790 Q121 821 131 845 Q144 878 167 894 Q190 910 212 910 Q237 910 255 893.5 Q273 877 273 857 Q273 834 260.5 820.5 Q248 807 229 807 Q211 807 191 824 Q181 834 172 834 Q164 834 158 827 Q152 820 152 803 Q152 793 153.5 775.5 Q155 758 157 732 Q175 531 175 408 Q175 391 173 320 Q171 249 167 120 Q163 -24 123 -74 Q97 -107 58 -107 Q32 -107 16 -90.5 Q0 -74 0 -48 Q0 -26 12.5 -13 Q25 0 44 0 Q63 0 77 -15 Q92 -31 102 -31 Q121 -31 121 -1 Q121 9 119.5 23.5 Q118 38 116 57 Q108 127 104 222 Q98 343 98 437 L106 721 Z " />
<glyph glyph-name="ordfeminine" unicode="&#xaa;" horiz-adv-x="311" d="M228 549 L226 549 Q223 542 211.5 539.5 Q200 537 192 535 Q162 530 134.5 526.5 Q107 523 86.5 516.5 Q66 510 54 498.5 Q42 487 42 466 Q42 452 48.5 441.5 Q55 431 65 423 Q75 415 87 411 Q99 407 111 407 Q134 407 155.5 413.5 Q177 420 193 432.5 Q209 445 218.5 462.5 Q228 480 228 502 L228 549 Z M7 597 Q10 655 48 680.5 Q86 706 147 706 Q172 706 195 702 Q218 698 236 687 Q254 676 264.5 656.5 Q275 637 275 606 L275 434 Q277 411 300 411 Q307 411 313 414 L313 380 Q308 379 301 378 Q294 377 286 377 Q255 377 246.5 391.5 Q238 406 238 433 L236 433 Q195 368 113 368 Q62 368 28.5 390.5 Q-5 413 -5 464 Q-5 499 10.5 518.5 Q26 538 51.5 548.5 Q77 559 109.5 562.5 Q142 566 175 569 Q201 572 214.5 577.5 Q228 583 228 600 Q228 640 202 653.5 Q176 667 140 667 Q105 667 80 650 Q55 633 54 597 L7 597 Z " />
<glyph glyph-name="ordmasculine" unicode="&#xba;" horiz-adv-x="334" d="M162 368 Q123 368 93.5 381 Q64 394 44 417 Q24 440 13.5 471 Q3 502 3 537 Q3 572 13.5 603 Q24 634 44 657 Q64 680 93.5 693 Q123 706 162 706 Q204 706 236 693 Q268 680 289 657 Q310 634 320.5 603 Q331 572 331 537 Q331 502 320.5 471 Q310 440 289 417 Q268 394 236 381 Q204 368 162 368 Z M167 407 Q196 407 218 418.5 Q240 430 254.5 448 Q269 466 276.5 489.5 Q284 513 284 537 Q284 561 276.5 584.5 Q269 608 254.5 626 Q240 644 218 655.5 Q196 667 167 667 Q138 667 116 655.5 Q94 644 79.5 626 Q65 608 57.5 584.5 Q50 561 50 537 Q50 513 57.5 489.5 Q65 466 79.5 448 Q94 430 116 418.5 Q138 407 167 407 Z " />
<glyph glyph-name="ae" unicode="&#xe6;" horiz-adv-x="870" d="M778 294 Q778 330 766.5 363 Q755 396 734 421.5 Q713 447 682.5 462.5 Q652 478 615 478 Q576 478 545.5 463 Q515 448 494 422.5 Q473 397 462.5 363.5 Q452 330 453 294 L778 294 Z M390 282 L388 282 Q382 271 365 266 Q348 261 335 259 Q295 252 252.5 246.5 Q210 241 175 230 Q140 219 117.5 198 Q95 177 95 140 Q95 116 104.5 97.5 Q114 79 130 65.5 Q146 52 166.5 45 Q187 38 210 38 Q246 38 279 49 Q312 60 336.5 81 Q361 102 375.5 132 Q390 162 390 200 L390 282 Z M453 241 Q450 200 459 163 Q468 126 489 98 Q510 70 543 54 Q576 38 621 38 Q685 38 722.5 72 Q760 106 774 167 L837 167 Q817 79 760 32 Q703 -15 612 -15 Q543 -15 494.5 17 Q446 49 423 115 L421 115 Q415 83 393.5 58.5 Q372 34 341.5 17.5 Q311 1 275 -7 Q239 -15 205 -15 Q169 -15 137.5 -6 Q106 3 82.5 21.5 Q59 40 45.5 68.5 Q32 97 32 136 Q32 190 56 220.5 Q80 251 119.5 267 Q159 283 208.5 289.5 Q258 296 309 302 Q328 304 343.5 307 Q359 310 369 317.5 Q379 325 384.5 338 Q390 351 390 372 Q390 404 379.5 424.5 Q369 445 350.5 457 Q332 469 307.5 473.5 Q283 478 255 478 Q195 478 157 449.5 Q119 421 117 358 L54 358 Q57 403 73 436 Q89 469 116.5 490 Q144 511 181 521 Q218 531 263 531 Q289 531 317.5 526.5 Q346 522 370.5 510.5 Q395 499 412.5 478 Q430 457 435 424 L437 424 Q447 451 466 471 Q485 491 509.5 504.5 Q534 518 562 524.5 Q590 531 618 531 Q682 531 724.5 507 Q767 483 793 442.5 Q819 402 830 349.5 Q841 297 841 241 L453 241 Z " />
<glyph glyph-name="oslash" unicode="&#xf8;" horiz-adv-x="556" d="M406 418 Q384 445 352 461.5 Q320 478 278 478 Q233 478 199 459 Q165 440 142.5 409 Q120 378 108.5 338.5 Q97 299 97 258 Q97 222 105.5 187.5 Q114 153 133 123 L406 418 Z M151 97 Q172 71 204 54.5 Q236 38 278 38 Q323 38 357 57 Q391 76 413.5 107 Q436 138 447.5 177.5 Q459 217 459 258 Q459 294 450.5 328.5 Q442 363 424 392 L151 97 Z M522 499 L468 440 Q495 402 508.5 355.5 Q522 309 522 258 Q522 202 506 152.5 Q490 103 459 66 Q428 29 382.5 7 Q337 -15 278 -15 Q224 -15 182 3 Q140 21 110 53 L51 -11 L29 9 L90 76 Q62 112 48 159 Q34 206 34 258 Q34 313 50 363 Q66 413 97 450 Q128 487 173.5 509 Q219 531 278 531 Q332 531 375 513 Q418 495 448 463 L500 519 L522 499 Z " />
<glyph glyph-name="questiondown" unicode="&#xbf;" horiz-adv-x="537" d="M484 29 Q484 -24 469 -67.5 Q454 -111 424.5 -142 Q395 -173 353 -189.5 Q311 -206 257 -206 Q215 -206 178.5 -193.5 Q142 -181 114 -157 Q86 -133 70 -99 Q54 -65 54 -21 Q54 35 78.5 74 Q103 113 141 149 Q172 180 190.5 197.5 Q209 215 218 232 Q227 249 230 273.5 Q233 298 234 344 L297 344 Q298 297 292 266 Q286 235 272 210 Q258 185 235.5 162.5 Q213 140 182 111 Q154 85 135.5 53 Q117 21 117 -18 Q117 -48 128.5 -73 Q140 -98 159.5 -115.5 Q179 -133 205 -143 Q231 -153 260 -153 Q300 -153 331 -139 Q362 -125 382 -100.5 Q402 -76 412 -43 Q422 -10 421 29 L484 29 Z M307 410 L223 410 L223 516 L307 516 L307 410 Z " />
<glyph glyph-name="exclamdown" unicode="&#xa1;" horiz-adv-x="241" d="M155 15 L155 -191 L87 -191 L87 15 L102 338 L140 338 L155 15 Z M163 516 L163 410 L79 410 L79 516 L163 516 Z " />
<glyph glyph-name="logicalnot" unicode="&#xac;" horiz-adv-x="600" d="M499 325 L49 325 L49 378 L552 378 L552 111 L499 111 L499 325 Z " />
<glyph glyph-name="radical" unicode="&#x221a;" horiz-adv-x="549" d="M512 913 L548 913 L396 -38 L154 460 L57 416 L41 447 L187 521 L385 119 L512 913 Z " />
<glyph glyph-name="florin" unicode="&#x192;" horiz-adv-x="556" d="M16 -114 Q41 -120 68 -120 Q90 -119 106 -108 Q122 -97 132.5 -81 Q143 -65 149.5 -45.5 Q156 -26 160 -8 L235 386 L135 386 L144 439 L245 439 L258 508 Q267 547 276 584.5 Q285 622 302.5 650.5 Q320 679 349 696.5 Q378 714 428 714 Q444 714 459 712.5 Q474 711 490 709 L478 657 Q467 659 455 660 Q443 661 432 661 Q400 660 381 645.5 Q362 631 351 608.5 Q340 586 334 559 Q328 532 322 506 L308 439 L421 439 L412 386 L299 386 L238 63 Q229 18 220.5 -25 Q212 -68 193.5 -101 Q175 -134 142 -154 Q109 -174 52 -173 Q35 -173 7 -168 L16 -114 Z " />
<glyph glyph-name="approxequal" unicode="&#x2248;" horiz-adv-x="549" d="M535 267 Q533 204 499 168.5 Q465 133 417 133 Q394 133 343 148 L234 193 Q160 224 126 224 Q92 224 68.5 203 Q45 182 36 134 L15 134 Q15 167 24.5 191.5 Q34 216 49.5 232.5 Q65 249 85 258 Q105 267 127 268 Q148 268 171 262 Q219 248 313 208 Q337 197 356.5 190.5 Q376 184 390 180 Q401 176 422 176 Q459 176 484 199 Q509 222 514 267 L535 267 Z M535 507 Q533 444 499 409 Q465 374 417 374 Q390 374 368 381 Q355 385 321.5 398 Q288 411 234 433 Q160 464 126 464 Q92 464 68.5 442.5 Q45 421 36 375 L15 375 Q15 406 24.5 430.5 Q34 455 50 472 Q66 489 86.5 498 Q107 507 128 508 Q151 508 171 501 Q197 494 232 481 Q267 468 313 448 Q338 437 357 430 Q376 423 390 419 Q403 416 422 416 Q459 416 484 439 Q509 462 514 507 L535 507 Z " />
<glyph glyph-name="uni2206" unicode="&#x2206;" horiz-adv-x="612" d="M483 40 L289 512 L74 40 L483 40 Z M599 0 L13 0 L319 677 L599 0 Z " />
<glyph glyph-name="guillemotleft" unicode="&#xab;" horiz-adv-x="426" d="M221 244 L221 306 L354 431 L354 364 L260 275 L354 186 L354 119 L221 244 Z M60 244 L60 306 L193 431 L193 364 L99 275 L193 186 L193 119 L60 244 Z " />
<glyph glyph-name="guillemotright" unicode="&#xbb;" horiz-adv-x="426" d="M233 186 L327 275 L233 364 L233 431 L366 306 L366 244 L233 119 L233 186 Z M72 186 L166 275 L72 364 L72 431 L205 306 L205 244 L72 119 L72 186 Z " />
<glyph glyph-name="ellipsis" unicode="&#x2026;" horiz-adv-x="1000" d="M125 0 L125 106 L209 106 L209 0 L125 0 Z M458 0 L458 106 L542 106 L542 0 L458 0 Z M791 0 L791 106 L875 106 L875 0 L791 0 Z " />
<glyph glyph-name="Agrave" unicode="&#xc0;" horiz-adv-x="630" d="M281 714 L357 714 L637 0 L564 0 L477 222 L152 222 L66 0 L-7 0 L281 714 Z M173 280 L454 280 L316 646 L173 280 Z M192 912 L270 912 L375 771 L324 771 L192 912 Z " />
<glyph glyph-name="Atilde" unicode="&#xc3;" horiz-adv-x="630" d="M281 714 L357 714 L637 0 L564 0 L477 222 L152 222 L66 0 L-7 0 L281 714 Z M173 280 L454 280 L316 646 L173 280 Z M472 891 Q469 874 462.5 857 Q456 840 445.5 826.5 Q435 813 420 804.5 Q405 796 385 796 Q365 796 346 803 Q327 810 310 818 Q293 826 278 834 Q263 842 250 842 Q227 842 212 829 Q197 816 197 791 L158 791 Q160 809 167 826 Q174 843 185 856.5 Q196 870 211.5 878.5 Q227 887 247 887 Q269 887 287 880 Q305 873 322 865 Q339 857 353.5 850 Q368 843 382 843 Q405 843 416.5 857 Q428 871 434 891 L472 891 Z " />
<glyph glyph-name="Otilde" unicode="&#xd5;" horiz-adv-x="741" d="M34 357 Q34 430 55 497.5 Q76 565 118 616.5 Q160 668 223.5 698.5 Q287 729 371 729 Q455 729 518 698.5 Q581 668 623 616.5 Q665 565 686 497.5 Q707 430 707 357 Q707 283 686 216 Q665 149 623 97.5 Q581 46 518 15.5 Q455 -15 371 -15 Q287 -15 223.5 15.5 Q160 46 118 97.5 Q76 149 55 216 Q34 283 34 357 Z M102 357 Q102 298 117.5 242 Q133 186 165.5 141.5 Q198 97 249 70 Q300 43 371 43 Q441 43 492 70 Q543 97 575.5 141.5 Q608 186 623.5 242 Q639 298 639 357 Q639 415 623.5 471.5 Q608 528 575.5 572.5 Q543 617 492 644 Q441 671 371 671 Q300 671 249 644 Q198 617 165.5 572.5 Q133 528 117.5 471.5 Q102 415 102 357 Z M527 891 Q524 874 517.5 857 Q511 840 500.5 826.5 Q490 813 475 804.5 Q460 796 440 796 Q420 796 401 803 Q382 810 365 818 Q348 826 333 834 Q318 842 305 842 Q282 842 267 829 Q252 816 252 791 L213 791 Q215 809 222 826 Q229 843 240 856.5 Q251 870 266.5 878.5 Q282 887 302 887 Q324 887 342 880 Q360 873 377 865 Q394 857 408.5 850 Q423 843 437 843 Q460 843 471.5 857 Q483 871 489 891 L527 891 Z " />
<glyph glyph-name="OE" unicode="&#x152;" horiz-adv-x="1074" d="M569 509 Q569 533 568 548 Q567 563 564 575 Q555 598 534 616 Q513 634 486 646 Q459 658 429.5 664.5 Q400 671 375 671 Q310 671 259.5 645.5 Q209 620 174.5 577 Q140 534 122.5 477 Q105 420 105 357 Q105 294 122.5 237 Q140 180 174.5 137 Q209 94 259.5 68.5 Q310 43 375 43 Q430 43 473 60 Q516 77 551 122 Q561 134 564.5 148 Q568 162 569 177 L569 509 Z M637 398 L1005 398 L1005 340 L637 340 L637 58 L1046 58 L1046 0 L569 0 L569 70 Q533 28 480.5 6.5 Q428 -15 375 -15 Q295 -15 232.5 15 Q170 45 126.5 96 Q83 147 60 214.5 Q37 282 37 357 Q37 432 60 499.5 Q83 567 126.5 618 Q170 669 232.5 699 Q295 729 375 729 Q432 729 483 711.5 Q534 694 569 655 L569 714 L1043 714 L1043 656 L637 656 L637 398 Z " />
<glyph glyph-name="oe" unicode="&#x153;" horiz-adv-x="889" d="M265 478 Q216 478 184 457 Q152 436 133 402.5 Q114 369 106.5 327.5 Q99 286 99 246 Q99 207 108 170 Q117 133 137 103.5 Q157 74 188 56 Q219 38 264 38 Q312 38 341.5 58 Q371 78 387.5 110.5 Q404 143 410 183 Q416 223 416 262 Q416 301 410 339.5 Q404 378 387 409 Q370 440 340.5 459 Q311 478 265 478 Z M862 166 Q841 78 782.5 31.5 Q724 -15 634 -15 Q602 -15 572.5 -6.5 Q543 2 518.5 18.5 Q494 35 476 59.5 Q458 84 450 116 L448 116 Q429 50 379.5 17.5 Q330 -15 263 -15 Q202 -15 159 7.5 Q116 30 88.5 67.5 Q61 105 48.5 154.5 Q36 204 36 258 Q36 312 50 361 Q64 410 92.5 448 Q121 486 164 508.5 Q207 531 266 531 Q332 531 381 500.5 Q430 470 450 404 L452 404 Q473 461 523 496 Q573 531 642 531 Q757 531 810 458 Q863 385 863 241 L479 241 Q479 203 488.5 166.5 Q498 130 517.5 101.5 Q537 73 567.5 55.5 Q598 38 640 38 Q706 38 744 72 Q782 106 799 166 L862 166 Z M800 294 Q800 330 789.5 363.5 Q779 397 759 422.5 Q739 448 709 463 Q679 478 640 478 Q600 478 570 463 Q540 448 519.5 422.5 Q499 397 489 364 Q479 331 479 294 L800 294 Z " />
<glyph glyph-name="endash" unicode="&#x2013;" horiz-adv-x="500" d="M0 246 L0 304 L500 304 L500 246 L0 246 Z " />
<glyph glyph-name="emdash" unicode="&#x2014;" horiz-adv-x="1000" d="M130 246 L130 304 L870 304 L870 246 L130 246 Z " />
<glyph glyph-name="quotedblleft" unicode="&#x201c;" horiz-adv-x="370" d="M218 471 L218 578 Q218 600 223.5 621.5 Q229 643 240 661.5 Q251 680 267.5 694 Q284 708 307 714 L307 671 Q294 666 285 655.5 Q276 645 270 631.5 Q264 618 261.5 603.5 Q259 589 260 577 L302 577 L302 471 L218 471 Z M64 471 L64 578 Q64 600 69.5 621.5 Q75 643 86 661.5 Q97 680 113.5 694 Q130 708 153 714 L153 671 Q140 666 131 655.5 Q122 645 116 631.5 Q110 618 107.5 603.5 Q105 589 106 577 L148 577 L148 471 L64 471 Z " />
<glyph glyph-name="quotedblright" unicode="&#x201d;" horiz-adv-x="370" d="M306 714 L306 607 Q306 585 300.5 563.5 Q295 542 284 523.5 Q273 505 256 491 Q239 477 217 471 L217 514 Q230 518 239 528.5 Q248 539 254 553 Q260 567 262.5 581.5 Q265 596 264 608 L222 608 L222 714 L306 714 Z M152 714 L152 607 Q152 585 146.5 563.5 Q141 542 130 523.5 Q119 505 102 491 Q85 477 63 471 L63 514 Q76 518 85 528.5 Q94 539 100 553 Q106 567 108.5 581.5 Q111 596 110 608 L68 608 L68 714 L152 714 Z " />
<glyph glyph-name="quoteleft" unicode="&#x2018;" horiz-adv-x="278" d="M95 471 L95 578 Q95 600 100.5 621.5 Q106 643 117 661.5 Q128 680 144.5 694 Q161 708 184 714 L184 671 Q171 666 162 655.5 Q153 645 147 631.5 Q141 618 138.5 603.5 Q136 589 137 577 L179 577 L179 471 L95 471 Z " />
<glyph glyph-name="quoteright" unicode="&#x2019;" horiz-adv-x="278" d="M183 714 L183 607 Q183 585 177.5 563.5 Q172 542 161 523.5 Q150 505 133 491 Q116 477 94 471 L94 514 Q107 518 116 528.5 Q125 539 131 553 Q137 567 139.5 581.5 Q142 596 141 608 L99 608 L99 714 L183 714 Z " />
<glyph glyph-name="divide" unicode="&#xf7;" horiz-adv-x="600" d="M49 225 L49 278 L552 278 L552 225 L49 225 Z M244 453 Q244 476 260.5 492.5 Q277 509 300 509 Q323 509 339.5 492.5 Q356 476 356 453 Q356 432 339.5 414.5 Q323 397 301 397 Q278 397 261 413.5 Q244 430 244 453 Z M244 50 Q244 73 260.5 89.5 Q277 106 300 106 Q323 106 339.5 89.5 Q356 73 356 50 Q356 29 339.5 11.5 Q323 -6 301 -6 Q278 -6 261 10.5 Q244 27 244 50 Z " />
<glyph glyph-name="lozenge" unicode="&#x25ca;" horiz-adv-x="494" d="M242 647 L76 346 L242 46 L417 346 L242 647 Z M268 694 L472 346 L268 0 L214 0 L23 346 L214 694 L268 694 Z " />
<glyph glyph-name="ydieresis" unicode="&#xff;" horiz-adv-x="463" d="M2 516 L69 516 L239 76 L398 516 L461 516 L237 -79 Q223 -112 211 -133.5 Q199 -155 184.5 -167.5 Q170 -180 150.5 -185.5 Q131 -191 101 -191 Q82 -190 71.5 -189.5 Q61 -189 53 -186 L53 -133 Q64 -135 74.5 -136.5 Q85 -138 96 -138 Q117 -138 130.5 -132 Q144 -126 154 -115.5 Q164 -105 171 -90 Q178 -75 186 -57 L208 2 L2 516 Z M286 605 L286 706 L354 706 L354 605 L286 605 Z M109 605 L109 706 L177 706 L177 605 L109 605 Z " />
<glyph glyph-name="Ydieresis" unicode="&#x178;" horiz-adv-x="611" d="M271 294 L-10 714 L71 714 L306 352 L540 714 L621 714 L339 294 L339 0 L271 0 L271 294 Z M360 788 L360 889 L428 889 L428 788 L360 788 Z M183 788 L183 889 L251 889 L251 788 L183 788 Z " />
<glyph glyph-name="fraction" unicode="&#x2044;" horiz-adv-x="167" d="M287 725 L334 725 L-118 -34 L-166 -34 L287 725 Z " />
<glyph glyph-name="Euro" unicode="&#x20ac;" horiz-adv-x="556" d="M530 576 Q464 655 370 655 Q278 655 220 588 Q169 530 151 434 L484 434 L466 389 L145 389 Q142 363 142 346 Q142 342 142 338 Q142 334 143 330 L447 330 L428 285 L146 285 Q159 181 209 116 Q269 41 367 41 Q419 41 463 64 Q497 83 541 127 L541 50 Q464 -15 365 -15 Q240 -15 163 74 Q96 153 81 285 L15 285 L34 330 L78 330 Q77 334 77 339 Q77 344 77 350 Q77 358 77.5 367.5 Q78 377 79 389 L15 389 L33 434 L84 434 Q106 557 176 630 Q252 712 371 712 Q495 712 557 635 L530 576 Z " />
<glyph glyph-name="guilsinglleft" unicode="&#x2039;" horiz-adv-x="259" d="M53 244 L53 306 L186 431 L186 364 L92 275 L186 186 L186 119 L53 244 Z " />
<glyph glyph-name="guilsinglright" unicode="&#x203a;" horiz-adv-x="259" d="M73 186 L167 275 L73 364 L73 431 L206 306 L206 244 L73 119 L73 186 Z " />
<glyph glyph-name="fi" unicode="&#xfb01;" horiz-adv-x="444" d="M320 516 L383 516 L383 0 L320 0 L320 516 Z M94 463 L6 463 L6 516 L94 516 L94 563 Q94 596 99 624 Q104 652 118 672 Q132 692 156.5 703 Q181 714 219 714 Q233 714 245 713 Q257 712 272 710 L272 656 Q259 658 248 659.5 Q237 661 226 661 Q200 661 186 653 Q172 645 165.5 631.5 Q159 618 158 600 Q157 582 157 561 L157 516 L259 516 L259 463 L157 463 L157 0 L94 0 L94 463 Z M320 714 L383 714 L383 613 L320 613 L320 714 Z " />
<glyph glyph-name="fl" unicode="&#xfb02;" horiz-adv-x="444" d="M94 463 L6 463 L6 516 L94 516 L94 563 Q94 596 99 624 Q104 652 118 672 Q132 692 156.5 703 Q181 714 219 714 Q233 714 245 713 Q257 712 272 710 L272 656 Q259 658 248 659.5 Q237 661 226 661 Q200 661 186 653 Q172 645 165.5 631.5 Q159 618 158 600 Q157 582 157 561 L157 516 L259 516 L259 463 L157 463 L157 0 L94 0 L94 463 Z M320 714 L383 714 L383 0 L320 0 L320 714 Z " />
<glyph glyph-name="daggerdbl" unicode="&#x2021;" horiz-adv-x="556" d="M48 47 L48 100 L246 100 L246 463 L48 463 L48 516 L246 516 L246 714 L309 714 L309 516 L508 516 L508 463 L309 463 L309 100 L508 100 L508 47 L309 47 L309 -151 L246 -151 L246 47 L48 47 Z " />
<glyph glyph-name="periodcentered" unicode="&#xb7;" horiz-adv-x="278" d="M139 375 Q163 375 180.5 357 Q198 339 198 315 Q198 292 180 274.5 Q162 257 139 257 Q115 257 97.5 275 Q80 293 80 317 Q80 340 98 357.5 Q116 375 139 375 Z " />
<glyph glyph-name="quotesinglbase" unicode="&#x201a;" horiz-adv-x="278" d="M183 106 L183 -1 Q183 -23 177.5 -44.5 Q172 -66 161 -84.5 Q150 -103 133 -117 Q116 -131 94 -137 L94 -94 Q107 -90 116 -79.5 Q125 -69 131 -55 Q137 -41 139.5 -26.5 Q142 -12 141 0 L99 0 L99 106 L183 106 Z " />
<glyph glyph-name="quotedblbase" unicode="&#x201e;" horiz-adv-x="370" d="M306 106 L306 -1 Q306 -23 300.5 -44.5 Q295 -66 284 -84.5 Q273 -103 256 -117 Q239 -131 217 -137 L217 -94 Q230 -90 239 -79.5 Q248 -69 254 -55 Q260 -41 262.5 -26.5 Q265 -12 264 0 L222 0 L222 106 L306 106 Z M152 106 L152 -1 Q152 -23 146.5 -44.5 Q141 -66 130 -84.5 Q119 -103 102 -117 Q85 -131 63 -137 L63 -94 Q76 -90 85 -79.5 Q94 -69 100 -55 Q106 -41 108.5 -26.5 Q111 -12 110 0 L68 0 L68 106 L152 106 Z " />
<glyph glyph-name="perthousand" unicode="&#x2030;" horiz-adv-x="1111" d="M582 725 L629 725 L177 -34 L129 -34 L582 725 Z M547 323 Q587 323 615.5 310 Q644 297 662 274.5 Q680 252 688 221 Q696 190 696 154 Q696 118 688 87 Q680 56 662 33.5 Q644 11 615.5 -2 Q587 -15 547 -15 Q506 -15 478 -2 Q450 11 432 33.5 Q414 56 406 87 Q398 118 398 154 Q398 190 406 221 Q414 252 432 274.5 Q450 297 478 310 Q506 323 547 323 Z M547 278 Q517 278 498 267 Q479 256 468.5 238 Q458 220 454.5 198 Q451 176 451 154 Q451 132 454.5 110 Q458 88 468.5 70 Q479 52 498 41 Q517 30 547 30 Q577 30 595.5 41 Q614 52 624.5 70 Q635 88 639 110 Q643 132 643 154 Q643 176 639 198 Q635 220 624.5 238 Q614 256 595.5 267 Q577 278 547 278 Z M901 323 Q941 323 969.5 310 Q998 297 1016 274.5 Q1034 252 1042 221 Q1050 190 1050 154 Q1050 118 1042 87 Q1034 56 1016 33.5 Q998 11 969.5 -2 Q941 -15 901 -15 Q860 -15 832 -2 Q804 11 786 33.5 Q768 56 760 87 Q752 118 752 154 Q752 190 760 221 Q768 252 786 274.5 Q804 297 832 310 Q860 323 901 323 Z M901 278 Q871 278 852 267 Q833 256 822.5 238 Q812 220 808.5 198 Q805 176 805 154 Q805 132 808.5 110 Q812 88 822.5 70 Q833 52 852 41 Q871 30 901 30 Q931 30 949.5 41 Q968 52 978.5 70 Q989 88 993 110 Q997 132 997 154 Q997 176 993 198 Q989 220 978.5 238 Q968 256 949.5 267 Q931 278 901 278 Z M214 706 Q254 706 282.5 693 Q311 680 329 657.5 Q347 635 355 604 Q363 573 363 537 Q363 501 355 470 Q347 439 329 416.5 Q311 394 282.5 381 Q254 368 214 368 Q173 368 145 381 Q117 394 99 416.5 Q81 439 73 470 Q65 501 65 537 Q65 573 73 604 Q81 635 99 657.5 Q117 680 145 693 Q173 706 214 706 Z M214 661 Q184 661 165 650 Q146 639 135.5 621 Q125 603 121.5 581 Q118 559 118 537 Q118 515 121.5 493 Q125 471 135.5 453 Q146 435 165 424 Q184 413 214 413 Q244 413 262.5 424 Q281 435 291.5 453 Q302 471 306 493 Q310 515 310 537 Q310 559 306 581 Q302 603 291.5 621 Q281 639 262.5 650 Q244 661 214 661 Z " />
<glyph glyph-name="Acircumflex" unicode="&#xc2;" horiz-adv-x="630" d="M281 714 L357 714 L637 0 L564 0 L477 222 L152 222 L66 0 L-7 0 L281 714 Z M173 280 L454 280 L316 646 L173 280 Z M464 771 L399 771 L313 873 L225 771 L167 771 L281 912 L350 912 L464 771 Z " />
<glyph glyph-name="Ecircumflex" unicode="&#xca;" horiz-adv-x="593" d="M72 714 L565 714 L565 656 L140 656 L140 398 L538 398 L538 340 L140 340 L140 58 L570 58 L570 0 L72 0 L72 714 Z M445 771 L380 771 L294 873 L206 771 L148 771 L262 912 L331 912 L445 771 Z " />
<glyph glyph-name="Aacute" unicode="&#xc1;" horiz-adv-x="630" d="M281 714 L357 714 L637 0 L564 0 L477 222 L152 222 L66 0 L-7 0 L281 714 Z M173 280 L454 280 L316 646 L173 280 Z M307 771 L256 771 L361 912 L439 912 L307 771 Z " />
<glyph glyph-name="Edieresis" unicode="&#xcb;" horiz-adv-x="593" d="M72 714 L565 714 L565 656 L140 656 L140 398 L538 398 L538 340 L140 340 L140 58 L570 58 L570 0 L72 0 L72 714 Z M351 788 L351 889 L419 889 L419 788 L351 788 Z M174 788 L174 889 L242 889 L242 788 L174 788 Z " />
<glyph glyph-name="Egrave" unicode="&#xc8;" horiz-adv-x="593" d="M72 714 L565 714 L565 656 L140 656 L140 398 L538 398 L538 340 L140 340 L140 58 L570 58 L570 0 L72 0 L72 714 Z M173 912 L251 912 L356 771 L305 771 L173 912 Z " />
<glyph glyph-name="Iacute" unicode="&#xcd;" horiz-adv-x="222" d="M77 714 L145 714 L145 0 L77 0 L77 714 Z M103 771 L52 771 L157 912 L235 912 L103 771 Z " />
<glyph glyph-name="Icircumflex" unicode="&#xce;" horiz-adv-x="222" d="M77 714 L145 714 L145 0 L77 0 L77 714 Z M260 771 L195 771 L109 873 L21 771 L-37 771 L77 912 L146 912 L260 771 Z " />
<glyph glyph-name="Idieresis" unicode="&#xcf;" horiz-adv-x="222" d="M77 714 L145 714 L145 0 L77 0 L77 714 Z M166 788 L166 889 L234 889 L234 788 L166 788 Z M-11 788 L-11 889 L57 889 L57 788 L-11 788 Z " />
<glyph glyph-name="Igrave" unicode="&#xcc;" horiz-adv-x="222" d="M77 714 L145 714 L145 0 L77 0 L77 714 Z M-12 912 L66 912 L171 771 L120 771 L-12 912 Z " />
<glyph glyph-name="Oacute" unicode="&#xd3;" horiz-adv-x="741" d="M34 357 Q34 430 55 497.5 Q76 565 118 616.5 Q160 668 223.5 698.5 Q287 729 371 729 Q455 729 518 698.5 Q581 668 623 616.5 Q665 565 686 497.5 Q707 430 707 357 Q707 283 686 216 Q665 149 623 97.5 Q581 46 518 15.5 Q455 -15 371 -15 Q287 -15 223.5 15.5 Q160 46 118 97.5 Q76 149 55 216 Q34 283 34 357 Z M102 357 Q102 298 117.5 242 Q133 186 165.5 141.5 Q198 97 249 70 Q300 43 371 43 Q441 43 492 70 Q543 97 575.5 141.5 Q608 186 623.5 242 Q639 298 639 357 Q639 415 623.5 471.5 Q608 528 575.5 572.5 Q543 617 492 644 Q441 671 371 671 Q300 671 249 644 Q198 617 165.5 572.5 Q133 528 117.5 471.5 Q102 415 102 357 Z M362 771 L311 771 L416 912 L494 912 L362 771 Z " />
<glyph glyph-name="Ocircumflex" unicode="&#xd4;" horiz-adv-x="741" d="M34 357 Q34 430 55 497.5 Q76 565 118 616.5 Q160 668 223.5 698.5 Q287 729 371 729 Q455 729 518 698.5 Q581 668 623 616.5 Q665 565 686 497.5 Q707 430 707 357 Q707 283 686 216 Q665 149 623 97.5 Q581 46 518 15.5 Q455 -15 371 -15 Q287 -15 223.5 15.5 Q160 46 118 97.5 Q76 149 55 216 Q34 283 34 357 Z M102 357 Q102 298 117.5 242 Q133 186 165.5 141.5 Q198 97 249 70 Q300 43 371 43 Q441 43 492 70 Q543 97 575.5 141.5 Q608 186 623.5 242 Q639 298 639 357 Q639 415 623.5 471.5 Q608 528 575.5 572.5 Q543 617 492 644 Q441 671 371 671 Q300 671 249 644 Q198 617 165.5 572.5 Q133 528 117.5 471.5 Q102 415 102 357 Z M519 771 L454 771 L368 873 L280 771 L222 771 L336 912 L405 912 L519 771 Z " />
<glyph glyph-name="Ograve" unicode="&#xd2;" horiz-adv-x="741" d="M34 357 Q34 430 55 497.5 Q76 565 118 616.5 Q160 668 223.5 698.5 Q287 729 371 729 Q455 729 518 698.5 Q581 668 623 616.5 Q665 565 686 497.5 Q707 430 707 357 Q707 283 686 216 Q665 149 623 97.5 Q581 46 518 15.5 Q455 -15 371 -15 Q287 -15 223.5 15.5 Q160 46 118 97.5 Q76 149 55 216 Q34 283 34 357 Z M102 357 Q102 298 117.5 242 Q133 186 165.5 141.5 Q198 97 249 70 Q300 43 371 43 Q441 43 492 70 Q543 97 575.5 141.5 Q608 186 623.5 242 Q639 298 639 357 Q639 415 623.5 471.5 Q608 528 575.5 572.5 Q543 617 492 644 Q441 671 371 671 Q300 671 249 644 Q198 617 165.5 572.5 Q133 528 117.5 471.5 Q102 415 102 357 Z M247 912 L325 912 L430 771 L379 771 L247 912 Z " />
<glyph glyph-name="Uacute" unicode="&#xda;" horiz-adv-x="685" d="M65 714 L133 714 L133 272 Q133 210 147 166.5 Q161 123 188 95.5 Q215 68 253.5 55.5 Q292 43 342 43 Q392 43 431 55.5 Q470 68 497 95.5 Q524 123 538 166.5 Q552 210 552 272 L552 714 L620 714 L620 257 Q620 202 604.5 152.5 Q589 103 555.5 66 Q522 29 469.5 7 Q417 -15 342 -15 Q268 -15 215.5 7 Q163 29 129.5 66 Q96 103 80.5 152.5 Q65 202 65 257 L65 714 Z M334 771 L283 771 L388 912 L466 912 L334 771 Z " />
<glyph glyph-name="Ucircumflex" unicode="&#xdb;" horiz-adv-x="685" d="M65 714 L133 714 L133 272 Q133 210 147 166.5 Q161 123 188 95.5 Q215 68 253.5 55.5 Q292 43 342 43 Q392 43 431 55.5 Q470 68 497 95.5 Q524 123 538 166.5 Q552 210 552 272 L552 714 L620 714 L620 257 Q620 202 604.5 152.5 Q589 103 555.5 66 Q522 29 469.5 7 Q417 -15 342 -15 Q268 -15 215.5 7 Q163 29 129.5 66 Q96 103 80.5 152.5 Q65 202 65 257 L65 714 Z M491 771 L426 771 L340 873 L252 771 L194 771 L308 912 L377 912 L491 771 Z " />
<glyph glyph-name="Ugrave" unicode="&#xd9;" horiz-adv-x="685" d="M65 714 L133 714 L133 272 Q133 210 147 166.5 Q161 123 188 95.5 Q215 68 253.5 55.5 Q292 43 342 43 Q392 43 431 55.5 Q470 68 497 95.5 Q524 123 538 166.5 Q552 210 552 272 L552 714 L620 714 L620 257 Q620 202 604.5 152.5 Q589 103 555.5 66 Q522 29 469.5 7 Q417 -15 342 -15 Q268 -15 215.5 7 Q163 29 129.5 66 Q96 103 80.5 152.5 Q65 202 65 257 L65 714 Z M219 912 L297 912 L402 771 L351 771 L219 912 Z " />
<glyph glyph-name="dotlessi" unicode="&#x131;" horiz-adv-x="185" d="M61 0 L61 516 L124 516 L124 0 L61 0 Z " />
<glyph glyph-name="circumflex" unicode="&#x2c6;" horiz-adv-x="185" d="M241 588 L176 588 L90 690 L2 588 L-56 588 L58 729 L127 729 L241 588 Z " />
<glyph glyph-name="tilde" unicode="&#x2dc;" horiz-adv-x="185" d="M249 708 Q246 691 239.5 674 Q233 657 222.5 643.5 Q212 630 197 621.5 Q182 613 162 613 Q142 613 123 620 Q104 627 87 635 Q70 643 55 651 Q40 659 27 659 Q4 659 -11 646 Q-26 633 -26 608 L-65 608 Q-63 626 -56 643 Q-49 660 -38 673.5 Q-27 687 -11.5 695.5 Q4 704 24 704 Q46 704 64 697 Q82 690 99 682 Q116 674 130.5 667 Q145 660 159 660 Q182 660 193.5 674 Q205 688 211 708 L249 708 Z " />
<glyph glyph-name="macron" unicode="&#xaf;" horiz-adv-x="185" d="M-72 634 L-72 679 L257 679 L257 634 L-72 634 Z " />
<glyph glyph-name="breve" unicode="&#x2d8;" horiz-adv-x="185" d="M-12 722 Q-11 702 -1.5 686.5 Q8 671 22 660.5 Q36 650 54 645 Q72 640 91 640 Q129 640 160 661.5 Q191 683 197 722 L236 722 Q228 662 189.5 628.5 Q151 595 91 595 Q30 595 -8 628 Q-46 661 -51 722 L-12 722 Z " />
<glyph glyph-name="dotaccent" unicode="&#x2d9;" horiz-adv-x="185" d="M59 605 L59 706 L127 706 L127 605 L59 605 Z " />
<glyph glyph-name="ring" unicode="&#x2da;" horiz-adv-x="185" d="M-14 677 Q-14 699 -5.5 718.5 Q3 738 17.5 752.5 Q32 767 51.5 775.5 Q71 784 93 784 Q115 784 134.5 775.5 Q154 767 168.5 752.5 Q183 738 191.5 718.5 Q200 699 200 677 Q200 655 191.5 635.5 Q183 616 168.5 601.5 Q154 587 134.5 578.5 Q115 570 93 570 Q71 570 51.5 578.5 Q32 587 17.5 601.5 Q3 616 -5.5 635.5 Q-14 655 -14 677 Z M25 677 Q25 648 44.5 628.5 Q64 609 93 609 Q122 609 141.5 628.5 Q161 648 161 677 Q161 706 141.5 725.5 Q122 745 93 745 Q64 745 44.5 725.5 Q25 706 25 677 Z " />
<glyph glyph-name="cedilla" unicode="&#xb8;" horiz-adv-x="185" d="M126 0 L82 -58 Q100 -55 120 -55.5 Q140 -56 157.5 -62.5 Q175 -69 186.5 -83 Q198 -97 198 -120 Q198 -143 188 -159 Q178 -175 162 -185.5 Q146 -196 126.5 -201 Q107 -206 88 -206 Q64 -206 40 -201 Q16 -196 -6 -185 L8 -153 Q21 -158 43 -162.5 Q65 -167 87 -167 Q108 -167 124 -157 Q140 -147 140 -124 Q140 -106 127 -96 Q114 -86 97 -86 Q64 -86 46 -94 L30 -79 L91 0 L126 0 Z " />
<glyph glyph-name="hungarumlaut" unicode="&#x2dd;" horiz-adv-x="185" d="M-33 588 L68 729 L144 729 L18 588 L-33 588 Z M123 588 L224 729 L300 729 L174 588 L123 588 Z " />
<glyph glyph-name="ogonek" unicode="&#x2db;" horiz-adv-x="185" d="M189 2 Q162 -20 144.5 -38 Q127 -56 117 -71 Q107 -86 103.5 -99 Q100 -112 100 -125 Q100 -149 113.5 -160.5 Q127 -172 144 -172 Q163 -172 177 -158.5 Q191 -145 199 -131 L228 -144 Q206 -181 182.5 -196 Q159 -211 133 -211 Q79 -211 58 -188 Q37 -165 37 -129 Q37 -122 40.5 -109.5 Q44 -97 56 -79.5 Q68 -62 90.5 -41.5 Q113 -21 151 2 L189 2 Z " />
<glyph glyph-name="caron" unicode="&#x2c7;" horiz-adv-x="185" d="M-56 729 L9 729 L95 627 L183 729 L241 729 L127 588 L58 588 L-56 729 Z " />
<glyph glyph-name="Lslash" unicode="&#x141;" horiz-adv-x="537" d="M72 714 L140 714 L140 353 L383 521 L383 465 L140 298 L140 58 L540 58 L540 0 L72 0 L72 251 L-10 194 L-10 250 L72 306 L72 714 Z " />
<glyph glyph-name="Scaron" unicode="&#x160;" horiz-adv-x="630" d="M104 235 Q103 180 121 143 Q139 106 170.5 84 Q202 62 245 52.5 Q288 43 337 43 Q365 43 398 51 Q431 59 459.5 76.5 Q488 94 507 121.5 Q526 149 526 188 Q526 218 512.5 240 Q499 262 477.5 277 Q456 292 430 301.5 Q404 311 379 317 L220 356 Q188 364 159 376 Q130 388 108 408 Q86 428 72.5 457 Q59 486 59 528 Q59 554 69 589 Q79 624 106.5 655 Q134 686 182 707.5 Q230 729 305 729 Q358 729 406 715 Q454 701 490 673 Q526 645 547.5 603.5 Q569 562 569 507 L501 507 Q499 547 482.5 578 Q466 609 439.5 629.5 Q413 650 378.5 660.5 Q344 671 306 671 Q271 671 238.5 663.5 Q206 656 181.5 639.5 Q157 623 142 596 Q127 569 127 529 Q127 504 135.5 485.5 Q144 467 159 454 Q174 441 193.5 433 Q213 425 235 420 L409 377 Q447 367 480.5 352.5 Q514 338 539.5 316.5 Q565 295 579.5 263.5 Q594 232 594 189 Q594 177 591.5 157 Q589 137 579.5 114.5 Q570 92 552.5 69 Q535 46 504.5 27 Q474 8 429 -3.5 Q384 -15 321 -15 Q258 -15 204 -0.5 Q150 14 112 44.5 Q74 75 53.5 122.5 Q33 170 36 235 L104 235 Z M174 912 L239 912 L325 810 L413 912 L471 912 L357 771 L288 771 L174 912 Z " />
<glyph glyph-name="Yacute" unicode="&#xdd;" horiz-adv-x="611" d="M271 294 L-10 714 L71 714 L306 352 L540 714 L621 714 L339 294 L339 0 L271 0 L271 294 Z M297 771 L246 771 L351 912 L429 912 L297 771 Z " />
<glyph glyph-name="Zcaron" unicode="&#x17d;" horiz-adv-x="574" d="M37 714 L551 714 L551 654 L81 58 L561 58 L561 0 L5 0 L5 60 L475 656 L37 656 L37 714 Z M139 912 L204 912 L290 810 L378 912 L436 912 L322 771 L253 771 L139 912 Z " />
<glyph glyph-name="Eth" unicode="&#xd0;" horiz-adv-x="685" d="M140 393 L376 393 L376 348 L140 348 L140 58 L285 58 Q362 58 417.5 74.5 Q473 91 509 127 Q545 163 562 220 Q579 277 579 357 Q579 437 562 494 Q545 551 509 587 Q473 623 417.5 639.5 Q362 656 285 656 L140 656 L140 393 Z M72 714 L319 714 Q482 710 564.5 622.5 Q647 535 647 357 Q647 179 564.5 91.5 Q482 4 319 0 L72 0 L72 348 L0 348 L0 393 L72 393 L72 714 Z " />
<glyph glyph-name="Thorn" unicode="&#xde;" horiz-adv-x="630" d="M72 714 L140 714 L140 597 L389 597 Q437 597 476 583.5 Q515 570 543 543.5 Q571 517 586 479 Q601 441 601 393 Q601 345 586 307 Q571 269 543 242.5 Q515 216 476 202.5 Q437 189 389 189 L140 189 L140 0 L72 0 L72 714 Z M140 247 L374 247 Q445 247 489 283 Q533 319 533 393 Q533 467 489 503 Q445 539 374 539 L140 539 L140 247 Z " />
<glyph glyph-name="lslash" unicode="&#x142;" horiz-adv-x="185" d="M61 714 L124 714 L124 447 L191 502 L191 447 L124 392 L124 0 L61 0 L61 340 L-6 285 L-6 340 L61 395 L61 714 Z " />
<glyph glyph-name="scaron" unicode="&#x161;" horiz-adv-x="481" d="M369 365 Q368 394 357 415.5 Q346 437 327.5 451 Q309 465 285 471.5 Q261 478 234 478 Q213 478 191.5 473.5 Q170 469 152 458.5 Q134 448 123 431 Q112 414 112 389 Q112 368 122.5 353.5 Q133 339 149 329 Q165 319 183.5 312.5 Q202 306 219 302 L303 283 Q330 279 356.5 268.5 Q383 258 403.5 241 Q424 224 437 199 Q450 174 450 140 Q450 98 431 68.5 Q412 39 382.5 20.5 Q353 2 316 -6.5 Q279 -15 243 -15 Q152 -15 95.5 28.5 Q39 72 31 167 L94 167 Q98 103 140.5 70.5 Q183 38 246 38 Q268 38 293 43 Q318 48 339 60 Q360 72 373.5 90.5 Q387 109 387 136 Q387 158 377.5 174 Q368 190 352 200.5 Q336 211 315.5 218 Q295 225 274 230 L193 248 Q162 256 136 266 Q110 276 90.5 292 Q71 308 60 330.5 Q49 353 49 386 Q49 425 66.5 453 Q84 481 112 498 Q140 515 174.5 523 Q209 531 243 531 Q282 531 315.5 521 Q349 511 374.5 490 Q400 469 415 438 Q430 407 432 365 L369 365 Z M92 729 L157 729 L243 627 L331 729 L389 729 L275 588 L206 588 L92 729 Z " />
<glyph glyph-name="yacute" unicode="&#xfd;" horiz-adv-x="463" d="M2 516 L69 516 L239 76 L398 516 L461 516 L237 -79 Q223 -112 211 -133.5 Q199 -155 184.5 -167.5 Q170 -180 150.5 -185.5 Q131 -191 101 -191 Q82 -190 71.5 -189.5 Q61 -189 53 -186 L53 -133 Q64 -135 74.5 -136.5 Q85 -138 96 -138 Q117 -138 130.5 -132 Q144 -126 154 -115.5 Q164 -105 171 -90 Q178 -75 186 -57 L208 2 L2 516 Z M223 588 L172 588 L277 729 L355 729 L223 588 Z " />
<glyph glyph-name="zcaron" unicode="&#x17e;" horiz-adv-x="463" d="M91 53 L446 53 L446 0 L15 0 L15 51 L352 463 L38 463 L38 516 L432 516 L432 471 L91 53 Z M83 729 L148 729 L234 627 L322 729 L380 729 L266 588 L197 588 L83 729 Z " />
<glyph glyph-name="eth" unicode="&#xf0;" horiz-adv-x="556" d="M276 453 Q228 453 194 436.5 Q160 420 138.5 392 Q117 364 107 326.5 Q97 289 97 248 Q97 207 107 169 Q117 131 138.5 102 Q160 73 193.5 55.5 Q227 38 274 38 Q318 38 351.5 53.5 Q385 69 407.5 97.5 Q430 126 441.5 164.5 Q453 203 453 250 Q453 287 443 323.5 Q433 360 412 389 Q391 418 357.5 435.5 Q324 453 276 453 Z M235 652 Q212 667 189 681 Q166 695 142 707 L178 742 Q204 728 230.5 712.5 Q257 697 282 678 L396 742 L429 710 L320 649 Q362 615 397.5 574 Q433 533 459.5 484.5 Q486 436 501 379.5 Q516 323 516 258 Q516 202 501 152 Q486 102 456 65 Q426 28 380 6.5 Q334 -15 271 -15 Q211 -15 166 5.5 Q121 26 92 61.5 Q63 97 48.5 145 Q34 193 34 249 Q34 301 49.5 347.5 Q65 394 95.5 429.5 Q126 465 170 485.5 Q214 506 271 506 Q308 506 345 497.5 Q382 489 404 466 L406 466 Q381 514 348 552 Q315 590 273 623 L168 564 L135 596 L235 652 Z " />
<glyph glyph-name="thorn" unicode="&#xfe;" horiz-adv-x="574" d="M473 258 Q473 298 463.5 337.5 Q454 377 433.5 408 Q413 439 381 458.5 Q349 478 304 478 Q254 478 219.5 458.5 Q185 439 163.5 408 Q142 377 132.5 337.5 Q123 298 123 258 Q123 218 132.5 178.5 Q142 139 163.5 108 Q185 77 219.5 57.5 Q254 38 304 38 Q349 38 381 57.5 Q413 77 433.5 108 Q454 139 463.5 178.5 Q473 218 473 258 Z M60 714 L123 714 L123 418 L125 418 Q135 446 153.5 467 Q172 488 196 502 Q220 516 247.5 523.5 Q275 531 304 531 Q363 531 406.5 509 Q450 487 479 449.5 Q508 412 522 362.5 Q536 313 536 258 Q536 203 522 153.5 Q508 104 479 66.5 Q450 29 406.5 7 Q363 -15 304 -15 Q275 -15 247.5 -8 Q220 -1 196 13.5 Q172 28 153.5 49 Q135 70 125 98 L123 98 L123 -191 L60 -191 L60 714 Z " />
<glyph glyph-name="brokenbar" unicode="&#xa6;" horiz-adv-x="222" d="M85 161 L138 161 L138 -89 L85 -89 L85 161 Z M85 661 L138 661 L138 411 L85 411 L85 661 Z " />
<glyph glyph-name="currency" unicode="&#xa4;" horiz-adv-x="556" d="M118 349 Q118 314 130.5 284 Q143 254 165 231.5 Q187 209 216 196 Q245 183 278 183 Q312 183 341.5 196.5 Q371 210 392.5 233 Q414 256 426 286 Q438 316 438 349 Q438 382 426 412 Q414 442 392.5 465 Q371 488 341.5 501.5 Q312 515 278 515 Q245 515 215.5 502 Q186 489 164.5 466.5 Q143 444 130.5 413.5 Q118 383 118 349 Z M80 203 Q55 232 42.5 269.5 Q30 307 30 349 Q30 391 42 429.5 Q54 468 80 497 L24 551 L75 603 L130 548 Q159 571 198.5 584 Q238 597 278 597 Q320 597 359 584 Q398 571 428 548 L482 603 L532 551 L478 497 Q502 470 514 430.5 Q526 391 526 349 Q526 307 514 269.5 Q502 232 478 203 L532 146 L482 95 L428 152 Q399 127 360 114 Q321 101 278 101 Q236 101 197.5 113.5 Q159 126 130 152 L75 95 L24 146 L80 203 Z " />
<glyph glyph-name="onesuperior" unicode="&#xb9;" horiz-adv-x="333" d="M35 623 Q62 624 83.5 626 Q105 628 121 635 Q137 642 147.5 656.5 Q158 671 163 697 L203 697 L203 274 L156 274 L156 584 L35 584 L35 623 Z " />
<glyph glyph-name="twosuperior" unicode="&#xb2;" horiz-adv-x="333" d="M24 553 Q22 622 59 664 Q96 706 174 706 Q237 706 278.5 675.5 Q320 645 320 581 Q320 554 310.5 532.5 Q301 511 285 493 Q269 475 248 460 Q227 445 205 432 Q189 421 168 410 Q147 399 127 385 Q107 371 91 353.5 Q75 336 69 313 L317 313 L317 274 L15 274 Q16 323 39.5 355 Q63 387 96.5 411.5 Q130 436 167.5 457 Q205 478 234 505 Q253 523 263 541 Q273 559 273 585 Q273 604 264.5 619.5 Q256 635 242 645.5 Q228 656 209.5 661.5 Q191 667 170 667 Q143 667 124 657.5 Q105 648 93 632 Q81 616 76 595.5 Q71 575 71 553 L24 553 Z " />
<glyph glyph-name="threesuperior" unicode="&#xb3;" horiz-adv-x="333" d="M135 517 L170 517 Q186 517 202.5 521.5 Q219 526 232.5 535 Q246 544 254.5 558 Q263 572 263 591 Q263 630 233.5 648.5 Q204 667 165 667 Q116 667 90 638 Q64 609 65 564 L18 564 Q19 627 57 666.5 Q95 706 165 706 Q193 706 219 699.5 Q245 693 265.5 679.5 Q286 666 298 645 Q310 624 310 595 Q310 560 290 535 Q270 510 233 502 L233 500 Q278 494 302.5 466.5 Q327 439 327 397 Q327 365 314 340 Q301 315 279.5 298.5 Q258 282 228.5 273.5 Q199 265 166 265 Q91 265 47 302.5 Q3 340 8 412 L55 412 Q53 364 82 334 Q111 304 165 304 Q186 304 207 310 Q228 316 244 327.5 Q260 339 270 356 Q280 373 280 394 Q280 436 247.5 457 Q215 478 170 478 L135 478 L135 517 Z " />
<glyph glyph-name="onequarter" unicode="&#xbc;" horiz-adv-x="834" d="M586 725 L633 725 L181 -34 L133 -34 L586 725 Z M48 623 Q75 624 96.5 626 Q118 628 134 635 Q150 642 160.5 656.5 Q171 671 176 697 L216 697 L216 274 L169 274 L169 584 L48 584 L48 623 Z M642 100 L432 100 L432 139 L645 423 L689 423 L689 139 L757 139 L757 100 L689 100 L689 0 L642 0 L642 100 Z M478 139 L642 139 L642 355 L640 355 L478 139 Z " />
<glyph glyph-name="onehalf" unicode="&#xbd;" horiz-adv-x="834" d="M586 725 L633 725 L181 -34 L133 -34 L586 725 Z M48 623 Q75 624 96.5 626 Q118 628 134 635 Q150 642 160.5 656.5 Q171 671 176 697 L216 697 L216 274 L169 274 L169 584 L48 584 L48 623 Z M489 279 Q487 348 524 390 Q561 432 639 432 Q702 432 743.5 401.5 Q785 371 785 307 Q785 280 775.5 258.5 Q766 237 750 219 Q734 201 713 186 Q692 171 670 158 Q654 147 633 136 Q612 125 592 111 Q572 97 556 79.5 Q540 62 534 39 L782 39 L782 0 L480 0 Q481 49 504.5 81 Q528 113 561.5 137.5 Q595 162 632.5 183 Q670 204 699 231 Q718 249 728 267 Q738 285 738 311 Q738 330 729.5 345.5 Q721 361 707 371.5 Q693 382 674.5 387.5 Q656 393 635 393 Q608 393 589 383.5 Q570 374 558 358 Q546 342 541 321.5 Q536 301 536 279 L489 279 Z " />
<glyph glyph-name="threequarters" unicode="&#xbe;" horiz-adv-x="834" d="M135 517 L170 517 Q186 517 202.5 521.5 Q219 526 232.5 535 Q246 544 254.5 558 Q263 572 263 591 Q263 630 233.5 648.5 Q204 667 165 667 Q116 667 90 638 Q64 609 65 564 L18 564 Q19 627 57 666.5 Q95 706 165 706 Q193 706 219 699.5 Q245 693 265.5 679.5 Q286 666 298 645 Q310 624 310 595 Q310 560 290 535 Q270 510 233 502 L233 500 Q278 494 302.5 466.5 Q327 439 327 397 Q327 365 314 340 Q301 315 279.5 298.5 Q258 282 228.5 273.5 Q199 265 166 265 Q91 265 47 302.5 Q3 340 8 412 L55 412 Q53 364 82 334 Q111 304 165 304 Q186 304 207 310 Q228 316 244 327.5 Q260 339 270 356 Q280 373 280 394 Q280 436 247.5 457 Q215 478 170 478 L135 478 L135 517 Z M626 725 L673 725 L221 -34 L173 -34 L626 725 Z M642 100 L432 100 L432 139 L645 423 L689 423 L689 139 L757 139 L757 100 L689 100 L689 0 L642 0 L642 100 Z M478 139 L642 139 L642 355 L640 355 L478 139 Z " />
<glyph glyph-name="minus" unicode="&#x2212;" horiz-adv-x="600" d="M552 225 L49 225 L49 278 L552 278 L552 225 Z " />
<glyph glyph-name="multiply" unicode="&#xd7;" horiz-adv-x="600" d="M74 440 L111 477 L300 288 L489 477 L526 440 L337 251 L526 62 L489 25 L300 213 L111 25 L74 62 L262 251 L74 440 Z " />
<glyph glyph-name="estimated" unicode="&#x212e;" horiz-adv-x="750" d="M193 326 L193 98 Q265 24 374 24 Q452 24 509.5 59.5 Q567 95 615 174 L659 148 Q630 103 600.5 71 Q571 39 537 18.5 Q503 -2 463 -11.5 Q423 -21 374 -21 Q300 -21 240.5 6 Q181 33 139 80 Q97 127 74 190.5 Q51 254 51 326 Q51 399 74 462 Q97 525 139 571.5 Q181 618 240.5 644.5 Q300 671 374 671 Q446 671 505.5 645.5 Q565 620 607.5 574 Q650 528 673.5 465 Q697 402 698 326 L193 326 Z M556 371 L556 552 Q478 627 373 627 Q266 627 193 552 L193 371 L556 371 Z " />
<glyph glyph-name="afii61289" unicode="&#x2113;" horiz-adv-x="508" d="M445 37 Q412 12 374.5 -1.5 Q337 -15 299 -15 Q230 -15 192 20.5 Q154 56 154 119 L154 230 L80 161 Q71 175 66 182 Q61 189 54 199 L153 286 L153 558 Q153 599 165 633 Q177 667 198.5 691.5 Q220 716 248.5 729.5 Q277 743 310 743 Q370 743 404 706.5 Q438 670 438 607 Q438 529 389.5 450 Q341 371 242 280 L242 137 Q242 109 249.5 90.5 Q257 72 269.5 61 Q282 50 297.5 45.5 Q313 41 329 41 Q372 41 419 74 L445 37 Z M374 599 Q374 641 356 668 Q338 695 310 695 Q281 695 261.5 666 Q242 637 242 580 L242 333 Q311 408 342.5 476 Q374 544 374 599 Z " />
<glyph glyph-name="uni25CC" unicode="&#x25cc;" horiz-adv-x="911" d="M484 671 Q484 659 476 651 Q468 643 456 643 Q445 643 436.5 651 Q428 659 428 671 Q428 682 436.5 690.5 Q445 699 456 699 Q468 699 476 690.5 Q484 682 484 671 Z M611 644 Q611 633 603 624.5 Q595 616 583 616 Q572 616 563.5 624.5 Q555 633 555 644 Q555 656 563.5 664 Q572 672 583 672 Q595 672 603 664 Q611 656 611 644 Z M716 573 Q716 562 708 553.5 Q700 545 688 545 Q676 545 668 553.5 Q660 562 660 573 Q660 585 668 593.5 Q676 602 688 602 Q700 602 708 593.5 Q716 585 716 573 Z M786 467 Q786 456 778 447.5 Q770 439 758 439 Q747 439 738.5 447.5 Q730 456 730 467 Q730 479 738.5 487 Q747 495 758 495 Q770 495 778 487 Q786 479 786 467 Z M811 344 Q811 332 803 324 Q795 316 783 316 Q772 316 763.5 324 Q755 332 755 344 Q755 355 763.5 363.5 Q772 372 783 372 Q795 372 803 363.5 Q811 355 811 344 Z M786 217 Q786 205 778 197 Q770 189 758 189 Q747 189 738.5 197 Q730 205 730 217 Q730 228 738.5 236.5 Q747 245 758 245 Q770 245 778 236.5 Q786 228 786 217 Z M716 112 Q716 101 708 92.5 Q700 84 688 84 Q676 84 668 92.5 Q660 101 660 112 Q660 123 668 131.5 Q676 140 688 140 Q700 140 708 131.5 Q716 123 716 112 Z M608 40 Q608 29 600 20.5 Q592 12 580 12 Q569 12 560.5 20.5 Q552 29 552 40 Q552 52 560.5 60 Q569 68 580 68 Q592 68 600 60 Q608 52 608 40 Z M484 17 Q484 5 476 -3.5 Q468 -12 456 -12 Q445 -12 436.5 -3.5 Q428 5 428 17 Q428 28 436.5 36.5 Q445 45 456 45 Q468 45 476 36.5 Q484 28 484 17 Z M358 42 Q358 30 349.5 22 Q341 14 330 14 Q318 14 310 22 Q302 30 302 42 Q302 53 310 61.5 Q318 70 330 70 Q341 70 349.5 61.5 Q358 53 358 42 Z M253 112 Q253 101 245 92.5 Q237 84 225 84 Q213 84 205 92.5 Q197 101 197 112 Q197 123 205 131.5 Q213 140 225 140 Q237 140 245 131.5 Q253 123 253 112 Z M181 220 Q181 208 172.5 200 Q164 192 153 192 Q141 192 133 200 Q125 208 125 220 Q125 231 133 239.5 Q141 248 153 248 Q164 248 172.5 239.5 Q181 231 181 220 Z M156 344 Q156 332 148 324 Q140 316 128 316 Q116 316 108 324 Q100 332 100 344 Q100 355 108 363.5 Q116 372 128 372 Q140 372 148 363.5 Q156 355 156 344 Z M182 471 Q182 459 174 451 Q166 443 154 443 Q143 443 134.5 451 Q126 459 126 471 Q126 482 134.5 490.5 Q143 499 154 499 Q166 499 174 490.5 Q182 482 182 471 Z M253 573 Q253 562 245 553.5 Q237 545 225 545 Q213 545 205 553.5 Q197 562 197 573 Q197 585 205 593.5 Q213 602 225 602 Q237 602 245 593.5 Q253 585 253 573 Z M361 646 Q361 634 352.5 626 Q344 618 333 618 Q321 618 313 626 Q305 634 305 646 Q305 657 313 665.5 Q321 674 333 674 Q344 674 352.5 665.5 Q361 657 361 646 Z " />
<glyph glyph-name="uni200C" unicode="&#x200c;" horiz-adv-x="33" d="M33 2 L0 2 L0 1321 L33 1321 L33 2 Z " />
<glyph glyph-name="uni200D" unicode="&#x200d;" horiz-adv-x="33" d="M78 1227 L33 1273 L33 0 L0 0 L0 1276 L-49 1227 L-66 1245 L-3 1308 L-66 1372 L-49 1389 L15 1326 L78 1389 L96 1372 L33 1309 L33 1308 L96 1245 L78 1227 Z " />
<glyph glyph-name="uni200E" unicode="&#x200e;" horiz-adv-x="32" d="M109 1227 L109 1288 L32 1288 L32 2 L0 2 L0 1321 L109 1321 L109 1389 L190 1308 L109 1227 Z " />
<glyph glyph-name="uni200F" unicode="&#x200f;" horiz-adv-x="33" d="M25 1355 L25 2 L12 2 L12 1342 L-89 1342 L-89 1293 L-149 1352 L-89 1411 L-89 1355 L25 1355 Z " />
<glyph glyph-name="uni202A" unicode="&#x202a;" horiz-adv-x="500" d="" />
<glyph glyph-name="uni202B" unicode="&#x202b;" horiz-adv-x="500" d="" />
<glyph glyph-name="uni202C" unicode="&#x202c;" horiz-adv-x="500" d="" />
<glyph glyph-name="uni202D" unicode="&#x202d;" horiz-adv-x="500" d="" />
<glyph glyph-name="uni202E" unicode="&#x202e;" horiz-adv-x="500" d="" />
<glyph glyph-name="uni2002" unicode="&#x2002;" horiz-adv-x="500" d="" />
<glyph glyph-name="uni2003" unicode="&#x2003;" horiz-adv-x="1000" d="" />
<glyph glyph-name="uni2009" unicode="&#x2009;" horiz-adv-x="100" d="" />
<glyph glyph-name="uni200A" unicode="&#x200a;" horiz-adv-x="20" d="" />
<glyph glyph-name="&amp;#x621;" unicode="&#x621;" horiz-adv-x="358" d="M326 0 L39 0 L39 55 L128 55 Q81 102 81 160 Q81 196 93 223.5 Q105 251 125 269.5 Q145 288 171.5 297 Q198 306 227 306 Q244 306 261.5 303.5 Q279 301 290 299 L290 241 Q265 248 235 248 Q205 248 185.5 239.5 Q166 231 154.5 218 Q143 205 138 189 Q133 173 133 157 Q133 106 167.5 80.5 Q202 55 262 55 L326 55 L326 0 Z " />
<glyph glyph-name="&amp;#xfe80;" unicode="&#xfe80;" horiz-adv-x="358" d="M326 0 L39 0 L39 55 L128 55 Q81 102 81 160 Q81 196 93 223.5 Q105 251 125 269.5 Q145 288 171.5 297 Q198 306 227 306 Q244 306 261.5 303.5 Q279 301 290 299 L290 241 Q265 248 235 248 Q205 248 185.5 239.5 Q166 231 154.5 218 Q143 205 138 189 Q133 173 133 157 Q133 106 167.5 80.5 Q202 55 262 55 L326 55 L326 0 Z " />
<glyph glyph-name="&amp;#x622;" unicode="&#x622;" horiz-adv-x="203" d="M133 714 L133 0 L70 0 L70 714 L133 714 Z M-74 827 Q-54 844 -33.5 850.5 Q-13 857 4 857 Q23 857 49.5 848.5 Q76 840 99 829 Q125 817 149 809 Q173 801 190 801 Q216 801 231.5 814.5 Q247 828 255 843 L280 831 Q266 799 244 779 Q222 759 190 759 Q164 759 139 768 Q114 777 91 788 Q66 799 41.5 808 Q17 817 -4 817 Q-21 817 -34 814 Q-47 811 -61 801 L-74 827 Z " />
<glyph glyph-name="&amp;#xfe81;" unicode="&#xfe81;" horiz-adv-x="203" d="M133 714 L133 0 L70 0 L70 714 L133 714 Z M-74 827 Q-54 844 -33.5 850.5 Q-13 857 4 857 Q23 857 49.5 848.5 Q76 840 99 829 Q125 817 149 809 Q173 801 190 801 Q216 801 231.5 814.5 Q247 828 255 843 L280 831 Q266 799 244 779 Q222 759 190 759 Q164 759 139 768 Q114 777 91 788 Q66 799 41.5 808 Q17 817 -4 817 Q-21 817 -34 814 Q-47 811 -61 801 L-74 827 Z " />
<glyph glyph-name="uniFE82" unicode="&#xfe82;" horiz-adv-x="228" d="M263 33 Q263 12 254 6 Q245 0 228 0 L208 0 Q177 0 151.5 6.5 Q126 13 108 28.5 Q90 44 80 69.5 Q70 95 70 133 L70 714 L132 714 L132 156 Q132 131 135.5 113.5 Q139 96 148.5 85 Q158 74 175 69 Q192 64 219 64 L228 64 Q245 64 254 57.5 Q263 51 263 33 Z M-72 826 Q-52 843 -31.5 849.5 Q-11 856 6 856 Q25 856 51.5 847.5 Q78 839 101 828 Q127 816 151 808 Q175 800 192 800 Q218 800 233.5 813.5 Q249 827 257 842 L282 830 Q268 798 246 778 Q224 758 192 758 Q166 758 141 767 Q116 776 93 787 Q68 798 43.5 807 Q19 816 -2 816 Q-19 816 -32 813 Q-45 810 -59 800 L-72 826 Z " />
<glyph glyph-name="&amp;#x623;" unicode="&#x623;" horiz-adv-x="203" d="M133 714 L133 0 L70 0 L70 714 L133 714 Z M185 764 L14 764 L14 801 L62 801 Q38 828 38 861 Q38 903 64.5 925.5 Q91 948 126 948 Q137 948 147.5 947 Q158 946 165 944 L165 904 Q154 907 146 908 Q138 909 130 909 Q97 909 85 893 Q73 877 73 859 Q73 832 92 816.5 Q111 801 146 801 L185 801 L185 764 Z " />
<glyph glyph-name="&amp;#xfe83;" unicode="&#xfe83;" horiz-adv-x="203" d="M133 714 L133 0 L70 0 L70 714 L133 714 Z M185 764 L14 764 L14 801 L62 801 Q38 828 38 861 Q38 903 64.5 925.5 Q91 948 126 948 Q137 948 147.5 947 Q158 946 165 944 L165 904 Q154 907 146 908 Q138 909 130 909 Q97 909 85 893 Q73 877 73 859 Q73 832 92 816.5 Q111 801 146 801 L185 801 L185 764 Z " />
<glyph glyph-name="uniFE84" unicode="&#xfe84;" horiz-adv-x="228" d="M263 33 Q263 12 254 6 Q245 0 228 0 L208 0 Q177 0 151.5 6.5 Q126 13 108 28.5 Q90 44 80 69.5 Q70 95 70 133 L70 714 L132 714 L132 156 Q132 131 135.5 113.5 Q139 96 148.5 85 Q158 74 175 69 Q192 64 219 64 L228 64 Q245 64 254 57.5 Q263 51 263 33 Z M189 764 L18 764 L18 801 L66 801 Q42 828 42 861 Q42 903 68.5 925.5 Q95 948 130 948 Q141 948 151.5 947 Q162 946 169 944 L169 904 Q158 907 150 908 Q142 909 134 909 Q101 909 89 893 Q77 877 77 859 Q77 832 96 816.5 Q115 801 150 801 L189 801 L189 764 Z " />
<glyph glyph-name="&amp;#x624;" unicode="&#x624;" horiz-adv-x="487" d="M226 0 Q188 0 155.5 9 Q123 18 98.5 38.5 Q74 59 60 92 Q46 125 46 174 Q46 213 58.5 251 Q71 289 96 319 Q121 349 157.5 367 Q194 385 241 385 Q293 385 329 365.5 Q365 346 386.5 311.5 Q408 277 417.5 229 Q427 181 427 124 L427 26 Q427 -46 407 -93 Q387 -140 349 -168 Q311 -196 255.5 -207.5 Q200 -219 128 -219 L105 -219 L105 -155 L125 -155 Q177 -155 221 -149 Q265 -143 296.5 -126.5 Q328 -110 345.5 -80 Q363 -50 363 -1 L363 38 Q339 23 305 11.5 Q271 0 226 0 Z M107 183 Q107 117 142.5 89 Q178 61 235 61 Q278 61 311.5 74 Q345 87 363 102 L363 145 Q363 184 356.5 217 Q350 250 335 274 Q320 298 296 311.5 Q272 325 237 325 Q202 325 177 311.5 Q152 298 136.5 277 Q121 256 114 231 Q107 206 107 183 Z M307 500 L136 500 L136 537 L184 537 Q160 564 160 597 Q160 639 186.5 661.5 Q213 684 248 684 Q259 684 269.5 683 Q280 682 287 680 L287 640 Q276 643 268 644 Q260 645 252 645 Q219 645 207 629 Q195 613 195 595 Q195 568 214 552.5 Q233 537 268 537 L307 537 L307 500 Z " />
<glyph glyph-name="&amp;#xfe85;" unicode="&#xfe85;" horiz-adv-x="487" d="M226 0 Q188 0 155.5 9 Q123 18 98.5 38.5 Q74 59 60 92 Q46 125 46 174 Q46 213 58.5 251 Q71 289 96 319 Q121 349 157.5 367 Q194 385 241 385 Q293 385 329 365.5 Q365 346 386.5 311.5 Q408 277 417.5 229 Q427 181 427 124 L427 26 Q427 -46 407 -93 Q387 -140 349 -168 Q311 -196 255.5 -207.5 Q200 -219 128 -219 L105 -219 L105 -155 L125 -155 Q177 -155 221 -149 Q265 -143 296.5 -126.5 Q328 -110 345.5 -80 Q363 -50 363 -1 L363 38 Q339 23 305 11.5 Q271 0 226 0 Z M107 183 Q107 117 142.5 89 Q178 61 235 61 Q278 61 311.5 74 Q345 87 363 102 L363 145 Q363 184 356.5 217 Q350 250 335 274 Q320 298 296 311.5 Q272 325 237 325 Q202 325 177 311.5 Q152 298 136.5 277 Q121 256 114 231 Q107 206 107 183 Z M307 500 L136 500 L136 537 L184 537 Q160 564 160 597 Q160 639 186.5 661.5 Q213 684 248 684 Q259 684 269.5 683 Q280 682 287 680 L287 640 Q276 643 268 644 Q260 645 252 645 Q219 645 207 629 Q195 613 195 595 Q195 568 214 552.5 Q233 537 268 537 L307 537 L307 500 Z " />
<glyph glyph-name="uniFE86" unicode="&#xfe86;" horiz-adv-x="491" d="M425 0 Q421 -64 399.5 -106 Q378 -148 340 -173 Q302 -198 248.5 -208 Q195 -218 127 -218 L104 -218 L104 -154 L124 -154 Q176 -154 220 -148 Q264 -142 295.5 -125.5 Q327 -109 344.5 -79 Q362 -49 362 0 L232 0 Q192 0 158 8.5 Q124 17 99 37.5 Q74 58 59.5 90.5 Q45 123 45 171 Q45 211 58.5 249.5 Q72 288 97 318 Q122 348 158 366.5 Q194 385 240 385 Q291 385 326.5 366.5 Q362 348 384 314 Q406 280 416 231.5 Q426 183 426 124 L426 64 L491 64 Q508 64 517 57.5 Q526 51 526 33 Q526 12 517 6 Q508 0 491 0 L425 0 Z M106 179 Q106 119 140 91.5 Q174 64 238 64 L362 64 L362 145 Q362 185 355 218.5 Q348 252 333 275.5 Q318 299 293.5 312 Q269 325 234 325 Q202 325 178.5 312 Q155 299 138.5 278 Q122 257 114 231 Q106 205 106 179 Z M307 500 L136 500 L136 537 L184 537 Q160 564 160 597 Q160 639 186.5 661.5 Q213 684 248 684 Q259 684 269.5 683 Q280 682 287 680 L287 640 Q276 643 268 644 Q260 645 252 645 Q219 645 207 629 Q195 613 195 595 Q195 568 214 552.5 Q233 537 268 537 L307 537 L307 500 Z " />
<glyph glyph-name="&amp;#x625;" unicode="&#x625;" horiz-adv-x="203" d="M133 714 L133 0 L70 0 L70 714 L133 714 Z M183 -271 L12 -271 L12 -234 L60 -234 Q36 -207 36 -174 Q36 -132 62.5 -109.5 Q89 -87 124 -87 Q135 -87 145.5 -88 Q156 -89 163 -91 L163 -131 Q152 -128 144 -127 Q136 -126 128 -126 Q95 -126 83 -142 Q71 -158 71 -176 Q71 -203 90 -218.5 Q109 -234 144 -234 L183 -234 L183 -271 Z " />
<glyph glyph-name="&amp;#xfe87;" unicode="&#xfe87;" horiz-adv-x="203" d="M133 714 L133 0 L70 0 L70 714 L133 714 Z M183 -271 L12 -271 L12 -234 L60 -234 Q36 -207 36 -174 Q36 -132 62.5 -109.5 Q89 -87 124 -87 Q135 -87 145.5 -88 Q156 -89 163 -91 L163 -131 Q152 -128 144 -127 Q136 -126 128 -126 Q95 -126 83 -142 Q71 -158 71 -176 Q71 -203 90 -218.5 Q109 -234 144 -234 L183 -234 L183 -271 Z " />
<glyph glyph-name="uniFE88" unicode="&#xfe88;" horiz-adv-x="228" d="M263 33 Q263 12 254 6 Q245 0 228 0 L208 0 Q177 0 151.5 6.5 Q126 13 108 28.5 Q90 44 80 69.5 Q70 95 70 133 L70 714 L132 714 L132 156 Q132 131 135.5 113.5 Q139 96 148.5 85 Q158 74 175 69 Q192 64 219 64 L228 64 Q245 64 254 57.5 Q263 51 263 33 Z M195 -271 L24 -271 L24 -234 L72 -234 Q48 -207 48 -174 Q48 -132 74.5 -109.5 Q101 -87 136 -87 Q147 -87 157.5 -88 Q168 -89 175 -91 L175 -131 Q164 -128 156 -127 Q148 -126 140 -126 Q107 -126 95 -142 Q83 -158 83 -176 Q83 -203 102 -218.5 Q121 -234 156 -234 L195 -234 L195 -271 Z " />
<glyph glyph-name="&amp;#x626;" unicode="&#x626;" horiz-adv-x="732" d="M63 17 Q63 -26 76.5 -62 Q90 -98 122 -124.5 Q154 -151 207 -165.5 Q260 -180 339 -180 Q395 -180 447 -171.5 Q499 -163 538.5 -147 Q578 -131 601.5 -107 Q625 -83 625 -53 Q625 -25 607 -6.5 Q589 12 542 35 Q513 49 488 65 Q463 81 444 101 Q425 121 414 145.5 Q403 170 403 201 Q403 239 416.5 277.5 Q430 316 457.5 347.5 Q485 379 526 398.5 Q567 418 622 418 Q652 418 677 410.5 Q702 403 715 398 L704 333 Q684 340 660 344.5 Q636 349 620 349 Q582 349 553.5 337 Q525 325 506 305.5 Q487 286 477.5 262.5 Q468 239 468 215 Q468 192 476.5 175 Q485 158 500 144.5 Q515 131 534 119 Q553 107 574 95 Q602 78 624 64 Q646 50 661 36 Q676 22 684 6 Q692 -10 692 -30 Q692 -72 672.5 -111 Q653 -150 611 -180 Q569 -210 502 -228 Q435 -246 339 -246 Q244 -246 179 -227.5 Q114 -209 74 -176.5 Q34 -144 17 -99.5 Q0 -55 0 -2 L0 143 L63 143 L63 17 Z M162 252 L-9 252 L-9 289 L39 289 Q15 316 15 349 Q15 391 41.5 413.5 Q68 436 103 436 Q114 436 124.5 435 Q135 434 142 432 L142 392 Q131 395 123 396 Q115 397 107 397 Q74 397 62 381 Q50 365 50 347 Q50 320 69 304.5 Q88 289 123 289 L162 289 L162 252 Z " />
<glyph glyph-name="&amp;#xfe89;" unicode="&#xfe89;" horiz-adv-x="732" d="M63 17 Q63 -26 76.5 -62 Q90 -98 122 -124.5 Q154 -151 207 -165.5 Q260 -180 339 -180 Q395 -180 447 -171.5 Q499 -163 538.5 -147 Q578 -131 601.5 -107 Q625 -83 625 -53 Q625 -25 607 -6.5 Q589 12 542 35 Q513 49 488 65 Q463 81 444 101 Q425 121 414 145.5 Q403 170 403 201 Q403 239 416.5 277.5 Q430 316 457.5 347.5 Q485 379 526 398.5 Q567 418 622 418 Q652 418 677 410.5 Q702 403 715 398 L704 333 Q684 340 660 344.5 Q636 349 620 349 Q582 349 553.5 337 Q525 325 506 305.5 Q487 286 477.5 262.5 Q468 239 468 215 Q468 192 476.5 175 Q485 158 500 144.5 Q515 131 534 119 Q553 107 574 95 Q602 78 624 64 Q646 50 661 36 Q676 22 684 6 Q692 -10 692 -30 Q692 -72 672.5 -111 Q653 -150 611 -180 Q569 -210 502 -228 Q435 -246 339 -246 Q244 -246 179 -227.5 Q114 -209 74 -176.5 Q34 -144 17 -99.5 Q0 -55 0 -2 L0 143 L63 143 L63 17 Z M162 252 L-9 252 L-9 289 L39 289 Q15 316 15 349 Q15 391 41.5 413.5 Q68 436 103 436 Q114 436 124.5 435 Q135 434 142 432 L142 392 Q131 395 123 396 Q115 397 107 397 Q74 397 62 381 Q50 365 50 347 Q50 320 69 304.5 Q88 289 123 289 L162 289 L162 252 Z " />
<glyph glyph-name="uniFE8B" unicode="&#xfe8b;" horiz-adv-x="308" d="M0 0 Q-17 0 -26 6.5 Q-35 13 -35 31 Q-35 52 -26 58 Q-17 64 0 64 L172 64 L172 380 L235 380 L235 0 L0 0 Z M295 466 L97 466 L97 504 L159 504 Q126 535 126 576 Q126 627 155.5 652.5 Q185 678 227 678 Q252 678 270 673 L270 634 Q260 636 251 637.5 Q242 639 232 639 Q212 639 198.5 633 Q185 627 177 617.5 Q169 608 165.5 596.5 Q162 585 162 574 Q162 539 185.5 521.5 Q209 504 251 504 L295 504 L295 466 Z " />
<glyph glyph-name="uniFE8C" unicode="&#xfe8c;" horiz-adv-x="327" d="M0 0 Q-17 0 -26 6.5 Q-35 13 -35 31 Q-35 52 -26 58 Q-17 64 0 64 L66 64 Q87 64 106.5 65.5 Q126 67 141 74.5 Q156 82 165 98.5 Q174 115 174 145 L174 380 L237 380 L237 191 Q237 131 256 97.5 Q275 64 329 64 Q346 64 355 57.5 Q364 51 364 33 Q364 12 355 6 Q346 0 329 0 Q294 0 265 13 Q236 26 222 59 Q198 23 164.5 11.5 Q131 0 75 0 L0 0 Z M295 466 L97 466 L97 504 L159 504 Q126 535 126 576 Q126 627 155.5 652.5 Q185 678 227 678 Q252 678 270 673 L270 634 Q260 636 251 637.5 Q242 639 232 639 Q212 639 198.5 633 Q185 627 177 617.5 Q169 608 165.5 596.5 Q162 585 162 574 Q162 539 185.5 521.5 Q209 504 251 504 L295 504 L295 466 Z " />
<glyph glyph-name="uniFE8A" unicode="&#xfe8a;" horiz-adv-x="708" d="M632 0 Q657 -23 666.5 -47 Q676 -71 676 -90 Q676 -120 658.5 -148 Q641 -176 601.5 -197.5 Q562 -219 498.5 -232.5 Q435 -246 343 -246 Q241 -246 175 -227.5 Q109 -209 70 -177 Q31 -145 15.5 -101.5 Q0 -58 0 -7 L0 143 L61 143 L61 8 Q61 -91 128 -137 Q195 -183 345 -183 Q401 -183 451 -177 Q501 -171 538.5 -158.5 Q576 -146 598 -127 Q620 -108 620 -82 Q620 -60 600.5 -41.5 Q581 -23 551.5 -8 Q522 7 486.5 18.5 Q451 30 419 39 L389 47 L389 110 Q416 101 446.5 92.5 Q477 84 508.5 78 Q540 72 570.5 68 Q601 64 627 64 L707 64 Q724 64 733 57.5 Q742 51 742 33 Q742 12 733 6 Q724 0 707 0 L632 0 Z M185 239 L14 239 L14 276 L62 276 Q38 303 38 336 Q38 378 64.5 400.5 Q91 423 126 423 Q137 423 147.5 422 Q158 421 165 419 L165 379 Q154 382 146 383 Q138 384 130 384 Q97 384 85 368 Q73 352 73 334 Q73 307 92 291.5 Q111 276 146 276 L185 276 L185 239 Z " />
<glyph glyph-name="&amp;#x627;" unicode="&#x627;" horiz-adv-x="203" d="M133 714 L133 0 L70 0 L70 714 L133 714 Z " />
<glyph glyph-name="&amp;#xfe8d;" unicode="&#xfe8d;" horiz-adv-x="203" d="M133 714 L133 0 L70 0 L70 714 L133 714 Z " />
<glyph glyph-name="uniFE8E" unicode="&#xfe8e;" horiz-adv-x="228" d="M263 33 Q263 12 254 6 Q245 0 228 0 L208 0 Q177 0 151.5 6.5 Q126 13 108 28.5 Q90 44 80 69.5 Q70 95 70 133 L70 714 L132 714 L132 156 Q132 131 135.5 113.5 Q139 96 148.5 85 Q158 74 175 69 Q192 64 219 64 L228 64 Q245 64 254 57.5 Q263 51 263 33 Z " />
<glyph glyph-name="&amp;#x628;" unicode="&#x628;" horiz-adv-x="892" d="M822 0 L200 0 Q143 0 104.5 7.5 Q66 15 43 32 Q20 49 10 76 Q0 103 0 142 L0 292 L63 292 L63 173 Q63 137 71 115 Q79 93 99.5 82 Q120 71 155 67.5 Q190 64 243 64 L759 64 L759 380 L822 380 L822 0 Z M373 -136 Q373 -118 386 -105 Q399 -92 417 -92 Q435 -92 448 -105 Q461 -118 461 -136 Q461 -154 448 -167 Q435 -180 417 -180 Q399 -180 386 -167 Q373 -154 373 -136 Z " />
<glyph glyph-name="&amp;#xfe8f;" unicode="&#xfe8f;" horiz-adv-x="892" d="M822 0 L200 0 Q143 0 104.5 7.5 Q66 15 43 32 Q20 49 10 76 Q0 103 0 142 L0 292 L63 292 L63 173 Q63 137 71 115 Q79 93 99.5 82 Q120 71 155 67.5 Q190 64 243 64 L759 64 L759 380 L822 380 L822 0 Z M373 -136 Q373 -118 386 -105 Q399 -92 417 -92 Q435 -92 448 -105 Q461 -118 461 -136 Q461 -154 448 -167 Q435 -180 417 -180 Q399 -180 386 -167 Q373 -154 373 -136 Z " />
<glyph glyph-name="uniFE91" unicode="&#xfe91;" horiz-adv-x="308" d="M0 0 Q-17 0 -26 6.5 Q-35 13 -35 31 Q-35 52 -26 58 Q-17 64 0 64 L172 64 L172 380 L235 380 L235 0 L0 0 Z M156 -133 Q156 -115 169 -102 Q182 -89 200 -89 Q218 -89 231 -102 Q244 -115 244 -133 Q244 -151 231 -164 Q218 -177 200 -177 Q182 -177 169 -164 Q156 -151 156 -133 Z " />
<glyph glyph-name="uniFE92" unicode="&#xfe92;" horiz-adv-x="327" d="M0 0 Q-17 0 -26 6.5 Q-35 13 -35 31 Q-35 52 -26 58 Q-17 64 0 64 L66 64 Q87 64 106.5 65.5 Q126 67 141 74.5 Q156 82 165 98.5 Q174 115 174 145 L174 380 L237 380 L237 191 Q237 131 256 97.5 Q275 64 329 64 Q346 64 355 57.5 Q364 51 364 33 Q364 12 355 6 Q346 0 329 0 Q294 0 265 13 Q236 26 222 59 Q198 23 164.5 11.5 Q131 0 75 0 L0 0 Z M160 -133 Q160 -115 173 -102 Q186 -89 204 -89 Q222 -89 235 -102 Q248 -115 248 -133 Q248 -151 235 -164 Q222 -177 204 -177 Q186 -177 173 -164 Q160 -151 160 -133 Z " />
<glyph glyph-name="uniFE90" unicode="&#xfe90;" horiz-adv-x="885" d="M888 0 Q852 0 823 13 Q794 26 780 59 Q756 23 723 11.5 Q690 0 634 0 L200 0 Q143 0 104.5 7.5 Q66 15 43 32 Q20 49 10 76 Q0 103 0 142 L0 292 L62 292 L62 173 Q62 137 70 115 Q78 93 98.5 82 Q119 71 154 67.5 Q189 64 242 64 L625 64 Q646 64 665.5 65.5 Q685 67 700 74.5 Q715 82 724 98.5 Q733 115 733 145 L733 380 L795 380 L795 191 Q795 133 814.5 98.5 Q834 64 888 64 Q905 64 914 57.5 Q923 51 923 33 Q923 12 914 6 Q905 0 888 0 Z M358 -136 Q358 -118 371 -105 Q384 -92 402 -92 Q420 -92 433 -105 Q446 -118 446 -136 Q446 -154 433 -167 Q420 -180 402 -180 Q384 -180 371 -167 Q358 -154 358 -136 Z " />
<glyph glyph-name="&amp;#x629;" unicode="&#x629;" horiz-adv-x="422" d="M186 332 Q157 332 133 319.5 Q109 307 92 285.5 Q75 264 65.5 235.5 Q56 207 56 176 Q56 144 66.5 121.5 Q77 99 94.5 84.5 Q112 70 135.5 63.5 Q159 57 185 57 Q209 57 232.5 62.5 Q256 68 274.5 81 Q293 94 304.5 116 Q316 138 316 172 Q316 209 305.5 238.5 Q295 268 277 289 Q259 310 235.5 321 Q212 332 186 332 Z M0 168 Q0 207 13 247.5 Q26 288 50.5 321 Q75 354 110 374.5 Q145 395 189 395 Q227 395 260.5 379.5 Q294 364 318.5 334.5 Q343 305 357.5 263 Q372 221 372 168 Q372 135 361.5 104 Q351 73 328 49 Q305 25 269.5 10 Q234 -5 183 -5 Q102 -5 51 37.5 Q0 80 0 168 Z M69 567 Q69 585 82 597.5 Q95 610 113 610 Q131 610 144 597.5 Q157 585 157 567 Q157 549 144 536 Q131 523 113 523 Q95 523 82 536 Q69 549 69 567 Z M205 567 Q205 585 218 597.5 Q231 610 249 610 Q267 610 280 597.5 Q293 585 293 567 Q293 549 280 536 Q267 523 249 523 Q231 523 218 536 Q205 549 205 567 Z " />
<glyph glyph-name="&amp;#xfe93;" unicode="&#xfe93;" horiz-adv-x="422" d="M186 332 Q157 332 133 319.5 Q109 307 92 285.5 Q75 264 65.5 235.5 Q56 207 56 176 Q56 144 66.5 121.5 Q77 99 94.5 84.5 Q112 70 135.5 63.5 Q159 57 185 57 Q209 57 232.5 62.5 Q256 68 274.5 81 Q293 94 304.5 116 Q316 138 316 172 Q316 209 305.5 238.5 Q295 268 277 289 Q259 310 235.5 321 Q212 332 186 332 Z M0 168 Q0 207 13 247.5 Q26 288 50.5 321 Q75 354 110 374.5 Q145 395 189 395 Q227 395 260.5 379.5 Q294 364 318.5 334.5 Q343 305 357.5 263 Q372 221 372 168 Q372 135 361.5 104 Q351 73 328 49 Q305 25 269.5 10 Q234 -5 183 -5 Q102 -5 51 37.5 Q0 80 0 168 Z M69 567 Q69 585 82 597.5 Q95 610 113 610 Q131 610 144 597.5 Q157 585 157 567 Q157 549 144 536 Q131 523 113 523 Q95 523 82 536 Q69 549 69 567 Z M205 567 Q205 585 218 597.5 Q231 610 249 610 Q267 610 280 597.5 Q293 585 293 567 Q293 549 280 536 Q267 523 249 523 Q231 523 218 536 Q205 549 205 567 Z " />
<glyph glyph-name="uniFE94" unicode="&#xfe94;" horiz-adv-x="442" d="M60 261 Q60 207 91 177 Q122 147 191 147 Q213 147 238.5 152 Q264 157 284 165 L284 382 L200 382 Q170 382 144.5 375 Q119 368 100.5 353.5 Q82 339 71 316 Q60 293 60 261 Z M184 82 Q160 82 128.5 89 Q97 96 68.5 114.5 Q40 133 20 166.5 Q0 200 0 254 Q0 308 19 344.5 Q38 381 68 404 Q98 427 134.5 437 Q171 447 207 447 L346 447 L346 160 Q346 118 359.5 90.5 Q373 63 418 63 L442 63 Q462 63 469.5 57.5 Q477 52 477 33 Q477 15 470 7.5 Q463 0 442 0 L408 0 Q357 0 323 26 Q289 52 287 100 Q265 92 237.5 87 Q210 82 184 82 Z M93 643 Q93 661 106 673.5 Q119 686 137 686 Q155 686 168 673.5 Q181 661 181 643 Q181 625 168 612 Q155 599 137 599 Q119 599 106 612 Q93 625 93 643 Z M229 643 Q229 661 242 673.5 Q255 686 273 686 Q291 686 304 673.5 Q317 661 317 643 Q317 625 304 612 Q291 599 273 599 Q255 599 242 612 Q229 625 229 643 Z " />
<glyph glyph-name="&amp;#x62a;" unicode="&#x62a;" horiz-adv-x="892" d="M822 0 L200 0 Q143 0 104.5 7.5 Q66 15 43 32 Q20 49 10 76 Q0 103 0 142 L0 292 L63 292 L63 173 Q63 137 71 115 Q79 93 99.5 82 Q120 71 155 67.5 Q190 64 243 64 L759 64 L759 380 L822 380 L822 0 Z M303 509 Q303 527 316 539.5 Q329 552 347 552 Q365 552 378 539.5 Q391 527 391 509 Q391 491 378 478 Q365 465 347 465 Q329 465 316 478 Q303 491 303 509 Z M439 509 Q439 527 452 539.5 Q465 552 483 552 Q501 552 514 539.5 Q527 527 527 509 Q527 491 514 478 Q501 465 483 465 Q465 465 452 478 Q439 491 439 509 Z " />
<glyph glyph-name="&amp;#xfe95;" unicode="&#xfe95;" horiz-adv-x="892" d="M822 0 L200 0 Q143 0 104.5 7.5 Q66 15 43 32 Q20 49 10 76 Q0 103 0 142 L0 292 L63 292 L63 173 Q63 137 71 115 Q79 93 99.5 82 Q120 71 155 67.5 Q190 64 243 64 L759 64 L759 380 L822 380 L822 0 Z M303 509 Q303 527 316 539.5 Q329 552 347 552 Q365 552 378 539.5 Q391 527 391 509 Q391 491 378 478 Q365 465 347 465 Q329 465 316 478 Q303 491 303 509 Z M439 509 Q439 527 452 539.5 Q465 552 483 552 Q501 552 514 539.5 Q527 527 527 509 Q527 491 514 478 Q501 465 483 465 Q465 465 452 478 Q439 491 439 509 Z " />
<glyph glyph-name="uniFE97" unicode="&#xfe97;" horiz-adv-x="308" d="M0 0 Q-17 0 -26 6.5 Q-35 13 -35 31 Q-35 52 -26 58 Q-17 64 0 64 L172 64 L172 380 L235 380 L235 0 L0 0 Z M77 567 Q77 585 90 597.5 Q103 610 121 610 Q139 610 152 597.5 Q165 585 165 567 Q165 549 152 536 Q139 523 121 523 Q103 523 90 536 Q77 549 77 567 Z M213 567 Q213 585 226 597.5 Q239 610 257 610 Q275 610 288 597.5 Q301 585 301 567 Q301 549 288 536 Q275 523 257 523 Q239 523 226 536 Q213 549 213 567 Z " />
<glyph glyph-name="uniFE98" unicode="&#xfe98;" horiz-adv-x="327" d="M0 0 Q-17 0 -26 6.5 Q-35 13 -35 31 Q-35 52 -26 58 Q-17 64 0 64 L66 64 Q87 64 106.5 65.5 Q126 67 141 74.5 Q156 82 165 98.5 Q174 115 174 145 L174 380 L237 380 L237 191 Q237 131 256 97.5 Q275 64 329 64 Q346 64 355 57.5 Q364 51 364 33 Q364 12 355 6 Q346 0 329 0 Q294 0 265 13 Q236 26 222 59 Q198 23 164.5 11.5 Q131 0 75 0 L0 0 Z M89 567 Q89 585 102 597.5 Q115 610 133 610 Q151 610 164 597.5 Q177 585 177 567 Q177 549 164 536 Q151 523 133 523 Q115 523 102 536 Q89 549 89 567 Z M225 567 Q225 585 238 597.5 Q251 610 269 610 Q287 610 300 597.5 Q313 585 313 567 Q313 549 300 536 Q287 523 269 523 Q251 523 238 536 Q225 549 225 567 Z " />
<glyph glyph-name="uniFE96" unicode="&#xfe96;" horiz-adv-x="885" d="M888 0 Q852 0 823 13 Q794 26 780 59 Q756 23 723 11.5 Q690 0 634 0 L200 0 Q143 0 104.5 7.5 Q66 15 43 32 Q20 49 10 76 Q0 103 0 142 L0 292 L62 292 L62 173 Q62 137 70 115 Q78 93 98.5 82 Q119 71 154 67.5 Q189 64 242 64 L625 64 Q646 64 665.5 65.5 Q685 67 700 74.5 Q715 82 724 98.5 Q733 115 733 145 L733 380 L795 380 L795 191 Q795 133 814.5 98.5 Q834 64 888 64 Q905 64 914 57.5 Q923 51 923 33 Q923 12 914 6 Q905 0 888 0 Z M298 509 Q298 527 311 539.5 Q324 552 342 552 Q360 552 373 539.5 Q386 527 386 509 Q386 491 373 478 Q360 465 342 465 Q324 465 311 478 Q298 491 298 509 Z M434 509 Q434 527 447 539.5 Q460 552 478 552 Q496 552 509 539.5 Q522 527 522 509 Q522 491 509 478 Q496 465 478 465 Q460 465 447 478 Q434 491 434 509 Z " />
<glyph glyph-name="&amp;#x62b;" unicode="&#x62b;" horiz-adv-x="892" d="M822 0 L200 0 Q143 0 104.5 7.5 Q66 15 43 32 Q20 49 10 76 Q0 103 0 142 L0 292 L63 292 L63 173 Q63 137 71 115 Q79 93 99.5 82 Q120 71 155 67.5 Q190 64 243 64 L759 64 L759 380 L822 380 L822 0 Z M296 509 Q296 527 309 539.5 Q322 552 340 552 Q358 552 371 539.5 Q384 527 384 509 Q384 491 371 478 Q358 465 340 465 Q322 465 309 478 Q296 491 296 509 Z M432 509 Q432 527 445 539.5 Q458 552 476 552 Q494 552 507 539.5 Q520 527 520 509 Q520 491 507 478 Q494 465 476 465 Q458 465 445 478 Q432 491 432 509 Z M366 635 Q366 653 379 665.5 Q392 678 410 678 Q428 678 441.5 665.5 Q455 653 455 635 Q455 617 441.5 604 Q428 591 410 591 Q392 591 379 604 Q366 617 366 635 Z " />
<glyph glyph-name="&amp;#xfe99;" unicode="&#xfe99;" horiz-adv-x="892" d="M822 0 L200 0 Q143 0 104.5 7.5 Q66 15 43 32 Q20 49 10 76 Q0 103 0 142 L0 292 L63 292 L63 173 Q63 137 71 115 Q79 93 99.5 82 Q120 71 155 67.5 Q190 64 243 64 L759 64 L759 380 L822 380 L822 0 Z M296 509 Q296 527 309 539.5 Q322 552 340 552 Q358 552 371 539.5 Q384 527 384 509 Q384 491 371 478 Q358 465 340 465 Q322 465 309 478 Q296 491 296 509 Z M432 509 Q432 527 445 539.5 Q458 552 476 552 Q494 552 507 539.5 Q520 527 520 509 Q520 491 507 478 Q494 465 476 465 Q458 465 445 478 Q432 491 432 509 Z M366 635 Q366 653 379 665.5 Q392 678 410 678 Q428 678 441.5 665.5 Q455 653 455 635 Q455 617 441.5 604 Q428 591 410 591 Q392 591 379 604 Q366 617 366 635 Z " />
<glyph glyph-name="uniFE9B" unicode="&#xfe9b;" horiz-adv-x="308" d="M0 0 Q-17 0 -26 6.5 Q-35 13 -35 31 Q-35 52 -26 58 Q-17 64 0 64 L172 64 L172 380 L235 380 L235 0 L0 0 Z M78 567 Q78 585 91 597.5 Q104 610 122 610 Q140 610 153 597.5 Q166 585 166 567 Q166 549 153 536 Q140 523 122 523 Q104 523 91 536 Q78 549 78 567 Z M214 567 Q214 585 227 597.5 Q240 610 258 610 Q276 610 289 597.5 Q302 585 302 567 Q302 549 289 536 Q276 523 258 523 Q240 523 227 536 Q214 549 214 567 Z M148 693 Q148 711 161 723.5 Q174 736 192 736 Q210 736 223.5 723.5 Q237 711 237 693 Q237 675 223.5 662 Q210 649 192 649 Q174 649 161 662 Q148 675 148 693 Z " />
<glyph glyph-name="uniFE9C" unicode="&#xfe9c;" horiz-adv-x="327" d="M0 0 Q-17 0 -26 6.5 Q-35 13 -35 31 Q-35 52 -26 58 Q-17 64 0 64 L66 64 Q87 64 106.5 65.5 Q126 67 141 74.5 Q156 82 165 98.5 Q174 115 174 145 L174 380 L237 380 L237 191 Q237 131 256 97.5 Q275 64 329 64 Q346 64 355 57.5 Q364 51 364 33 Q364 12 355 6 Q346 0 329 0 Q294 0 265 13 Q236 26 222 59 Q198 23 164.5 11.5 Q131 0 75 0 L0 0 Z M91 567 Q91 585 104 597.5 Q117 610 135 610 Q153 610 166 597.5 Q179 585 179 567 Q179 549 166 536 Q153 523 135 523 Q117 523 104 536 Q91 549 91 567 Z M227 567 Q227 585 240 597.5 Q253 610 271 610 Q289 610 302 597.5 Q315 585 315 567 Q315 549 302 536 Q289 523 271 523 Q253 523 240 536 Q227 549 227 567 Z M161 693 Q161 711 174 723.5 Q187 736 205 736 Q223 736 236.5 723.5 Q250 711 250 693 Q250 675 236.5 662 Q223 649 205 649 Q187 649 174 662 Q161 675 161 693 Z " />
<glyph glyph-name="uniFE9A" unicode="&#xfe9a;" horiz-adv-x="885" d="M888 0 Q852 0 823 13 Q794 26 780 59 Q756 23 723 11.5 Q690 0 634 0 L200 0 Q143 0 104.5 7.5 Q66 15 43 32 Q20 49 10 76 Q0 103 0 142 L0 292 L62 292 L62 173 Q62 137 70 115 Q78 93 98.5 82 Q119 71 154 67.5 Q189 64 242 64 L625 64 Q646 64 665.5 65.5 Q685 67 700 74.5 Q715 82 724 98.5 Q733 115 733 145 L733 380 L795 380 L795 191 Q795 133 814.5 98.5 Q834 64 888 64 Q905 64 914 57.5 Q923 51 923 33 Q923 12 914 6 Q905 0 888 0 Z M299 509 Q299 527 312 539.5 Q325 552 343 552 Q361 552 374 539.5 Q387 527 387 509 Q387 491 374 478 Q361 465 343 465 Q325 465 312 478 Q299 491 299 509 Z M435 509 Q435 527 448 539.5 Q461 552 479 552 Q497 552 510 539.5 Q523 527 523 509 Q523 491 510 478 Q497 465 479 465 Q461 465 448 478 Q435 491 435 509 Z M369 635 Q369 653 382 665.5 Q395 678 413 678 Q431 678 444.5 665.5 Q458 653 458 635 Q458 617 444.5 604 Q431 591 413 591 Q395 591 382 604 Q369 617 369 635 Z " />
<glyph glyph-name="&amp;#x62c;" unicode="&#x62c;" horiz-adv-x="628" d="M289 -419 Q225 -419 172 -403.5 Q119 -388 80.5 -358 Q42 -328 21 -283 Q0 -238 0 -179 Q0 -107 25 -60 Q50 -13 89.5 14.5 Q129 42 178.5 53 Q228 64 277 64 L511 64 Q511 137 492.5 187.5 Q474 238 442 269.5 Q410 301 367.5 315 Q325 329 277 329 Q249 329 220 325 Q191 321 168 316 L168 376 Q189 382 220.5 388.5 Q252 395 288 395 Q364 395 419 368.5 Q474 342 509.5 297 Q545 252 561.5 192 Q578 132 578 65 L578 0 L276 0 Q241 0 204.5 -7 Q168 -14 137.5 -33 Q107 -52 87.5 -85 Q68 -118 68 -170 Q68 -218 85.5 -252.5 Q103 -287 132.5 -309 Q162 -331 201.5 -341.5 Q241 -352 286 -352 Q327 -352 371.5 -345.5 Q416 -339 473 -313 L499 -364 Q472 -381 441 -391.5 Q410 -402 381 -408 Q352 -414 327.5 -416.5 Q303 -419 289 -419 Z M256 -178 Q256 -160 269 -147 Q282 -134 300 -134 Q318 -134 331 -147 Q344 -160 344 -178 Q344 -196 331 -209 Q318 -222 300 -222 Q282 -222 269 -209 Q256 -196 256 -178 Z " />
<glyph glyph-name="&amp;#xfe9d;" unicode="&#xfe9d;" horiz-adv-x="628" d="M289 -419 Q225 -419 172 -403.5 Q119 -388 80.5 -358 Q42 -328 21 -283 Q0 -238 0 -179 Q0 -107 25 -60 Q50 -13 89.5 14.5 Q129 42 178.5 53 Q228 64 277 64 L511 64 Q511 137 492.5 187.5 Q474 238 442 269.5 Q410 301 367.5 315 Q325 329 277 329 Q249 329 220 325 Q191 321 168 316 L168 376 Q189 382 220.5 388.5 Q252 395 288 395 Q364 395 419 368.5 Q474 342 509.5 297 Q545 252 561.5 192 Q578 132 578 65 L578 0 L276 0 Q241 0 204.5 -7 Q168 -14 137.5 -33 Q107 -52 87.5 -85 Q68 -118 68 -170 Q68 -218 85.5 -252.5 Q103 -287 132.5 -309 Q162 -331 201.5 -341.5 Q241 -352 286 -352 Q327 -352 371.5 -345.5 Q416 -339 473 -313 L499 -364 Q472 -381 441 -391.5 Q410 -402 381 -408 Q352 -414 327.5 -416.5 Q303 -419 289 -419 Z M256 -178 Q256 -160 269 -147 Q282 -134 300 -134 Q318 -134 331 -147 Q344 -160 344 -178 Q344 -196 331 -209 Q318 -222 300 -222 Q282 -222 269 -209 Q256 -196 256 -178 Z " />
<glyph glyph-name="uniFE9F" unicode="&#xfe9f;" horiz-adv-x="543" d="M0 0 Q-17 0 -26 6.5 Q-35 13 -35 31 Q-35 52 -26 58 Q-17 64 0 64 L425 64 Q425 137 406.5 187.5 Q388 238 356.5 269.5 Q325 301 282 315 Q239 329 191 329 Q164 329 135 325 Q106 321 83 316 L83 376 Q104 382 135.5 388.5 Q167 395 202 395 Q279 395 334 368.5 Q389 342 424.5 297 Q460 252 476.5 192 Q493 132 493 65 L493 0 L0 0 Z M221 -134 Q221 -116 234 -103 Q247 -90 265 -90 Q283 -90 296 -103 Q309 -116 309 -134 Q309 -152 296 -165 Q283 -178 265 -178 Q247 -178 234 -165 Q221 -152 221 -134 Z " />
<glyph glyph-name="uniFEA0" unicode="&#xfea0;" horiz-adv-x="555" d="M0 0 Q-17 0 -26 6.5 Q-35 13 -35 31 Q-35 52 -26 58 Q-17 64 0 64 L424 64 Q424 137 405.5 187.5 Q387 238 355.5 269.5 Q324 301 281 315 Q238 329 190 329 Q163 329 134 325 Q105 321 82 316 L82 376 Q103 382 134.5 388.5 Q166 395 201 395 Q278 395 333 368.5 Q388 342 423 297 Q458 252 474.5 191.5 Q491 131 491 64 L555 64 Q572 64 581 57.5 Q590 51 590 33 Q590 12 581 6 Q572 0 555 0 L0 0 Z M221 -134 Q221 -116 234 -103 Q247 -90 265 -90 Q283 -90 296 -103 Q309 -116 309 -134 Q309 -152 296 -165 Q283 -178 265 -178 Q247 -178 234 -165 Q221 -152 221 -134 Z " />
<glyph glyph-name="uniFE9E" unicode="&#xfe9e;" horiz-adv-x="643" d="M275 0 Q241 0 204.5 -7 Q168 -14 137.5 -33 Q107 -52 87.5 -85 Q68 -118 68 -170 Q68 -218 85.5 -252.5 Q103 -287 132.5 -309 Q162 -331 201.5 -341.5 Q241 -352 285 -352 Q327 -352 371.5 -345.5 Q416 -339 473 -313 L499 -364 Q472 -381 441 -391.5 Q410 -402 381 -408 Q352 -414 327.5 -416.5 Q303 -419 288 -419 Q224 -419 171 -403.5 Q118 -388 80 -358 Q42 -328 21 -283 Q0 -238 0 -179 Q0 -107 25 -60 Q50 -13 89.5 14.5 Q129 42 178.5 53 Q228 64 276 64 L511 64 Q511 137 492.5 187.5 Q474 238 442 269.5 Q410 301 367.5 315 Q325 329 276 329 Q249 329 220 325 Q191 321 168 316 L168 376 Q189 382 220.5 388.5 Q252 395 287 395 Q364 395 419 368.5 Q474 342 509.5 297 Q545 252 561.5 191.5 Q578 131 578 64 L643 64 Q660 64 669 57.5 Q678 51 678 33 Q678 12 669 6 Q660 0 643 0 L275 0 Z M256 -178 Q256 -160 269 -147 Q282 -134 300 -134 Q318 -134 331 -147 Q344 -160 344 -178 Q344 -196 331 -209 Q318 -222 300 -222 Q282 -222 269 -209 Q256 -196 256 -178 Z " />
<glyph glyph-name="&amp;#x62d;" unicode="&#x62d;" horiz-adv-x="628" d="M289 -419 Q225 -419 172 -403.5 Q119 -388 80.5 -358 Q42 -328 21 -283 Q0 -238 0 -179 Q0 -107 25 -60 Q50 -13 89.5 14.5 Q129 42 178.5 53 Q228 64 277 64 L511 64 Q511 137 492.5 187.5 Q474 238 442 269.5 Q410 301 367.5 315 Q325 329 277 329 Q249 329 220 325 Q191 321 168 316 L168 376 Q189 382 220.5 388.5 Q252 395 288 395 Q364 395 419 368.5 Q474 342 509.5 297 Q545 252 561.5 192 Q578 132 578 65 L578 0 L276 0 Q241 0 204.5 -7 Q168 -14 137.5 -33 Q107 -52 87.5 -85 Q68 -118 68 -170 Q68 -218 85.5 -252.5 Q103 -287 132.5 -309 Q162 -331 201.5 -341.5 Q241 -352 286 -352 Q327 -352 371.5 -345.5 Q416 -339 473 -313 L499 -364 Q472 -381 441 -391.5 Q410 -402 381 -408 Q352 -414 327.5 -416.5 Q303 -419 289 -419 Z " />
<glyph glyph-name="&amp;#xfea1;" unicode="&#xfea1;" horiz-adv-x="628" d="M289 -419 Q225 -419 172 -403.5 Q119 -388 80.5 -358 Q42 -328 21 -283 Q0 -238 0 -179 Q0 -107 25 -60 Q50 -13 89.5 14.5 Q129 42 178.5 53 Q228 64 277 64 L511 64 Q511 137 492.5 187.5 Q474 238 442 269.5 Q410 301 367.5 315 Q325 329 277 329 Q249 329 220 325 Q191 321 168 316 L168 376 Q189 382 220.5 388.5 Q252 395 288 395 Q364 395 419 368.5 Q474 342 509.5 297 Q545 252 561.5 192 Q578 132 578 65 L578 0 L276 0 Q241 0 204.5 -7 Q168 -14 137.5 -33 Q107 -52 87.5 -85 Q68 -118 68 -170 Q68 -218 85.5 -252.5 Q103 -287 132.5 -309 Q162 -331 201.5 -341.5 Q241 -352 286 -352 Q327 -352 371.5 -345.5 Q416 -339 473 -313 L499 -364 Q472 -381 441 -391.5 Q410 -402 381 -408 Q352 -414 327.5 -416.5 Q303 -419 289 -419 Z " />
<glyph glyph-name="uniFEA3" unicode="&#xfea3;" horiz-adv-x="543" d="M0 0 Q-17 0 -26 6.5 Q-35 13 -35 31 Q-35 52 -26 58 Q-17 64 0 64 L425 64 Q425 137 406.5 187.5 Q388 238 356.5 269.5 Q325 301 282 315 Q239 329 191 329 Q164 329 135 325 Q106 321 83 316 L83 376 Q104 382 135.5 388.5 Q167 395 202 395 Q279 395 334 368.5 Q389 342 424.5 297 Q460 252 476.5 192 Q493 132 493 65 L493 0 L0 0 Z " />
<glyph glyph-name="uniFEA4" unicode="&#xfea4;" horiz-adv-x="555" d="M0 0 Q-17 0 -26 6.5 Q-35 13 -35 31 Q-35 52 -26 58 Q-17 64 0 64 L424 64 Q424 137 405.5 187.5 Q387 238 355.5 269.5 Q324 301 281 315 Q238 329 190 329 Q163 329 134 325 Q105 321 82 316 L82 376 Q103 382 134.5 388.5 Q166 395 201 395 Q278 395 333 368.5 Q388 342 423 297 Q458 252 474.5 191.5 Q491 131 491 64 L555 64 Q572 64 581 57.5 Q590 51 590 33 Q590 12 581 6 Q572 0 555 0 L0 0 Z " />
<glyph glyph-name="uniFEA2" unicode="&#xfea2;" horiz-adv-x="643" d="M275 0 Q241 0 204.5 -7 Q168 -14 137.5 -33 Q107 -52 87.5 -85 Q68 -118 68 -170 Q68 -218 85.5 -252.5 Q103 -287 132.5 -309 Q162 -331 201.5 -341.5 Q241 -352 285 -352 Q327 -352 371.5 -345.5 Q416 -339 473 -313 L499 -364 Q472 -381 441 -391.5 Q410 -402 381 -408 Q352 -414 327.5 -416.5 Q303 -419 288 -419 Q224 -419 171 -403.5 Q118 -388 80 -358 Q42 -328 21 -283 Q0 -238 0 -179 Q0 -107 25 -60 Q50 -13 89.5 14.5 Q129 42 178.5 53 Q228 64 276 64 L511 64 Q511 137 492.5 187.5 Q474 238 442 269.5 Q410 301 367.5 315 Q325 329 276 329 Q249 329 220 325 Q191 321 168 316 L168 376 Q189 382 220.5 388.5 Q252 395 287 395 Q364 395 419 368.5 Q474 342 509.5 297 Q545 252 561.5 191.5 Q578 131 578 64 L643 64 Q660 64 669 57.5 Q678 51 678 33 Q678 12 669 6 Q660 0 643 0 L275 0 Z " />
<glyph glyph-name="&amp;#x62e;" unicode="&#x62e;" horiz-adv-x="628" d="M289 -419 Q225 -419 172 -403.5 Q119 -388 80.5 -358 Q42 -328 21 -283 Q0 -238 0 -179 Q0 -107 25 -60 Q50 -13 89.5 14.5 Q129 42 178.5 53 Q228 64 277 64 L511 64 Q511 137 492.5 187.5 Q474 238 442 269.5 Q410 301 367.5 315 Q325 329 277 329 Q249 329 220 325 Q191 321 168 316 L168 376 Q189 382 220.5 388.5 Q252 395 288 395 Q364 395 419 368.5 Q474 342 509.5 297 Q545 252 561.5 192 Q578 132 578 65 L578 0 L276 0 Q241 0 204.5 -7 Q168 -14 137.5 -33 Q107 -52 87.5 -85 Q68 -118 68 -170 Q68 -218 85.5 -252.5 Q103 -287 132.5 -309 Q162 -331 201.5 -341.5 Q241 -352 286 -352 Q327 -352 371.5 -345.5 Q416 -339 473 -313 L499 -364 Q472 -381 441 -391.5 Q410 -402 381 -408 Q352 -414 327.5 -416.5 Q303 -419 289 -419 Z M249 567 Q249 585 261.5 597.5 Q274 610 292 610 Q310 610 323.5 597.5 Q337 585 337 567 Q337 549 323.5 536 Q310 523 292 523 Q274 523 261.5 536 Q249 549 249 567 Z " />
<glyph glyph-name="&amp;#xfea5;" unicode="&#xfea5;" horiz-adv-x="628" d="M289 -419 Q225 -419 172 -403.5 Q119 -388 80.5 -358 Q42 -328 21 -283 Q0 -238 0 -179 Q0 -107 25 -60 Q50 -13 89.5 14.5 Q129 42 178.5 53 Q228 64 277 64 L511 64 Q511 137 492.5 187.5 Q474 238 442 269.5 Q410 301 367.5 315 Q325 329 277 329 Q249 329 220 325 Q191 321 168 316 L168 376 Q189 382 220.5 388.5 Q252 395 288 395 Q364 395 419 368.5 Q474 342 509.5 297 Q545 252 561.5 192 Q578 132 578 65 L578 0 L276 0 Q241 0 204.5 -7 Q168 -14 137.5 -33 Q107 -52 87.5 -85 Q68 -118 68 -170 Q68 -218 85.5 -252.5 Q103 -287 132.5 -309 Q162 -331 201.5 -341.5 Q241 -352 286 -352 Q327 -352 371.5 -345.5 Q416 -339 473 -313 L499 -364 Q472 -381 441 -391.5 Q410 -402 381 -408 Q352 -414 327.5 -416.5 Q303 -419 289 -419 Z M249 567 Q249 585 261.5 597.5 Q274 610 292 610 Q310 610 323.5 597.5 Q337 585 337 567 Q337 549 323.5 536 Q310 523 292 523 Q274 523 261.5 536 Q249 549 249 567 Z " />
<glyph glyph-name="uniFEA7" unicode="&#xfea7;" horiz-adv-x="543" d="M0 0 Q-17 0 -26 6.5 Q-35 13 -35 31 Q-35 52 -26 58 Q-17 64 0 64 L425 64 Q425 137 406.5 187.5 Q388 238 356.5 269.5 Q325 301 282 315 Q239 329 191 329 Q164 329 135 325 Q106 321 83 316 L83 376 Q104 382 135.5 388.5 Q167 395 202 395 Q279 395 334 368.5 Q389 342 424.5 297 Q460 252 476.5 192 Q493 132 493 65 L493 0 L0 0 Z M164 567 Q164 585 176.5 597.5 Q189 610 207 610 Q225 610 238.5 597.5 Q252 585 252 567 Q252 549 238.5 536 Q225 523 207 523 Q189 523 176.5 536 Q164 549 164 567 Z " />
<glyph glyph-name="uniFEA8" unicode="&#xfea8;" horiz-adv-x="555" d="M0 0 Q-17 0 -26 6.5 Q-35 13 -35 31 Q-35 52 -26 58 Q-17 64 0 64 L424 64 Q424 137 405.5 187.5 Q387 238 355.5 269.5 Q324 301 281 315 Q238 329 190 329 Q163 329 134 325 Q105 321 82 316 L82 376 Q103 382 134.5 388.5 Q166 395 201 395 Q278 395 333 368.5 Q388 342 423 297 Q458 252 474.5 191.5 Q491 131 491 64 L555 64 Q572 64 581 57.5 Q590 51 590 33 Q590 12 581 6 Q572 0 555 0 L0 0 Z M164 567 Q164 585 176.5 597.5 Q189 610 207 610 Q225 610 238.5 597.5 Q252 585 252 567 Q252 549 238.5 536 Q225 523 207 523 Q189 523 176.5 536 Q164 549 164 567 Z " />
<glyph glyph-name="uniFEA6" unicode="&#xfea6;" horiz-adv-x="643" d="M275 0 Q241 0 204.5 -7 Q168 -14 137.5 -33 Q107 -52 87.5 -85 Q68 -118 68 -170 Q68 -218 85.5 -252.5 Q103 -287 132.5 -309 Q162 -331 201.5 -341.5 Q241 -352 285 -352 Q327 -352 371.5 -345.5 Q416 -339 473 -313 L499 -364 Q472 -381 441 -391.5 Q410 -402 381 -408 Q352 -414 327.5 -416.5 Q303 -419 288 -419 Q224 -419 171 -403.5 Q118 -388 80 -358 Q42 -328 21 -283 Q0 -238 0 -179 Q0 -107 25 -60 Q50 -13 89.5 14.5 Q129 42 178.5 53 Q228 64 276 64 L511 64 Q511 137 492.5 187.5 Q474 238 442 269.5 Q410 301 367.5 315 Q325 329 276 329 Q249 329 220 325 Q191 321 168 316 L168 376 Q189 382 220.5 388.5 Q252 395 287 395 Q364 395 419 368.5 Q474 342 509.5 297 Q545 252 561.5 191.5 Q578 131 578 64 L643 64 Q660 64 669 57.5 Q678 51 678 33 Q678 12 669 6 Q660 0 643 0 L275 0 Z M232 567 Q232 585 244.5 597.5 Q257 610 275 610 Q293 610 306.5 597.5 Q320 585 320 567 Q320 549 306.5 536 Q293 523 275 523 Q257 523 244.5 536 Q232 549 232 567 Z " />
<glyph glyph-name="&amp;#x62f;" unicode="&#x62f;" horiz-adv-x="441" d="M391 103 Q391 58 359 29 Q327 0 264 0 L30 0 L30 64 L261 64 Q282 64 295 68 Q308 72 315 78.5 Q322 85 324.5 93.5 Q327 102 327 110 Q327 120 323 132 Q319 144 306.5 165 Q294 186 271 220 Q248 254 210 310 L176 361 Q191 370 205 380 Q219 390 235 399 L293 303 Q304 284 321 258.5 Q338 233 353.5 205.5 Q369 178 380 151 Q391 124 391 103 Z " />
<glyph glyph-name="&amp;#xfea9;" unicode="&#xfea9;" horiz-adv-x="441" d="M391 103 Q391 58 359 29 Q327 0 264 0 L30 0 L30 64 L261 64 Q282 64 295 68 Q308 72 315 78.5 Q322 85 324.5 93.5 Q327 102 327 110 Q327 120 323 132 Q319 144 306.5 165 Q294 186 271 220 Q248 254 210 310 L176 361 Q191 370 205 380 Q219 390 235 399 L293 303 Q304 284 321 258.5 Q338 233 353.5 205.5 Q369 178 380 151 Q391 124 391 103 Z " />
<glyph glyph-name="uniFEAA" unicode="&#xfeaa;" horiz-adv-x="475" d="M471 0 Q433 0 404.5 22 Q376 44 344 95 Q339 61 324 42 Q309 23 286.5 13.5 Q264 4 236 2 Q208 0 177 0 L30 0 L30 64 L205 64 Q256 64 277 80 Q298 96 298 122 Q298 145 288.5 168 Q279 191 261 218 L164 360 L225 399 L345 201 Q382 140 411 102 Q440 64 471 64 L475 64 Q492 64 501 57.5 Q510 51 510 33 Q510 12 501 6 Q492 0 475 0 L471 0 Z " />
<glyph glyph-name="&amp;#x630;" unicode="&#x630;" horiz-adv-x="441" d="M391 103 Q391 58 359 29 Q327 0 264 0 L30 0 L30 64 L261 64 Q282 64 295 68 Q308 72 315 78.5 Q322 85 324.5 93.5 Q327 102 327 110 Q327 120 323 132 Q319 144 306.5 165 Q294 186 271 220 Q248 254 210 310 L176 361 Q191 370 205 380 Q219 390 235 399 L293 303 Q304 284 321 258.5 Q338 233 353.5 205.5 Q369 178 380 151 Q391 124 391 103 Z M161 567 Q161 585 173.5 597.5 Q186 610 204 610 Q222 610 235.5 597.5 Q249 585 249 567 Q249 549 235.5 536 Q222 523 204 523 Q186 523 173.5 536 Q161 549 161 567 Z " />
<glyph glyph-name="&amp;#xfeab;" unicode="&#xfeab;" horiz-adv-x="441" d="M391 103 Q391 58 359 29 Q327 0 264 0 L30 0 L30 64 L261 64 Q282 64 295 68 Q308 72 315 78.5 Q322 85 324.5 93.5 Q327 102 327 110 Q327 120 323 132 Q319 144 306.5 165 Q294 186 271 220 Q248 254 210 310 L176 361 Q191 370 205 380 Q219 390 235 399 L293 303 Q304 284 321 258.5 Q338 233 353.5 205.5 Q369 178 380 151 Q391 124 391 103 Z M161 567 Q161 585 173.5 597.5 Q186 610 204 610 Q222 610 235.5 597.5 Q249 585 249 567 Q249 549 235.5 536 Q222 523 204 523 Q186 523 173.5 536 Q161 549 161 567 Z " />
<glyph glyph-name="uniFEAC" unicode="&#xfeac;" horiz-adv-x="475" d="M471 0 Q433 0 404.5 22 Q376 44 344 95 Q339 61 324 42 Q309 23 286.5 13.5 Q264 4 236 2 Q208 0 177 0 L30 0 L30 64 L205 64 Q256 64 277 80 Q298 96 298 122 Q298 145 288.5 168 Q279 191 261 218 L164 360 L225 399 L345 201 Q382 140 411 102 Q440 64 471 64 L475 64 Q492 64 501 57.5 Q510 51 510 33 Q510 12 501 6 Q492 0 475 0 L471 0 Z M152 567 Q152 585 164.5 597.5 Q177 610 195 610 Q213 610 226.5 597.5 Q240 585 240 567 Q240 549 226.5 536 Q213 523 195 523 Q177 523 164.5 536 Q152 549 152 567 Z " />
<glyph glyph-name="&amp;#x631;" unicode="&#x631;" horiz-adv-x="289" d="M157 327 L219 327 L219 47 Q219 -25 210 -74.5 Q201 -124 178 -155.5 Q155 -187 115.5 -202 Q76 -217 15 -219 L15 -155 Q63 -153 91.5 -140 Q120 -127 134.5 -101 Q149 -75 153 -35.5 Q157 4 157 58 L157 327 Z " />
<glyph glyph-name="&amp;#xfead;" unicode="&#xfead;" horiz-adv-x="289" d="M157 327 L219 327 L219 47 Q219 -25 210 -74.5 Q201 -124 178 -155.5 Q155 -187 115.5 -202 Q76 -217 15 -219 L15 -155 Q63 -153 91.5 -140 Q120 -127 134.5 -101 Q149 -75 153 -35.5 Q157 4 157 58 L157 327 Z " />
<glyph glyph-name="uniFEAE" unicode="&#xfeae;" horiz-adv-x="309" d="M217 191 Q217 131 236 97.5 Q255 64 309 64 Q326 64 335 57.5 Q344 51 344 33 Q344 12 335 6 Q326 0 309 0 Q239 0 217 45 Q217 -28 208 -78 Q199 -128 176.5 -158.5 Q154 -189 115 -203 Q76 -217 15 -219 L15 -155 Q63 -153 91 -140 Q119 -127 133.5 -101 Q148 -75 152 -35.5 Q156 4 156 58 L156 327 L217 327 L217 191 Z " />
<glyph glyph-name="&amp;#x632;" unicode="&#x632;" horiz-adv-x="289" d="M157 327 L219 327 L219 47 Q219 -25 210 -74.5 Q201 -124 178 -155.5 Q155 -187 115.5 -202 Q76 -217 15 -219 L15 -155 Q63 -153 91.5 -140 Q120 -127 134.5 -101 Q149 -75 153 -35.5 Q157 4 157 58 L157 327 Z M143 567 Q143 585 155.5 597.5 Q168 610 186 610 Q204 610 217.5 597.5 Q231 585 231 567 Q231 549 217.5 536 Q204 523 186 523 Q168 523 155.5 536 Q143 549 143 567 Z " />
<glyph glyph-name="&amp;#xfeaf;" unicode="&#xfeaf;" horiz-adv-x="289" d="M157 327 L219 327 L219 47 Q219 -25 210 -74.5 Q201 -124 178 -155.5 Q155 -187 115.5 -202 Q76 -217 15 -219 L15 -155 Q63 -153 91.5 -140 Q120 -127 134.5 -101 Q149 -75 153 -35.5 Q157 4 157 58 L157 327 Z M143 567 Q143 585 155.5 597.5 Q168 610 186 610 Q204 610 217.5 597.5 Q231 585 231 567 Q231 549 217.5 536 Q204 523 186 523 Q168 523 155.5 536 Q143 549 143 567 Z " />
<glyph glyph-name="uniFEB0" unicode="&#xfeb0;" horiz-adv-x="309" d="M217 191 Q217 131 236 97.5 Q255 64 309 64 Q326 64 335 57.5 Q344 51 344 33 Q344 12 335 6 Q326 0 309 0 Q239 0 217 45 Q217 -28 208 -78 Q199 -128 176.5 -158.5 Q154 -189 115 -203 Q76 -217 15 -219 L15 -155 Q63 -153 91 -140 Q119 -127 133.5 -101 Q148 -75 152 -35.5 Q156 4 156 58 L156 327 L217 327 L217 191 Z M142 567 Q142 585 154.5 597.5 Q167 610 185 610 Q203 610 216.5 597.5 Q230 585 230 567 Q230 549 216.5 536 Q203 523 185 523 Q167 523 154.5 536 Q142 549 142 567 Z " />
<glyph glyph-name="&amp;#x633;" unicode="&#x633;" horiz-adv-x="1171" d="M552 327 L552 191 Q552 162 555.5 138.5 Q559 115 571 98.5 Q583 82 606 73 Q629 64 667 64 Q695 64 715.5 66.5 Q736 69 749 78 Q762 87 768.5 104.5 Q775 122 775 152 L775 327 L838 327 L838 191 Q838 162 842 138.5 Q846 115 857.5 98.5 Q869 82 888.5 73 Q908 64 940 64 L1039 64 L1039 380 L1101 380 L1101 0 L940 0 Q903 0 874.5 12.5 Q846 25 826 58 Q798 20 762 10 Q726 0 678 0 Q633 0 603.5 12 Q574 24 552 48 L552 1 Q552 -130 485 -188.5 Q418 -247 276 -247 Q0 -247 0 -7 L0 143 L63 143 L63 10 Q63 -97 117 -140.5 Q171 -184 278 -184 Q334 -184 374 -176 Q414 -168 440 -147 Q466 -126 478 -90 Q490 -54 490 2 L490 327 L552 327 Z " />
<glyph glyph-name="&amp;#xfeb1;" unicode="&#xfeb1;" horiz-adv-x="1171" d="M552 327 L552 191 Q552 162 555.5 138.5 Q559 115 571 98.5 Q583 82 606 73 Q629 64 667 64 Q695 64 715.5 66.5 Q736 69 749 78 Q762 87 768.5 104.5 Q775 122 775 152 L775 327 L838 327 L838 191 Q838 162 842 138.5 Q846 115 857.5 98.5 Q869 82 888.5 73 Q908 64 940 64 L1039 64 L1039 380 L1101 380 L1101 0 L940 0 Q903 0 874.5 12.5 Q846 25 826 58 Q798 20 762 10 Q726 0 678 0 Q633 0 603.5 12 Q574 24 552 48 L552 1 Q552 -130 485 -188.5 Q418 -247 276 -247 Q0 -247 0 -7 L0 143 L63 143 L63 10 Q63 -97 117 -140.5 Q171 -184 278 -184 Q334 -184 374 -176 Q414 -168 440 -147 Q466 -126 478 -90 Q490 -54 490 2 L490 327 L552 327 Z " />
<glyph glyph-name="uniFEB3" unicode="&#xfeb3;" horiz-adv-x="845" d="M0 0 Q-17 0 -26 6.5 Q-35 13 -35 31 Q-35 52 -26 58 Q-17 64 0 64 L28 64 Q67 64 92.5 66.5 Q118 69 134 78 Q150 87 156.5 104.5 Q163 122 163 152 L163 328 L226 328 L226 191 Q226 162 229.5 138.5 Q233 115 245.5 98.5 Q258 82 281.5 73 Q305 64 346 64 Q372 64 391.5 66.5 Q411 69 423.5 78 Q436 87 442.5 104.5 Q449 122 449 152 L449 327 L511 327 L511 191 Q511 162 515.5 138.5 Q520 115 531 98.5 Q542 82 562 73 Q582 64 613 64 L712 64 L712 380 L775 380 L775 0 L613 0 Q578 0 549 12.5 Q520 25 500 57 Q486 38 470 26.5 Q454 15 435 9 Q416 3 394 1.5 Q372 0 345 0 Q325 0 305 2.5 Q285 5 266.5 11.5 Q248 18 233 30 Q218 42 209 61 Q197 44 183.5 32.5 Q170 21 150 13.5 Q130 6 100.5 3 Q71 0 26 0 L0 0 Z " />
<glyph glyph-name="uniFEB4" unicode="&#xfeb4;" horiz-adv-x="875" d="M875 0 Q839 0 806.5 11.5 Q774 23 760 55 Q740 26 708.5 12.5 Q677 -1 635 -1 Q615 -1 595 1.5 Q575 4 556.5 10.5 Q538 17 523 29 Q508 41 499 60 Q473 21 436 10.5 Q399 0 345 0 Q325 0 305 2.5 Q285 5 266.5 11.5 Q248 18 233 30 Q218 42 209 61 Q197 44 183.5 32.5 Q170 21 150 13.5 Q130 6 100.5 3 Q71 0 26 0 L0 0 Q-17 0 -26 6.5 Q-35 13 -35 31 Q-35 52 -26 58 Q-17 64 0 64 L28 64 Q67 64 92.5 66.5 Q118 69 134 78 Q150 87 156.5 104.5 Q163 122 163 152 L163 328 L226 328 L226 191 Q226 162 229.5 138.5 Q233 115 245.5 98.5 Q258 82 281.5 73 Q305 64 346 64 Q372 64 391.5 66.5 Q411 69 423.5 78 Q436 87 442.5 104.5 Q449 122 449 152 L449 327 L511 327 L511 191 Q511 162 515.5 138.5 Q520 115 531 98.5 Q542 82 562 73 Q582 64 613 64 Q634 64 652 66.5 Q670 69 683.5 78 Q697 87 704.5 104.5 Q712 122 712 152 L712 380 L774 380 L774 191 Q774 162 778 138.5 Q782 115 793.5 98.5 Q805 82 824.5 73 Q844 64 875 64 Q892 64 901 57.5 Q910 51 910 33 Q910 12 901 6 Q892 0 875 0 Z " />
<glyph glyph-name="uniFEB2" unicode="&#xfeb2;" horiz-adv-x="1202" d="M552 327 L552 191 Q552 162 555.5 138.5 Q559 115 571 98.5 Q583 82 607 73 Q631 64 672 64 Q698 64 717.5 66.5 Q737 69 750 78 Q763 87 769.5 104.5 Q776 122 776 152 L776 327 L838 327 L838 191 Q838 162 842.5 138.5 Q847 115 858 98.5 Q869 82 889 73 Q909 64 940 64 Q961 64 979 66.5 Q997 69 1010.5 78 Q1024 87 1031.5 104.5 Q1039 122 1039 152 L1039 380 L1101 380 L1101 191 Q1101 162 1105 138.5 Q1109 115 1120.5 98.5 Q1132 82 1151.5 73 Q1171 64 1202 64 Q1219 64 1228 57.5 Q1237 51 1237 33 Q1237 12 1228 6 Q1219 0 1202 0 Q1166 0 1133 12 Q1100 24 1086 58 Q1067 27 1035.5 13 Q1004 -1 962 -1 Q942 -1 922 1.5 Q902 4 883.5 10.5 Q865 17 850 29 Q835 41 826 60 Q813 40 798.5 28.5 Q784 17 766 10.5 Q748 4 726 2 Q704 0 677 0 Q632 0 603 12 Q574 24 552 48 L552 1 Q552 -130 485 -188.5 Q418 -247 276 -247 Q0 -247 0 -7 L0 143 L63 143 L63 10 Q63 -97 117 -140.5 Q171 -184 278 -184 Q334 -184 374 -176 Q414 -168 440 -147 Q466 -126 478 -90 Q490 -54 490 2 L490 327 L552 327 Z " />
<glyph glyph-name="&amp;#x634;" unicode="&#x634;" horiz-adv-x="1171" d="M552 327 L552 191 Q552 162 555.5 138.5 Q559 115 571 98.5 Q583 82 606 73 Q629 64 667 64 Q695 64 715.5 66.5 Q736 69 749 78 Q762 87 768.5 104.5 Q775 122 775 152 L775 327 L838 327 L838 191 Q838 162 842 138.5 Q846 115 857.5 98.5 Q869 82 888.5 73 Q908 64 940 64 L1039 64 L1039 380 L1101 380 L1101 0 L940 0 Q903 0 874.5 12.5 Q846 25 826 58 Q798 20 762 10 Q726 0 678 0 Q633 0 603.5 12 Q574 24 552 48 L552 1 Q552 -130 485 -188.5 Q418 -247 276 -247 Q0 -247 0 -7 L0 143 L63 143 L63 10 Q63 -97 117 -140.5 Q171 -184 278 -184 Q334 -184 374 -176 Q414 -168 440 -147 Q466 -126 478 -90 Q490 -54 490 2 L490 327 L552 327 Z M693 567 Q693 585 706 597.5 Q719 610 737 610 Q755 610 768 597.5 Q781 585 781 567 Q781 549 768 536 Q755 523 737 523 Q719 523 706 536 Q693 549 693 567 Z M829 567 Q829 585 842 597.5 Q855 610 873 610 Q891 610 904 597.5 Q917 585 917 567 Q917 549 904 536 Q891 523 873 523 Q855 523 842 536 Q829 549 829 567 Z M763 693 Q763 711 776 723.5 Q789 736 807 736 Q825 736 838.5 723.5 Q852 711 852 693 Q852 675 838.5 662 Q825 649 807 649 Q789 649 776 662 Q763 675 763 693 Z " />
<glyph glyph-name="&amp;#xfeb5;" unicode="&#xfeb5;" horiz-adv-x="1171" d="M552 327 L552 191 Q552 162 555.5 138.5 Q559 115 571 98.5 Q583 82 606 73 Q629 64 667 64 Q695 64 715.5 66.5 Q736 69 749 78 Q762 87 768.5 104.5 Q775 122 775 152 L775 327 L838 327 L838 191 Q838 162 842 138.5 Q846 115 857.5 98.5 Q869 82 888.5 73 Q908 64 940 64 L1039 64 L1039 380 L1101 380 L1101 0 L940 0 Q903 0 874.5 12.5 Q846 25 826 58 Q798 20 762 10 Q726 0 678 0 Q633 0 603.5 12 Q574 24 552 48 L552 1 Q552 -130 485 -188.5 Q418 -247 276 -247 Q0 -247 0 -7 L0 143 L63 143 L63 10 Q63 -97 117 -140.5 Q171 -184 278 -184 Q334 -184 374 -176 Q414 -168 440 -147 Q466 -126 478 -90 Q490 -54 490 2 L490 327 L552 327 Z M693 567 Q693 585 706 597.5 Q719 610 737 610 Q755 610 768 597.5 Q781 585 781 567 Q781 549 768 536 Q755 523 737 523 Q719 523 706 536 Q693 549 693 567 Z M829 567 Q829 585 842 597.5 Q855 610 873 610 Q891 610 904 597.5 Q917 585 917 567 Q917 549 904 536 Q891 523 873 523 Q855 523 842 536 Q829 549 829 567 Z M763 693 Q763 711 776 723.5 Q789 736 807 736 Q825 736 838.5 723.5 Q852 711 852 693 Q852 675 838.5 662 Q825 649 807 649 Q789 649 776 662 Q763 675 763 693 Z " />
<glyph glyph-name="uniFEB7" unicode="&#xfeb7;" horiz-adv-x="845" d="M0 0 Q-17 0 -26 6.5 Q-35 13 -35 31 Q-35 52 -26 58 Q-17 64 0 64 L28 64 Q67 64 92.5 66.5 Q118 69 134 78 Q150 87 156.5 104.5 Q163 122 163 152 L163 328 L226 328 L226 191 Q226 162 229.5 138.5 Q233 115 245.5 98.5 Q258 82 281.5 73 Q305 64 346 64 Q372 64 391.5 66.5 Q411 69 423.5 78 Q436 87 442.5 104.5 Q449 122 449 152 L449 327 L511 327 L511 191 Q511 162 515.5 138.5 Q520 115 531 98.5 Q542 82 562 73 Q582 64 613 64 L712 64 L712 380 L775 380 L775 0 L613 0 Q578 0 549 12.5 Q520 25 500 57 Q486 38 470 26.5 Q454 15 435 9 Q416 3 394 1.5 Q372 0 345 0 Q325 0 305 2.5 Q285 5 266.5 11.5 Q248 18 233 30 Q218 42 209 61 Q197 44 183.5 32.5 Q170 21 150 13.5 Q130 6 100.5 3 Q71 0 26 0 L0 0 Z M368 567 Q368 585 381 597.5 Q394 610 412 610 Q430 610 443 597.5 Q456 585 456 567 Q456 549 443 536 Q430 523 412 523 Q394 523 381 536 Q368 549 368 567 Z M504 567 Q504 585 517 597.5 Q530 610 548 610 Q566 610 579 597.5 Q592 585 592 567 Q592 549 579 536 Q566 523 548 523 Q530 523 517 536 Q504 549 504 567 Z M438 693 Q438 711 451 723.5 Q464 736 482 736 Q500 736 513.5 723.5 Q527 711 527 693 Q527 675 513.5 662 Q500 649 482 649 Q464 649 451 662 Q438 675 438 693 Z " />
<glyph glyph-name="uniFEB8" unicode="&#xfeb8;" horiz-adv-x="875" d="M875 0 Q839 0 806.5 11.5 Q774 23 760 55 Q740 26 708.5 12.5 Q677 -1 635 -1 Q615 -1 595 1.5 Q575 4 556.5 10.5 Q538 17 523 29 Q508 41 499 60 Q473 21 436 10.5 Q399 0 345 0 Q325 0 305 2.5 Q285 5 266.5 11.5 Q248 18 233 30 Q218 42 209 61 Q197 44 183.5 32.5 Q170 21 150 13.5 Q130 6 100.5 3 Q71 0 26 0 L0 0 Q-17 0 -26 6.5 Q-35 13 -35 31 Q-35 52 -26 58 Q-17 64 0 64 L28 64 Q67 64 92.5 66.5 Q118 69 134 78 Q150 87 156.5 104.5 Q163 122 163 152 L163 328 L226 328 L226 191 Q226 162 229.5 138.5 Q233 115 245.5 98.5 Q258 82 281.5 73 Q305 64 346 64 Q372 64 391.5 66.5 Q411 69 423.5 78 Q436 87 442.5 104.5 Q449 122 449 152 L449 327 L511 327 L511 191 Q511 162 515.5 138.5 Q520 115 531 98.5 Q542 82 562 73 Q582 64 613 64 Q634 64 652 66.5 Q670 69 683.5 78 Q697 87 704.5 104.5 Q712 122 712 152 L712 380 L774 380 L774 191 Q774 162 778 138.5 Q782 115 793.5 98.5 Q805 82 824.5 73 Q844 64 875 64 Q892 64 901 57.5 Q910 51 910 33 Q910 12 901 6 Q892 0 875 0 Z M369 567 Q369 585 382 597.5 Q395 610 413 610 Q431 610 444 597.5 Q457 585 457 567 Q457 549 444 536 Q431 523 413 523 Q395 523 382 536 Q369 549 369 567 Z M505 567 Q505 585 518 597.5 Q531 610 549 610 Q567 610 580 597.5 Q593 585 593 567 Q593 549 580 536 Q567 523 549 523 Q531 523 518 536 Q505 549 505 567 Z M439 693 Q439 711 452 723.5 Q465 736 483 736 Q501 736 514.5 723.5 Q528 711 528 693 Q528 675 514.5 662 Q501 649 483 649 Q465 649 452 662 Q439 675 439 693 Z " />
<glyph glyph-name="uniFEB6" unicode="&#xfeb6;" horiz-adv-x="1202" d="M552 327 L552 191 Q552 162 555.5 138.5 Q559 115 571 98.5 Q583 82 607 73 Q631 64 672 64 Q698 64 717.5 66.5 Q737 69 750 78 Q763 87 769.5 104.5 Q776 122 776 152 L776 327 L838 327 L838 191 Q838 162 842.5 138.5 Q847 115 858 98.5 Q869 82 889 73 Q909 64 940 64 Q961 64 979 66.5 Q997 69 1010.5 78 Q1024 87 1031.5 104.5 Q1039 122 1039 152 L1039 380 L1101 380 L1101 191 Q1101 162 1105 138.5 Q1109 115 1120.5 98.5 Q1132 82 1151.5 73 Q1171 64 1202 64 Q1219 64 1228 57.5 Q1237 51 1237 33 Q1237 12 1228 6 Q1219 0 1202 0 Q1166 0 1133 12 Q1100 24 1086 58 Q1067 27 1035.5 13 Q1004 -1 962 -1 Q942 -1 922 1.5 Q902 4 883.5 10.5 Q865 17 850 29 Q835 41 826 60 Q813 40 798.5 28.5 Q784 17 766 10.5 Q748 4 726 2 Q704 0 677 0 Q632 0 603 12 Q574 24 552 48 L552 1 Q552 -130 485 -188.5 Q418 -247 276 -247 Q0 -247 0 -7 L0 143 L63 143 L63 10 Q63 -97 117 -140.5 Q171 -184 278 -184 Q334 -184 374 -176 Q414 -168 440 -147 Q466 -126 478 -90 Q490 -54 490 2 L490 327 L552 327 Z M693 567 Q693 585 706 597.5 Q719 610 737 610 Q755 610 768 597.5 Q781 585 781 567 Q781 549 768 536 Q755 523 737 523 Q719 523 706 536 Q693 549 693 567 Z M829 567 Q829 585 842 597.5 Q855 610 873 610 Q891 610 904 597.5 Q917 585 917 567 Q917 549 904 536 Q891 523 873 523 Q855 523 842 536 Q829 549 829 567 Z M763 693 Q763 711 776 723.5 Q789 736 807 736 Q825 736 838.5 723.5 Q852 711 852 693 Q852 675 838.5 662 Q825 649 807 649 Q789 649 776 662 Q763 675 763 693 Z " />
<glyph glyph-name="&amp;#x635;" unicode="&#x635;" horiz-adv-x="1332" d="M1210 64 L1210 146 Q1210 186 1201.5 220 Q1193 254 1173.5 278 Q1154 302 1123 315.5 Q1092 329 1048 329 Q996 329 950 305.5 Q904 282 866 244 Q828 206 800 159 Q772 112 756 64 L1210 64 Z M552 327 L552 191 Q552 162 556 138.5 Q560 115 573.5 98.5 Q587 82 612.5 73 Q638 64 682 64 Q705 124 740.5 183 Q776 242 824 289 Q872 336 931.5 365.5 Q991 395 1062 395 Q1162 395 1217 335 Q1272 275 1272 166 L1272 0 L699 0 Q639 0 604.5 8.5 Q570 17 552 49 L552 1 Q552 -130 485 -188.5 Q418 -247 276 -247 Q0 -247 0 -7 L0 143 L63 143 L63 10 Q63 -97 117 -140.5 Q171 -184 278 -184 Q334 -184 374 -176 Q414 -168 440 -147 Q466 -126 478 -90 Q490 -54 490 2 L490 327 L552 327 Z " />
<glyph glyph-name="&amp;#xfeb9;" unicode="&#xfeb9;" horiz-adv-x="1332" d="M1210 64 L1210 146 Q1210 186 1201.5 220 Q1193 254 1173.5 278 Q1154 302 1123 315.5 Q1092 329 1048 329 Q996 329 950 305.5 Q904 282 866 244 Q828 206 800 159 Q772 112 756 64 L1210 64 Z M552 327 L552 191 Q552 162 556 138.5 Q560 115 573.5 98.5 Q587 82 612.5 73 Q638 64 682 64 Q705 124 740.5 183 Q776 242 824 289 Q872 336 931.5 365.5 Q991 395 1062 395 Q1162 395 1217 335 Q1272 275 1272 166 L1272 0 L699 0 Q639 0 604.5 8.5 Q570 17 552 49 L552 1 Q552 -130 485 -188.5 Q418 -247 276 -247 Q0 -247 0 -7 L0 143 L63 143 L63 10 Q63 -97 117 -140.5 Q171 -184 278 -184 Q334 -184 374 -176 Q414 -168 440 -147 Q466 -126 478 -90 Q490 -54 490 2 L490 327 L552 327 Z " />
<glyph glyph-name="uniFEBB" unicode="&#xfebb;" horiz-adv-x="964" d="M840 64 L840 146 Q840 186 831.5 220 Q823 254 804 278 Q785 302 754.5 315.5 Q724 329 680 329 Q628 329 582 305.5 Q536 282 497.5 244 Q459 206 431 159 Q403 112 387 64 L840 64 Z M0 0 Q-17 0 -26 6.5 Q-35 13 -35 31 Q-35 52 -26 58 Q-17 64 0 64 L27 64 Q66 64 91.5 66.5 Q117 69 133 78 Q149 87 155.5 104.5 Q162 122 162 152 L162 306 L225 306 L225 191 Q225 162 227.5 138.5 Q230 115 239.5 98.5 Q249 82 267.5 73 Q286 64 318 64 Q337 122 372 181 Q407 240 455 287.5 Q503 335 563 365 Q623 395 693 395 Q793 395 848.5 335 Q904 275 904 166 L904 0 L334 0 Q283 0 253.5 12.5 Q224 25 210 59 Q201 41 187.5 29.5 Q174 18 152.5 11.5 Q131 5 100 2.5 Q69 0 25 0 L0 0 Z " />
<glyph glyph-name="uniFEBC" unicode="&#xfebc;" horiz-adv-x="969" d="M334 0 Q283 0 253.5 12.5 Q224 25 210 59 Q201 41 187.5 29.5 Q174 18 152.5 11.5 Q131 5 100 2.5 Q69 0 25 0 L0 0 Q-17 0 -26 6.5 Q-35 13 -35 31 Q-35 52 -26 58 Q-17 64 0 64 L27 64 Q66 64 91.5 66.5 Q117 69 133 78 Q149 87 155.5 104.5 Q162 122 162 152 L162 306 L225 306 L225 191 Q225 162 227.5 138.5 Q230 115 239.5 98.5 Q249 82 267.5 73 Q286 64 318 64 Q337 122 372 181 Q407 240 455 287.5 Q503 335 563 365 Q623 395 693 395 Q793 395 848.5 335 Q904 275 904 166 L904 64 L969 64 Q986 64 995 57.5 Q1004 51 1004 33 Q1004 12 995 6 Q986 0 969 0 L334 0 Z M840 64 L840 146 Q840 186 831.5 220 Q823 254 804 278 Q785 302 754.5 315.5 Q724 329 680 329 Q628 329 582 305.5 Q536 282 497.5 244 Q459 206 431 159 Q403 112 387 64 L840 64 Z " />
<glyph glyph-name="uniFEBA" unicode="&#xfeba;" horiz-adv-x="1337" d="M552 327 L552 191 Q552 162 556 138.5 Q560 115 573.5 98.5 Q587 82 612.5 73 Q638 64 682 64 Q705 124 740.5 183 Q776 242 824 289 Q872 336 931.5 365.5 Q991 395 1062 395 Q1162 395 1217 335 Q1272 275 1272 166 L1272 64 L1337 64 Q1354 64 1363 57.5 Q1372 51 1372 33 Q1372 12 1363 6 Q1354 0 1337 0 L698 0 Q639 0 604.5 8.5 Q570 17 552 49 L552 1 Q552 -130 485 -188.5 Q418 -247 276 -247 Q0 -247 0 -7 L0 143 L63 143 L63 10 Q63 -97 117 -140.5 Q171 -184 278 -184 Q334 -184 374 -176 Q414 -168 440 -147 Q466 -126 478 -90 Q490 -54 490 2 L490 327 L552 327 Z M1209 64 L1209 146 Q1209 186 1200.5 220 Q1192 254 1173 278 Q1154 302 1123 315.5 Q1092 329 1048 329 Q996 329 950 305.5 Q904 282 866 244 Q828 206 800 159 Q772 112 756 64 L1209 64 Z " />
<glyph glyph-name="&amp;#x636;" unicode="&#x636;" horiz-adv-x="1332" d="M1210 64 L1210 146 Q1210 186 1201.5 220 Q1193 254 1173.5 278 Q1154 302 1123 315.5 Q1092 329 1048 329 Q996 329 950 305.5 Q904 282 866 244 Q828 206 800 159 Q772 112 756 64 L1210 64 Z M552 327 L552 191 Q552 162 556 138.5 Q560 115 573.5 98.5 Q587 82 612.5 73 Q638 64 682 64 Q705 124 740.5 183 Q776 242 824 289 Q872 336 931.5 365.5 Q991 395 1062 395 Q1162 395 1217 335 Q1272 275 1272 166 L1272 0 L699 0 Q639 0 604.5 8.5 Q570 17 552 49 L552 1 Q552 -130 485 -188.5 Q418 -247 276 -247 Q0 -247 0 -7 L0 143 L63 143 L63 10 Q63 -97 117 -140.5 Q171 -184 278 -184 Q334 -184 374 -176 Q414 -168 440 -147 Q466 -126 478 -90 Q490 -54 490 2 L490 327 L552 327 Z M978 567 Q978 585 990.5 597.5 Q1003 610 1021 610 Q1039 610 1052.5 597.5 Q1066 585 1066 567 Q1066 549 1052.5 536 Q1039 523 1021 523 Q1003 523 990.5 536 Q978 549 978 567 Z " />
<glyph glyph-name="&amp;#xfebd;" unicode="&#xfebd;" horiz-adv-x="1332" d="M1210 64 L1210 146 Q1210 186 1201.5 220 Q1193 254 1173.5 278 Q1154 302 1123 315.5 Q1092 329 1048 329 Q996 329 950 305.5 Q904 282 866 244 Q828 206 800 159 Q772 112 756 64 L1210 64 Z M552 327 L552 191 Q552 162 556 138.5 Q560 115 573.5 98.5 Q587 82 612.5 73 Q638 64 682 64 Q705 124 740.5 183 Q776 242 824 289 Q872 336 931.5 365.5 Q991 395 1062 395 Q1162 395 1217 335 Q1272 275 1272 166 L1272 0 L699 0 Q639 0 604.5 8.5 Q570 17 552 49 L552 1 Q552 -130 485 -188.5 Q418 -247 276 -247 Q0 -247 0 -7 L0 143 L63 143 L63 10 Q63 -97 117 -140.5 Q171 -184 278 -184 Q334 -184 374 -176 Q414 -168 440 -147 Q466 -126 478 -90 Q490 -54 490 2 L490 327 L552 327 Z M978 567 Q978 585 990.5 597.5 Q1003 610 1021 610 Q1039 610 1052.5 597.5 Q1066 585 1066 567 Q1066 549 1052.5 536 Q1039 523 1021 523 Q1003 523 990.5 536 Q978 549 978 567 Z " />
<glyph glyph-name="uniFEBF" unicode="&#xfebf;" horiz-adv-x="964" d="M840 64 L840 146 Q840 186 831.5 220 Q823 254 804 278 Q785 302 754.5 315.5 Q724 329 680 329 Q628 329 582 305.5 Q536 282 497.5 244 Q459 206 431 159 Q403 112 387 64 L840 64 Z M0 0 Q-17 0 -26 6.5 Q-35 13 -35 31 Q-35 52 -26 58 Q-17 64 0 64 L27 64 Q66 64 91.5 66.5 Q117 69 133 78 Q149 87 155.5 104.5 Q162 122 162 152 L162 306 L225 306 L225 191 Q225 162 227.5 138.5 Q230 115 239.5 98.5 Q249 82 267.5 73 Q286 64 318 64 Q337 122 372 181 Q407 240 455 287.5 Q503 335 563 365 Q623 395 693 395 Q793 395 848.5 335 Q904 275 904 166 L904 0 L334 0 Q283 0 253.5 12.5 Q224 25 210 59 Q201 41 187.5 29.5 Q174 18 152.5 11.5 Q131 5 100 2.5 Q69 0 25 0 L0 0 Z M627 567 Q627 585 639.5 597.5 Q652 610 670 610 Q688 610 701.5 597.5 Q715 585 715 567 Q715 549 701.5 536 Q688 523 670 523 Q652 523 639.5 536 Q627 549 627 567 Z " />
<glyph glyph-name="uniFEC0" unicode="&#xfec0;" horiz-adv-x="969" d="M334 0 Q283 0 253.5 12.5 Q224 25 210 59 Q201 41 187.5 29.5 Q174 18 152.5 11.5 Q131 5 100 2.5 Q69 0 25 0 L0 0 Q-17 0 -26 6.5 Q-35 13 -35 31 Q-35 52 -26 58 Q-17 64 0 64 L27 64 Q66 64 91.5 66.5 Q117 69 133 78 Q149 87 155.5 104.5 Q162 122 162 152 L162 306 L225 306 L225 191 Q225 162 227.5 138.5 Q230 115 239.5 98.5 Q249 82 267.5 73 Q286 64 318 64 Q337 122 372 181 Q407 240 455 287.5 Q503 335 563 365 Q623 395 693 395 Q793 395 848.5 335 Q904 275 904 166 L904 64 L969 64 Q986 64 995 57.5 Q1004 51 1004 33 Q1004 12 995 6 Q986 0 969 0 L334 0 Z M840 64 L840 146 Q840 186 831.5 220 Q823 254 804 278 Q785 302 754.5 315.5 Q724 329 680 329 Q628 329 582 305.5 Q536 282 497.5 244 Q459 206 431 159 Q403 112 387 64 L840 64 Z M625 567 Q625 585 637.5 597.5 Q650 610 668 610 Q686 610 699.5 597.5 Q713 585 713 567 Q713 549 699.5 536 Q686 523 668 523 Q650 523 637.5 536 Q625 549 625 567 Z " />
<glyph glyph-name="uniFEBE" unicode="&#xfebe;" horiz-adv-x="1337" d="M552 327 L552 191 Q552 162 556 138.5 Q560 115 573.5 98.5 Q587 82 612.5 73 Q638 64 682 64 Q705 124 740.5 183 Q776 242 824 289 Q872 336 931.5 365.5 Q991 395 1062 395 Q1162 395 1217 335 Q1272 275 1272 166 L1272 64 L1337 64 Q1354 64 1363 57.5 Q1372 51 1372 33 Q1372 12 1363 6 Q1354 0 1337 0 L698 0 Q639 0 604.5 8.5 Q570 17 552 49 L552 1 Q552 -130 485 -188.5 Q418 -247 276 -247 Q0 -247 0 -7 L0 143 L63 143 L63 10 Q63 -97 117 -140.5 Q171 -184 278 -184 Q334 -184 374 -176 Q414 -168 440 -147 Q466 -126 478 -90 Q490 -54 490 2 L490 327 L552 327 Z M1209 64 L1209 146 Q1209 186 1200.5 220 Q1192 254 1173 278 Q1154 302 1123 315.5 Q1092 329 1048 329 Q996 329 950 305.5 Q904 282 866 244 Q828 206 800 159 Q772 112 756 64 L1209 64 Z M979 567 Q979 585 991.5 597.5 Q1004 610 1022 610 Q1040 610 1053.5 597.5 Q1067 585 1067 567 Q1067 549 1053.5 536 Q1040 523 1022 523 Q1004 523 991.5 536 Q979 549 979 567 Z " />
<glyph glyph-name="&amp;#x637;" unicode="&#x637;" horiz-adv-x="784" d="M661 64 L661 146 Q661 185 653 218 Q645 251 626 276 Q607 301 576.5 315 Q546 329 500 329 Q449 329 403.5 304 Q358 279 321 240.5 Q284 202 256 155 Q228 108 212 64 L661 64 Z M216 189 Q273 288 350.5 341.5 Q428 395 519 395 Q616 395 670 333.5 Q724 272 724 166 L724 0 L21 0 L21 64 L154 64 L154 714 L216 714 L216 189 Z " />
<glyph glyph-name="&amp;#xfec1;" unicode="&#xfec1;" horiz-adv-x="784" d="M661 64 L661 146 Q661 185 653 218 Q645 251 626 276 Q607 301 576.5 315 Q546 329 500 329 Q449 329 403.5 304 Q358 279 321 240.5 Q284 202 256 155 Q228 108 212 64 L661 64 Z M216 189 Q273 288 350.5 341.5 Q428 395 519 395 Q616 395 670 333.5 Q724 272 724 166 L724 0 L21 0 L21 64 L154 64 L154 714 L216 714 L216 189 Z " />
<glyph glyph-name="uniFEC3" unicode="&#xfec3;" horiz-adv-x="752" d="M630 64 L630 146 Q630 185 622 218 Q614 251 595 276 Q576 301 545 315 Q514 329 468 329 Q417 329 372 304 Q327 279 290 240.5 Q253 202 225 155 Q197 108 181 64 L630 64 Z M488 395 Q585 395 638.5 333.5 Q692 272 692 166 L692 0 L0 0 Q-17 0 -26 6.5 Q-35 13 -35 31 Q-35 52 -26 58 Q-17 64 0 64 L122 64 L122 714 L185 714 L185 189 Q242 288 319.5 341.5 Q397 395 488 395 Z " />
<glyph glyph-name="uniFEC4" unicode="&#xfec4;" horiz-adv-x="757" d="M488 395 Q585 395 638.5 333.5 Q692 272 692 166 L692 64 L757 64 Q774 64 783 57.5 Q792 51 792 33 Q792 12 783 6 Q774 0 757 0 L0 0 Q-17 0 -26 6.5 Q-35 13 -35 31 Q-35 52 -26 58 Q-17 64 0 64 L122 64 L122 714 L185 714 L185 189 Q242 288 319.5 341.5 Q397 395 488 395 Z M630 64 L630 146 Q630 185 622 218 Q614 251 595 276 Q576 301 545 315 Q514 329 468 329 Q417 329 372 304 Q327 279 290 240.5 Q253 202 225 155 Q197 108 181 64 L630 64 Z " />
<glyph glyph-name="uniFEC2" unicode="&#xfec2;" horiz-adv-x="789" d="M519 395 Q616 395 670 333.5 Q724 272 724 166 L724 64 L789 64 Q806 64 815 57.5 Q824 51 824 33 Q824 12 815 6 Q806 0 789 0 L21 0 L21 64 L154 64 L154 714 L216 714 L216 189 Q273 288 350.5 341.5 Q428 395 519 395 Z M661 64 L661 146 Q661 185 653 218 Q645 251 626 276 Q607 301 576.5 315 Q546 329 500 329 Q449 329 403.5 304 Q358 279 321 240.5 Q284 202 256 155 Q228 108 212 64 L661 64 Z " />
<glyph glyph-name="&amp;#x638;" unicode="&#x638;" horiz-adv-x="784" d="M661 64 L661 146 Q661 185 653 218 Q645 251 626 276 Q607 301 576.5 315 Q546 329 500 329 Q449 329 403.5 304 Q358 279 321 240.5 Q284 202 256 155 Q228 108 212 64 L661 64 Z M216 189 Q273 288 350.5 341.5 Q428 395 519 395 Q616 395 670 333.5 Q724 272 724 166 L724 0 L21 0 L21 64 L154 64 L154 714 L216 714 L216 189 Z M471 567 Q471 585 483.5 597.5 Q496 610 514 610 Q532 610 545.5 597.5 Q559 585 559 567 Q559 549 545.5 536 Q532 523 514 523 Q496 523 483.5 536 Q471 549 471 567 Z " />
<glyph glyph-name="&amp;#xfec5;" unicode="&#xfec5;" horiz-adv-x="784" d="M661 64 L661 146 Q661 185 653 218 Q645 251 626 276 Q607 301 576.5 315 Q546 329 500 329 Q449 329 403.5 304 Q358 279 321 240.5 Q284 202 256 155 Q228 108 212 64 L661 64 Z M216 189 Q273 288 350.5 341.5 Q428 395 519 395 Q616 395 670 333.5 Q724 272 724 166 L724 0 L21 0 L21 64 L154 64 L154 714 L216 714 L216 189 Z M471 567 Q471 585 483.5 597.5 Q496 610 514 610 Q532 610 545.5 597.5 Q559 585 559 567 Q559 549 545.5 536 Q532 523 514 523 Q496 523 483.5 536 Q471 549 471 567 Z " />
<glyph glyph-name="uniFEC7" unicode="&#xfec7;" horiz-adv-x="752" d="M630 64 L630 146 Q630 185 622 218 Q614 251 595 276 Q576 301 545 315 Q514 329 468 329 Q417 329 372 304 Q327 279 290 240.5 Q253 202 225 155 Q197 108 181 64 L630 64 Z M488 395 Q585 395 638.5 333.5 Q692 272 692 166 L692 0 L0 0 Q-17 0 -26 6.5 Q-35 13 -35 31 Q-35 52 -26 58 Q-17 64 0 64 L122 64 L122 714 L185 714 L185 189 Q242 288 319.5 341.5 Q397 395 488 395 Z M433 567 Q433 585 445.5 597.5 Q458 610 476 610 Q494 610 507.5 597.5 Q521 585 521 567 Q521 549 507.5 536 Q494 523 476 523 Q458 523 445.5 536 Q433 549 433 567 Z " />
<glyph glyph-name="uniFEC8" unicode="&#xfec8;" horiz-adv-x="757" d="M488 395 Q585 395 638.5 333.5 Q692 272 692 166 L692 64 L757 64 Q774 64 783 57.5 Q792 51 792 33 Q792 12 783 6 Q774 0 757 0 L0 0 Q-17 0 -26 6.5 Q-35 13 -35 31 Q-35 52 -26 58 Q-17 64 0 64 L122 64 L122 714 L185 714 L185 189 Q242 288 319.5 341.5 Q397 395 488 395 Z M630 64 L630 146 Q630 185 622 218 Q614 251 595 276 Q576 301 545 315 Q514 329 468 329 Q417 329 372 304 Q327 279 290 240.5 Q253 202 225 155 Q197 108 181 64 L630 64 Z M428 567 Q428 585 440.5 597.5 Q453 610 471 610 Q489 610 502.5 597.5 Q516 585 516 567 Q516 549 502.5 536 Q489 523 471 523 Q453 523 440.5 536 Q428 549 428 567 Z " />
<glyph glyph-name="uniFEC6" unicode="&#xfec6;" horiz-adv-x="789" d="M519 395 Q616 395 670 333.5 Q724 272 724 166 L724 64 L789 64 Q806 64 815 57.5 Q824 51 824 33 Q824 12 815 6 Q806 0 789 0 L21 0 L21 64 L154 64 L154 714 L216 714 L216 189 Q273 288 350.5 341.5 Q428 395 519 395 Z M661 64 L661 146 Q661 185 653 218 Q645 251 626 276 Q607 301 576.5 315 Q546 329 500 329 Q449 329 403.5 304 Q358 279 321 240.5 Q284 202 256 155 Q228 108 212 64 L661 64 Z M465 567 Q465 585 477.5 597.5 Q490 610 508 610 Q526 610 539.5 597.5 Q553 585 553 567 Q553 549 539.5 536 Q526 523 508 523 Q490 523 477.5 536 Q465 549 465 567 Z " />
<glyph glyph-name="&amp;#x639;" unicode="&#x639;" horiz-adv-x="505" d="M192 60 Q160 88 147 122 Q134 156 134 198 Q134 250 153.5 288 Q173 326 204 350.5 Q235 375 273.5 386.5 Q312 398 350 398 Q411 398 441 387 L441 318 Q424 323 403.5 326 Q383 329 353 329 Q281 329 239.5 293.5 Q198 258 198 197 Q198 137 234 100.5 Q270 64 345 64 L499 64 L499 0 L275 0 Q240 0 203.5 -7.5 Q167 -15 136.5 -34 Q106 -53 86.5 -86 Q67 -119 67 -170 Q67 -217 86 -251 Q105 -285 135.5 -307.5 Q166 -330 205 -341 Q244 -352 285 -352 Q326 -352 370.5 -345.5 Q415 -339 472 -313 L499 -364 Q471 -381 440 -391.5 Q409 -402 380 -408 Q351 -414 326.5 -416.5 Q302 -419 288 -419 Q226 -419 173.5 -403.5 Q121 -388 82.5 -357.5 Q44 -327 22 -282.5 Q0 -238 0 -179 Q0 -130 14 -89.5 Q28 -49 53.5 -19 Q79 11 114.5 31 Q150 51 192 60 Z " />
<glyph glyph-name="&amp;#xfec9;" unicode="&#xfec9;" horiz-adv-x="505" d="M192 60 Q160 88 147 122 Q134 156 134 198 Q134 250 153.5 288 Q173 326 204 350.5 Q235 375 273.5 386.5 Q312 398 350 398 Q411 398 441 387 L441 318 Q424 323 403.5 326 Q383 329 353 329 Q281 329 239.5 293.5 Q198 258 198 197 Q198 137 234 100.5 Q270 64 345 64 L499 64 L499 0 L275 0 Q240 0 203.5 -7.5 Q167 -15 136.5 -34 Q106 -53 86.5 -86 Q67 -119 67 -170 Q67 -217 86 -251 Q105 -285 135.5 -307.5 Q166 -330 205 -341 Q244 -352 285 -352 Q326 -352 370.5 -345.5 Q415 -339 472 -313 L499 -364 Q471 -381 440 -391.5 Q409 -402 380 -408 Q351 -414 326.5 -416.5 Q302 -419 288 -419 Q226 -419 173.5 -403.5 Q121 -388 82.5 -357.5 Q44 -327 22 -282.5 Q0 -238 0 -179 Q0 -130 14 -89.5 Q28 -49 53.5 -19 Q79 11 114.5 31 Q150 51 192 60 Z " />
<glyph glyph-name="uniFECB" unicode="&#xfecb;" horiz-adv-x="482" d="M0 0 Q-17 0 -26 6.5 Q-35 13 -35 31 Q-35 52 -26 58 Q-17 64 0 64 L145 64 Q120 90 106 125.5 Q92 161 92 198 Q92 249 111.5 286.5 Q131 324 161.5 349 Q192 374 230.5 386 Q269 398 308 398 Q369 398 399 387 L399 318 Q382 323 361.5 326 Q341 329 311 329 Q239 329 197.5 293.5 Q156 258 156 197 Q156 137 192 100.5 Q228 64 303 64 L444 64 L444 0 L0 0 Z " />
<glyph glyph-name="uniFECC" unicode="&#xfecc;" horiz-adv-x="529" d="M282 335 Q237 335 195.5 315.5 Q154 296 128 264 L269 115 Q324 144 359.5 181.5 Q395 219 395 261 Q395 290 367.5 312.5 Q340 335 282 335 Z M0 0 Q-17 0 -26 6.5 Q-35 13 -35 31 Q-35 52 -26 58 Q-17 64 0 64 L39 64 Q130 64 211 92 L74 249 Q80 270 91 291.5 Q102 313 111 324 Q143 356 188 375.5 Q233 395 287 395 Q330 395 362 384.5 Q394 374 415 357.5 Q436 341 446 319.5 Q456 298 456 276 Q456 216 419 165.5 Q382 115 319 76 Q337 68 355.5 66 Q374 64 399 64 L529 64 Q546 64 555 57.5 Q564 51 564 33 Q564 12 555 6 Q546 0 529 0 L371 0 Q342 0 315 8.5 Q288 17 259 44 Q210 23 155.5 11.5 Q101 0 44 0 L0 0 Z " />
<glyph glyph-name="uniFECA" unicode="&#xfeca;" horiz-adv-x="537" d="M292 335 Q247 335 205.5 315.5 Q164 296 138 264 L276 118 Q302 132 325.5 148.5 Q349 165 366.5 183 Q384 201 394 220.5 Q404 240 404 261 Q404 290 377 312.5 Q350 335 292 335 Z M380 0 Q350 0 322.5 9.5 Q295 19 263 48 Q224 27 189.5 3.5 Q155 -20 129 -48 Q103 -76 88 -110 Q73 -144 73 -185 Q73 -230 89.5 -261.5 Q106 -293 135.5 -313 Q165 -333 205 -342.5 Q245 -352 292 -352 Q333 -352 377.5 -345.5 Q422 -339 479 -313 L505 -364 Q478 -381 447 -391.5 Q416 -402 385.5 -408 Q355 -414 328 -416.5 Q301 -419 282 -419 Q219 -419 167 -404.5 Q115 -390 78 -361.5 Q41 -333 20.5 -292 Q0 -251 0 -198 Q0 -151 16 -110.5 Q32 -70 61 -34.5 Q90 1 131 32 Q172 63 223 91 Q190 129 153.5 170 Q117 211 84 249 Q90 270 101 291.5 Q112 313 121 324 Q153 356 198 375.5 Q243 395 297 395 Q340 395 372 384.5 Q404 374 425 357.5 Q446 341 456 319.5 Q466 298 466 276 Q466 216 427.5 166 Q389 116 323 78 Q342 69 362.5 66.5 Q383 64 409 64 L538 64 Q555 64 564 57.5 Q573 51 573 33 Q573 12 564 6 Q555 0 538 0 L380 0 Z " />
<glyph glyph-name="&amp;#x63a;" unicode="&#x63a;" horiz-adv-x="505" d="M192 60 Q160 88 147 122 Q134 156 134 198 Q134 250 153.5 288 Q173 326 204 350.5 Q235 375 273.5 386.5 Q312 398 350 398 Q411 398 441 387 L441 318 Q424 323 403.5 326 Q383 329 353 329 Q281 329 239.5 293.5 Q198 258 198 197 Q198 137 234 100.5 Q270 64 345 64 L499 64 L499 0 L275 0 Q240 0 203.5 -7.5 Q167 -15 136.5 -34 Q106 -53 86.5 -86 Q67 -119 67 -170 Q67 -217 86 -251 Q105 -285 135.5 -307.5 Q166 -330 205 -341 Q244 -352 285 -352 Q326 -352 370.5 -345.5 Q415 -339 472 -313 L499 -364 Q471 -381 440 -391.5 Q409 -402 380 -408 Q351 -414 326.5 -416.5 Q302 -419 288 -419 Q226 -419 173.5 -403.5 Q121 -388 82.5 -357.5 Q44 -327 22 -282.5 Q0 -238 0 -179 Q0 -130 14 -89.5 Q28 -49 53.5 -19 Q79 11 114.5 31 Q150 51 192 60 Z M278 567 Q278 585 290.5 597.5 Q303 610 321 610 Q339 610 352.5 597.5 Q366 585 366 567 Q366 549 352.5 536 Q339 523 321 523 Q303 523 290.5 536 Q278 549 278 567 Z " />
<glyph glyph-name="&amp;#xfecd;" unicode="&#xfecd;" horiz-adv-x="505" d="M192 60 Q160 88 147 122 Q134 156 134 198 Q134 250 153.5 288 Q173 326 204 350.5 Q235 375 273.5 386.5 Q312 398 350 398 Q411 398 441 387 L441 318 Q424 323 403.5 326 Q383 329 353 329 Q281 329 239.5 293.5 Q198 258 198 197 Q198 137 234 100.5 Q270 64 345 64 L499 64 L499 0 L275 0 Q240 0 203.5 -7.5 Q167 -15 136.5 -34 Q106 -53 86.5 -86 Q67 -119 67 -170 Q67 -217 86 -251 Q105 -285 135.5 -307.5 Q166 -330 205 -341 Q244 -352 285 -352 Q326 -352 370.5 -345.5 Q415 -339 472 -313 L499 -364 Q471 -381 440 -391.5 Q409 -402 380 -408 Q351 -414 326.5 -416.5 Q302 -419 288 -419 Q226 -419 173.5 -403.5 Q121 -388 82.5 -357.5 Q44 -327 22 -282.5 Q0 -238 0 -179 Q0 -130 14 -89.5 Q28 -49 53.5 -19 Q79 11 114.5 31 Q150 51 192 60 Z M278 567 Q278 585 290.5 597.5 Q303 610 321 610 Q339 610 352.5 597.5 Q366 585 366 567 Q366 549 352.5 536 Q339 523 321 523 Q303 523 290.5 536 Q278 549 278 567 Z " />
<glyph glyph-name="uniFECF" unicode="&#xfecf;" horiz-adv-x="482" d="M0 0 Q-17 0 -26 6.5 Q-35 13 -35 31 Q-35 52 -26 58 Q-17 64 0 64 L145 64 Q120 90 106 125.5 Q92 161 92 198 Q92 249 111.5 286.5 Q131 324 161.5 349 Q192 374 230.5 386 Q269 398 308 398 Q369 398 399 387 L399 318 Q382 323 361.5 326 Q341 329 311 329 Q239 329 197.5 293.5 Q156 258 156 197 Q156 137 192 100.5 Q228 64 303 64 L444 64 L444 0 L0 0 Z M243 567 Q243 585 255.5 597.5 Q268 610 286 610 Q304 610 317.5 597.5 Q331 585 331 567 Q331 549 317.5 536 Q304 523 286 523 Q268 523 255.5 536 Q243 549 243 567 Z " />
<glyph glyph-name="uniFED0" unicode="&#xfed0;" horiz-adv-x="529" d="M282 335 Q237 335 195.5 315.5 Q154 296 128 264 L269 115 Q324 144 359.5 181.5 Q395 219 395 261 Q395 290 367.5 312.5 Q340 335 282 335 Z M0 0 Q-17 0 -26 6.5 Q-35 13 -35 31 Q-35 52 -26 58 Q-17 64 0 64 L39 64 Q130 64 211 92 L74 249 Q80 270 91 291.5 Q102 313 111 324 Q143 356 188 375.5 Q233 395 287 395 Q330 395 362 384.5 Q394 374 415 357.5 Q436 341 446 319.5 Q456 298 456 276 Q456 216 419 165.5 Q382 115 319 76 Q337 68 355.5 66 Q374 64 399 64 L529 64 Q546 64 555 57.5 Q564 51 564 33 Q564 12 555 6 Q546 0 529 0 L371 0 Q342 0 315 8.5 Q288 17 259 44 Q210 23 155.5 11.5 Q101 0 44 0 L0 0 Z M239 567 Q239 585 251.5 597.5 Q264 610 282 610 Q300 610 313.5 597.5 Q327 585 327 567 Q327 549 313.5 536 Q300 523 282 523 Q264 523 251.5 536 Q239 549 239 567 Z " />
<glyph glyph-name="uniFECE" unicode="&#xfece;" horiz-adv-x="537" d="M292 335 Q247 335 205.5 315.5 Q164 296 138 264 L276 118 Q302 132 325.5 148.5 Q349 165 366.5 183 Q384 201 394 220.5 Q404 240 404 261 Q404 290 377 312.5 Q350 335 292 335 Z M380 0 Q350 0 322.5 9.5 Q295 19 263 48 Q224 27 189.5 3.5 Q155 -20 129 -48 Q103 -76 88 -110 Q73 -144 73 -185 Q73 -230 89.5 -261.5 Q106 -293 135.5 -313 Q165 -333 205 -342.5 Q245 -352 292 -352 Q333 -352 377.5 -345.5 Q422 -339 479 -313 L505 -364 Q478 -381 447 -391.5 Q416 -402 385.5 -408 Q355 -414 328 -416.5 Q301 -419 282 -419 Q219 -419 167 -404.5 Q115 -390 78 -361.5 Q41 -333 20.5 -292 Q0 -251 0 -198 Q0 -151 16 -110.5 Q32 -70 61 -34.5 Q90 1 131 32 Q172 63 223 91 Q190 129 153.5 170 Q117 211 84 249 Q90 270 101 291.5 Q112 313 121 324 Q153 356 198 375.5 Q243 395 297 395 Q340 395 372 384.5 Q404 374 425 357.5 Q446 341 456 319.5 Q466 298 466 276 Q466 216 427.5 166 Q389 116 323 78 Q342 69 362.5 66.5 Q383 64 409 64 L538 64 Q555 64 564 57.5 Q573 51 573 33 Q573 12 564 6 Q555 0 538 0 L380 0 Z M245 567 Q245 585 257.5 597.5 Q270 610 288 610 Q306 610 319.5 597.5 Q333 585 333 567 Q333 549 319.5 536 Q306 523 288 523 Q270 523 257.5 536 Q245 549 245 567 Z " />
<glyph glyph-name="&amp;#x641;" unicode="&#x641;" horiz-adv-x="1022" d="M647 199 Q647 164 658 138.5 Q669 113 688 96.5 Q707 80 732.5 72 Q758 64 788 64 L900 64 L900 180 Q900 207 895 234.5 Q890 262 876 284 Q862 306 838 320 Q814 334 777 334 Q747 334 722.5 323.5 Q698 313 681.5 294.5 Q665 276 656 251.5 Q647 227 647 199 Z M635 64 Q610 88 599 120.5 Q588 153 588 185 Q588 224 601 261.5 Q614 299 638.5 329 Q663 359 699.5 377 Q736 395 783 395 Q837 395 871.5 375 Q906 355 926.5 324.5 Q947 294 954.5 256.5 Q962 219 962 183 L962 0 L200 0 Q143 0 104.5 7.5 Q66 15 43 32 Q20 49 10 76 Q0 103 0 142 L0 292 L62 292 L62 173 Q62 137 70 115 Q78 93 98.5 82 Q119 71 154 67.5 Q189 64 242 64 L635 64 Z M725 567 Q725 585 737.5 597.5 Q750 610 768 610 Q786 610 799.5 597.5 Q813 585 813 567 Q813 549 799.5 536 Q786 523 768 523 Q750 523 737.5 536 Q725 549 725 567 Z " />
<glyph glyph-name="&amp;#xfed1;" unicode="&#xfed1;" horiz-adv-x="1022" d="M647 199 Q647 164 658 138.5 Q669 113 688 96.5 Q707 80 732.5 72 Q758 64 788 64 L900 64 L900 180 Q900 207 895 234.5 Q890 262 876 284 Q862 306 838 320 Q814 334 777 334 Q747 334 722.5 323.5 Q698 313 681.5 294.5 Q665 276 656 251.5 Q647 227 647 199 Z M635 64 Q610 88 599 120.5 Q588 153 588 185 Q588 224 601 261.5 Q614 299 638.5 329 Q663 359 699.5 377 Q736 395 783 395 Q837 395 871.5 375 Q906 355 926.5 324.5 Q947 294 954.5 256.5 Q962 219 962 183 L962 0 L200 0 Q143 0 104.5 7.5 Q66 15 43 32 Q20 49 10 76 Q0 103 0 142 L0 292 L62 292 L62 173 Q62 137 70 115 Q78 93 98.5 82 Q119 71 154 67.5 Q189 64 242 64 L635 64 Z M725 567 Q725 585 737.5 597.5 Q750 610 768 610 Q786 610 799.5 597.5 Q813 585 813 567 Q813 549 799.5 536 Q786 523 768 523 Q750 523 737.5 536 Q725 549 725 567 Z " />
<glyph glyph-name="uniFED3" unicode="&#xfed3;" horiz-adv-x="530" d="M156 199 Q156 129 196.5 96.5 Q237 64 297 64 L409 64 L409 180 Q409 207 403.5 234.5 Q398 262 384.5 284 Q371 306 347 320 Q323 334 286 334 Q256 334 231.5 323.5 Q207 313 190.5 294.5 Q174 276 165 251.5 Q156 227 156 199 Z M0 0 Q-17 0 -26 6.5 Q-35 13 -35 31 Q-35 52 -26 58 Q-17 64 0 64 L143 64 Q119 88 108 120.5 Q97 153 97 185 Q97 224 109.5 261.5 Q122 299 147 329 Q172 359 208.5 377 Q245 395 292 395 Q346 395 380.5 375 Q415 355 435 324.5 Q455 294 462.5 256.5 Q470 219 470 183 L470 0 L0 0 Z M245 567 Q245 585 257.5 597.5 Q270 610 288 610 Q306 610 319.5 597.5 Q333 585 333 567 Q333 549 319.5 536 Q306 523 288 523 Q270 523 257.5 536 Q245 549 245 567 Z " />
<glyph glyph-name="uniFED4" unicode="&#xfed4;" horiz-adv-x="534" d="M0 0 Q-17 0 -26 6.5 Q-35 13 -35 31 Q-35 52 -26 58 Q-17 64 0 64 L143 64 Q119 88 108 120.5 Q97 153 97 185 Q97 224 109.5 261.5 Q122 299 147 329 Q172 359 208.5 377 Q245 395 292 395 Q346 395 380.5 375 Q415 355 435 324.5 Q455 294 462.5 256.5 Q470 219 470 183 L470 64 L534 64 Q551 64 560 57.5 Q569 51 569 33 Q569 12 560 6 Q551 0 534 0 L0 0 Z M156 199 Q156 129 196.5 96.5 Q237 64 297 64 L409 64 L409 180 Q409 207 403.5 234.5 Q398 262 384.5 284 Q371 306 347 320 Q323 334 286 334 Q256 334 231.5 323.5 Q207 313 190.5 294.5 Q174 276 165 251.5 Q156 227 156 199 Z M243 567 Q243 585 255.5 597.5 Q268 610 286 610 Q304 610 317.5 597.5 Q331 585 331 567 Q331 549 317.5 536 Q304 523 286 523 Q268 523 255.5 536 Q243 549 243 567 Z " />
<glyph glyph-name="uniFED2" unicode="&#xfed2;" horiz-adv-x="1026" d="M200 0 Q143 0 104.5 7.5 Q66 15 43 32 Q20 49 10 76 Q0 103 0 142 L0 292 L62 292 L62 173 Q62 137 70 115 Q78 93 98.5 82 Q119 71 154 67.5 Q189 64 242 64 L634 64 Q610 88 599 120.5 Q588 153 588 185 Q588 224 601 261.5 Q614 299 638.5 329 Q663 359 699.5 377 Q736 395 783 395 Q837 395 871.5 375 Q906 355 926.5 324.5 Q947 294 954.5 256.5 Q962 219 962 183 L962 64 L1026 64 Q1043 64 1052 57.5 Q1061 51 1061 33 Q1061 12 1052 6 Q1043 0 1026 0 L200 0 Z M647 199 Q647 164 658 138.5 Q669 113 688 96.5 Q707 80 732.5 72 Q758 64 788 64 L900 64 L900 180 Q900 207 894.5 234.5 Q889 262 875.5 284 Q862 306 838 320 Q814 334 777 334 Q747 334 722.5 323.5 Q698 313 681.5 294.5 Q665 276 656 251.5 Q647 227 647 199 Z M725 567 Q725 585 737.5 597.5 Q750 610 768 610 Q786 610 799.5 597.5 Q813 585 813 567 Q813 549 799.5 536 Q786 523 768 523 Q750 523 737.5 536 Q725 549 725 567 Z " />
<glyph glyph-name="&amp;#x642;" unicode="&#x642;" horiz-adv-x="734" d="M0 192 L63 192 L63 79 Q63 -30 128 -81.5 Q193 -133 339 -133 Q388 -133 436.5 -123.5 Q485 -114 523.5 -92.5 Q562 -71 586 -36 Q610 -1 610 51 L610 89 Q585 75 551.5 62 Q518 49 473 49 Q435 49 402.5 59 Q370 69 345.5 90.5 Q321 112 307 145 Q293 178 293 223 Q293 264 305.5 302 Q318 340 343 369.5 Q368 399 404.5 416.5 Q441 434 488 434 Q540 434 576 414.5 Q612 395 633.5 360.5 Q655 326 664.5 278 Q674 230 674 173 L674 85 Q674 11 651 -42 Q628 -95 584.5 -129.5 Q541 -164 479 -180.5 Q417 -197 339 -197 Q244 -197 179.5 -178 Q115 -159 75 -124.5 Q35 -90 17.5 -41 Q0 8 0 68 L0 192 Z M354 225 Q354 164 389.5 137 Q425 110 482 110 Q524 110 558 121.5 Q592 133 610 148 L610 194 Q610 233 603.5 266 Q597 299 581.5 323 Q566 347 541 360.5 Q516 374 480 374 Q447 374 423.5 361 Q400 348 384.5 327 Q369 306 361.5 279 Q354 252 354 225 Z M376 617 Q376 635 389 647.5 Q402 660 420 660 Q438 660 451 647.5 Q464 635 464 617 Q464 599 451 586 Q438 573 420 573 Q402 573 389 586 Q376 599 376 617 Z M512 617 Q512 635 525 647.5 Q538 660 556 660 Q574 660 587 647.5 Q600 635 600 617 Q600 599 587 586 Q574 573 556 573 Q538 573 525 586 Q512 599 512 617 Z " />
<glyph glyph-name="&amp;#xfed5;" unicode="&#xfed5;" horiz-adv-x="734" d="M0 192 L63 192 L63 79 Q63 -30 128 -81.5 Q193 -133 339 -133 Q388 -133 436.5 -123.5 Q485 -114 523.5 -92.5 Q562 -71 586 -36 Q610 -1 610 51 L610 89 Q585 75 551.5 62 Q518 49 473 49 Q435 49 402.5 59 Q370 69 345.5 90.5 Q321 112 307 145 Q293 178 293 223 Q293 264 305.5 302 Q318 340 343 369.5 Q368 399 404.5 416.5 Q441 434 488 434 Q540 434 576 414.5 Q612 395 633.5 360.5 Q655 326 664.5 278 Q674 230 674 173 L674 85 Q674 11 651 -42 Q628 -95 584.5 -129.5 Q541 -164 479 -180.5 Q417 -197 339 -197 Q244 -197 179.5 -178 Q115 -159 75 -124.5 Q35 -90 17.5 -41 Q0 8 0 68 L0 192 Z M354 225 Q354 164 389.5 137 Q425 110 482 110 Q524 110 558 121.5 Q592 133 610 148 L610 194 Q610 233 603.5 266 Q597 299 581.5 323 Q566 347 541 360.5 Q516 374 480 374 Q447 374 423.5 361 Q400 348 384.5 327 Q369 306 361.5 279 Q354 252 354 225 Z M376 617 Q376 635 389 647.5 Q402 660 420 660 Q438 660 451 647.5 Q464 635 464 617 Q464 599 451 586 Q438 573 420 573 Q402 573 389 586 Q376 599 376 617 Z M512 617 Q512 635 525 647.5 Q538 660 556 660 Q574 660 587 647.5 Q600 635 600 617 Q600 599 587 586 Q574 573 556 573 Q538 573 525 586 Q512 599 512 617 Z " />
<glyph glyph-name="uniFED7" unicode="&#xfed7;" horiz-adv-x="536" d="M193 567 Q193 585 206 597.5 Q219 610 237 610 Q255 610 268 597.5 Q281 585 281 567 Q281 549 268 536 Q255 523 237 523 Q219 523 206 536 Q193 549 193 567 Z M329 567 Q329 585 342 597.5 Q355 610 373 610 Q391 610 404 597.5 Q417 585 417 567 Q417 549 404 536 Q391 523 373 523 Q355 523 342 536 Q329 549 329 567 Z M168 199 Q168 129 208.5 96.5 Q249 64 309 64 L421 64 L421 180 Q421 207 415.5 234.5 Q410 262 396.5 284 Q383 306 359 320 Q335 334 298 334 Q268 334 243.5 323.5 Q219 313 202.5 294.5 Q186 276 177 251.5 Q168 227 168 199 Z M12 0 Q-5 0 -14 6.5 Q-23 13 -23 31 Q-23 52 -14 58 Q-5 64 12 64 L155 64 Q131 88 120 120.5 Q109 153 109 185 Q109 224 121.5 261.5 Q134 299 159 329 Q184 359 220.5 377 Q257 395 304 395 Q358 395 392.5 375 Q427 355 447 324.5 Q467 294 474.5 256.5 Q482 219 482 183 L482 0 L12 0 Z " />
<glyph glyph-name="uniFED8" unicode="&#xfed8;" horiz-adv-x="534" d="M0 0 Q-17 0 -26 6.5 Q-35 13 -35 31 Q-35 52 -26 58 Q-17 64 0 64 L143 64 Q119 88 108 120.5 Q97 153 97 185 Q97 224 109.5 261.5 Q122 299 147 329 Q172 359 208.5 377 Q245 395 292 395 Q346 395 380.5 375 Q415 355 435 324.5 Q455 294 462.5 256.5 Q470 219 470 183 L470 64 L534 64 Q551 64 560 57.5 Q569 51 569 33 Q569 12 560 6 Q551 0 534 0 L0 0 Z M156 199 Q156 129 196.5 96.5 Q237 64 297 64 L409 64 L409 180 Q409 207 403.5 234.5 Q398 262 384.5 284 Q371 306 347 320 Q323 334 286 334 Q256 334 231.5 323.5 Q207 313 190.5 294.5 Q174 276 165 251.5 Q156 227 156 199 Z M180 567 Q180 585 193 597.5 Q206 610 224 610 Q242 610 255 597.5 Q268 585 268 567 Q268 549 255 536 Q242 523 224 523 Q206 523 193 536 Q180 549 180 567 Z M316 567 Q316 585 329 597.5 Q342 610 360 610 Q378 610 391 597.5 Q404 585 404 567 Q404 549 391 536 Q378 523 360 523 Q342 523 329 536 Q316 549 316 567 Z " />
</font>
</svg>
